SplineFontDB: 3.0
FontName: HM_XBKhoramshahr-ObliqueBold
FullName: HM_XBKhoramshahr Oblique Bold
FamilyName: HM_XBKhoramshahr
Weight: Bold
Copyright: Copyright (c) Hossein, 2013. All rights reserved.
Version: 0.11
ItalicAngle: 12
UnderlinePosition: -540
UnderlineWidth: 60
Ascent: 1638
Descent: 410
sfntRevision: 0x00010000
LayerCount: 2
Layer: 0 1 "Back"  1
Layer: 1 1 "Fore"  0
XUID: [1021 664 1783864401 7908095]
FSType: 0
OS2Version: 2
OS2_WeightWidthSlopeOnly: 0
OS2_UseTypoMetrics: 1
CreationTime: 1239639780
ModificationTime: 1360911888
PfmFamily: 17
TTFWeight: 700
TTFWidth: 5
LineGap: 0
VLineGap: 0
Panose: 2 0 5 3 9 0 0 2 0 4
OS2TypoAscent: 2200
OS2TypoAOffset: 0
OS2TypoDescent: -800
OS2TypoDOffset: 0
OS2TypoLinegap: 0
OS2WinAscent: 2200
OS2WinAOffset: 0
OS2WinDescent: 800
OS2WinDOffset: 0
HheadAscent: 2200
HheadAOffset: 0
HheadDescent: -800
HheadDOffset: 0
OS2SubXSize: 1434
OS2SubYSize: 1331
OS2SubXOff: 0
OS2SubYOff: 293
OS2SupXSize: 1434
OS2SupYSize: 1331
OS2SupXOff: 0
OS2SupYOff: 928
OS2StrikeYSize: 102
OS2StrikeYPos: 512
OS2Vendor: 'pars'
OS2CodePages: 20000051.41000000
OS2UnicodeRanges: 00002003.80000000.00000008.00000000
Lookup: 4 0 0 "'ccmp' Glyph Composition/Decomposition in Latin lookup 0"  {"'ccmp' Glyph Composition/Decomposition in Latin lookup 0 subtable"  } ['ccmp' ('latn' <'dflt' > ) ]
Lookup: 6 1 0 "'ccmp' Glyph Composition/Decomposition in Arabic lookup 1"  {"'ccmp' Glyph Composition/Decomposition in Arabic lookup 1 contextual 0"  "'ccmp' Glyph Composition/Decomposition in Arabic lookup 1 contextual 1"  "'ccmp' Glyph Composition/Decomposition in Arabic lookup 1 contextual 2"  "'ccmp' Glyph Composition/Decomposition in Arabic lookup 1 contextual 3"  "'ccmp' Glyph Composition/Decomposition in Arabic lookup 1 contextual 4"  "'ccmp' Glyph Composition/Decomposition in Arabic lookup 1 contextual 5"  } ['ccmp' ('arab' <'ARA ' 'DRI ' 'FAR ' 'KUR ' 'PAS ' 'TRK ' 'URD ' 'UYG ' 'UZB ' 'dflt' > ) ]

StartChar: .notdef
Encoding: 65536 -1 0
Width: 1288
GlyphClass: 2
Flags: W
LayerCount: 2
Fore
SplineSet
113 0 m 1,0,-1
 113 1325 l 1,1,-1
 1169 1325 l 1,2,-1
 1170 0 l 1,3,-1
 113 0 l 1,0,-1
1134 1288 m 1,4,-1
 147 1288 l 1,5,-1
 146 36 l 1,6,-1
 1134 36 l 1,7,-1
 1134 1288 l 1,4,-1
752 314 m 0,8,9
 752 279 752 279 727 257 c 128,-1,10
 702 235 702 235 667 235 c 0,11,12
 650 235 650 235 636 242 c 128,-1,13
 622 249 622 249 611.5 260 c 128,-1,14
 601 271 601 271 595.5 286 c 128,-1,15
 590 301 590 301 590 317 c 0,16,17
 590 394 590 394 673 394 c 0,18,19
 690 394 690 394 704 387 c 128,-1,20
 718 380 718 380 729 368.5 c 128,-1,21
 740 357 740 357 746 343 c 128,-1,22
 752 329 752 329 752 314 c 0,8,9
813 948 m 0,23,24
 813 860 813 860 752 860 c 0,25,26
 672 860 672 860 672 918 c 0,27,28
 672 925 672 925 675.5 939 c 128,-1,29
 679 953 679 953 681 959 c 1,30,-1
 681 964 l 2,31,32
 681 976 681 976 685.5 988 c 128,-1,33
 690 1000 690 1000 690 1005 c 0,34,35
 690 1050 690 1050 622 1050 c 0,36,37
 598 1050 598 1050 578.5 1037.5 c 128,-1,38
 559 1025 559 1025 545 1003 c 128,-1,39
 531 981 531 981 523.5 952.5 c 128,-1,40
 516 924 516 924 516 891 c 0,41,42
 516 859 516 859 528 831 c 128,-1,43
 540 803 540 803 561 782 c 128,-1,44
 582 761 582 761 610.5 748.5 c 128,-1,45
 639 736 639 736 671 736 c 0,46,47
 679 736 679 736 690.5 736.5 c 128,-1,48
 702 737 702 737 711 738 c 1,49,-1
 711 460 l 1,50,-1
 640 460 l 1,51,-1
 640 603 l 1,52,53
 591 606 591 606 547.5 626.5 c 128,-1,54
 504 647 504 647 472 680.5 c 128,-1,55
 440 714 440 714 421.5 758.5 c 128,-1,56
 403 803 403 803 403 854 c 0,57,58
 403 1110 403 1110 633 1110 c 0,59,60
 670 1110 670 1110 703 1098.5 c 128,-1,61
 736 1087 736 1087 760.5 1065.5 c 128,-1,62
 785 1044 785 1044 799 1014 c 128,-1,63
 813 984 813 984 813 948 c 0,23,24
EndSplineSet
EndChar

StartChar: exclam
Encoding: 33 33 4
Width: 600
GlyphClass: 2
Flags: W
LayerCount: 2
Fore
SplineSet
497 245 m 0,0,1
 503 218 503 218 498.5 195 c 128,-1,2
 494 172 494 172 480.5 154.5 c 128,-1,3
 467 137 467 137 446 127 c 128,-1,4
 425 117 425 117 399 117 c 0,5,6
 274 117 274 117 247 245 c 1,7,8
 222 369 222 369 345 369 c 0,9,10
 371 369 371 369 396 359.5 c 128,-1,11
 421 350 421 350 442 333 c 128,-1,12
 463 316 463 316 477.5 293.5 c 128,-1,13
 492 271 492 271 497 245 c 0,0,1
310 1117 m 0,14,15
 316 1089 316 1089 321 1042 c 128,-1,16
 326 995 326 995 331 943 c 0,17,18
 332 930 332 930 333.5 917 c 128,-1,19
 335 904 335 904 336 891 c 0,20,21
 337 888 337 888 337 881 c 1,22,23
 339 875 339 875 339 866 c 2,24,25
 339 866 339 866 339 861 c 1,26,27
 341 857 341 857 340.5 854.5 c 128,-1,28
 340 852 340 852 340 850 c 2,29,-1
 342 841 l 1,30,31
 339 837 339 837 341 831 c 1,32,-1
 341 826 l 1,33,-1
 342 821 l 2,34,35
 342 820 342 820 341.5 819.5 c 128,-1,36
 341 819 341 819 342 817 c 0,37,38
 343 814 343 814 342.5 812 c 128,-1,39
 342 810 342 810 343 807 c 0,40,41
 344 800 344 800 343 797 c 1,42,-1
 343 798 l 1,43,44
 345 777 345 777 346 762.5 c 128,-1,45
 347 748 347 748 348 744 c 0,46,47
 350 736 350 736 352 711.5 c 128,-1,48
 354 687 354 687 355 655 c 128,-1,49
 356 623 356 623 356 588.5 c 128,-1,50
 356 554 356 554 353 524.5 c 128,-1,51
 350 495 350 495 343.5 476 c 128,-1,52
 337 457 337 457 326 457 c 0,53,54
 312 457 312 457 295 478.5 c 128,-1,55
 278 500 278 500 259 538.5 c 128,-1,56
 240 577 240 577 221 629.5 c 128,-1,57
 202 682 202 682 183 743 c 0,58,59
 179 754 179 754 172 774 c 128,-1,60
 165 794 165 794 155 818 c 1,61,-1
 154 823 l 2,62,63
 153 826 153 826 152.5 826.5 c 128,-1,64
 152 827 152 827 152 828 c 0,65,66
 150 833 150 833 150 837 c 1,67,68
 138 872 138 872 125 912 c 128,-1,69
 112 952 112 952 99.5 990.5 c 128,-1,70
 87 1029 87 1029 77 1063 c 128,-1,71
 67 1097 67 1097 62 1120 c 0,72,73
 25 1300 25 1300 148 1300 c 256,74,75
 271 1300 271 1300 310 1117 c 0,14,15
EndSplineSet
EndChar

StartChar: quotedbl
Encoding: 34 34 5
Width: 948
GlyphClass: 2
Flags: W
LayerCount: 2
Fore
SplineSet
613 1462 m 1,0,-1
 752 805 l 1,1,-1
 533 805 l 1,2,-1
 394 1462 l 1,3,-1
 613 1462 l 1,0,-1
232 1462 m 1,4,-1
 371 805 l 1,5,-1
 152 805 l 1,6,-1
 14 1462 l 1,7,-1
 232 1462 l 1,4,-1
EndSplineSet
EndChar

StartChar: numbersign
Encoding: 35 35 6
Width: 1140
GlyphClass: 2
Flags: W
LayerCount: 2
Fore
SplineSet
68 406 m 1,0,-1
 68 590 l 1,1,-1
 261 590 l 1,2,-1
 298 844 l 1,3,-1
 129 844 l 1,4,-1
 129 1028 l 1,5,-1
 323 1028 l 1,6,-1
 380 1434 l 1,7,-1
 579 1434 l 1,8,-1
 521 1028 l 1,9,-1
 720 1028 l 1,10,-1
 775 1434 l 1,11,-1
 974 1434 l 1,12,-1
 919 1028 l 1,13,-1
 1070 1028 l 1,14,-1
 1070 844 l 1,15,-1
 892 844 l 1,16,-1
 857 590 l 1,17,-1
 1009 590 l 1,18,-1
 1009 406 l 1,19,-1
 830 406 l 1,20,-1
 776 0 l 1,21,-1
 578 0 l 1,22,-1
 632 406 l 1,23,-1
 435 406 l 1,24,-1
 379 0 l 1,25,-1
 180 0 l 1,26,-1
 237 406 l 1,27,-1
 68 406 l 1,0,-1
460 590 m 1,28,-1
 658 590 l 1,29,-1
 693 844 l 1,30,-1
 497 844 l 1,31,-1
 460 590 l 1,28,-1
EndSplineSet
EndChar

StartChar: dollar
Encoding: 36 36 7
Width: 1139
GlyphClass: 2
Flags: W
LayerCount: 2
Fore
SplineSet
507 1257 m 1,0,1
 473 1257 473 1257 439.5 1246.5 c 128,-1,2
 406 1236 406 1236 380.5 1215 c 128,-1,3
 355 1194 355 1194 339 1162 c 128,-1,4
 323 1130 323 1130 323 1087 c 0,5,6
 323 1053 323 1053 333.5 1027.5 c 128,-1,7
 344 1002 344 1002 366 983 c 128,-1,8
 388 964 388 964 423 949.5 c 128,-1,9
 458 935 458 935 507 924 c 1,10,-1
 507 1257 l 1,0,1
628 205 m 1,11,12
 666 209 666 209 705 222 c 128,-1,13
 744 235 744 235 776 259.5 c 128,-1,14
 808 284 808 284 828.5 320.5 c 128,-1,15
 849 357 849 357 849 406 c 0,16,17
 849 446 849 446 837.5 475 c 128,-1,18
 826 504 826 504 799.5 526 c 128,-1,19
 773 548 773 548 731 565 c 128,-1,20
 689 582 689 582 628 598 c 1,21,-1
 628 205 l 1,11,12
288 475 m 1,22,23
 287 417 287 417 303.5 370.5 c 128,-1,24
 320 324 320 324 349.5 290.5 c 128,-1,25
 379 257 379 257 419.5 235.5 c 128,-1,26
 460 214 460 214 507 205 c 1,27,-1
 507 633 l 1,28,29
 496 638 496 638 478.5 642 c 128,-1,30
 461 646 461 646 441 651 c 0,31,32
 365 672 365 672 292 700 c 128,-1,33
 219 728 219 728 161.5 773.5 c 128,-1,34
 104 819 104 819 68.5 888 c 128,-1,35
 33 957 33 957 33 1059 c 0,36,37
 33 1164 33 1164 72.5 1243.5 c 128,-1,38
 112 1323 112 1323 178 1377 c 128,-1,39
 244 1431 244 1431 329.5 1461 c 128,-1,40
 415 1491 415 1491 507 1497 c 1,41,-1
 507 1655 l 1,42,-1
 628 1655 l 1,43,-1
 628 1497 l 1,44,45
 719 1487 719 1487 800 1457.5 c 128,-1,46
 881 1428 881 1428 943 1375.5 c 128,-1,47
 1005 1323 1005 1323 1044 1245.5 c 128,-1,48
 1083 1168 1083 1168 1089 1061 c 1,49,-1
 798 1061 l 1,50,51
 797 1102 797 1102 783.5 1137.5 c 128,-1,52
 770 1173 770 1173 747 1199.5 c 128,-1,53
 724 1226 724 1226 693.5 1241.5 c 128,-1,54
 663 1257 663 1257 628 1257 c 1,55,-1
 628 895 l 1,56,57
 653 889 653 889 678 882.5 c 128,-1,58
 703 876 703 876 732 868 c 0,59,60
 833 841 833 841 902 805 c 128,-1,61
 971 769 971 769 1016.5 727.5 c 128,-1,62
 1062 686 1062 686 1087 641.5 c 128,-1,63
 1112 597 1112 597 1123.5 553 c 128,-1,64
 1135 509 1135 509 1137.5 468 c 128,-1,65
 1140 427 1140 427 1140 393 c 0,66,67
 1140 363 1140 363 1130.5 321.5 c 128,-1,68
 1121 280 1121 280 1098 235 c 128,-1,69
 1075 190 1075 190 1037 145 c 128,-1,70
 999 100 999 100 942 62.5 c 128,-1,71
 885 25 885 25 807.5 -0.5 c 128,-1,72
 730 -26 730 -26 628 -33 c 1,73,-1
 628 -207 l 1,74,-1
 507 -207 l 1,75,-1
 507 -33 l 1,76,77
 278 -16 278 -16 149 109 c 128,-1,78
 20 234 20 234 0 475 c 1,79,-1
 288 475 l 1,22,23
EndSplineSet
EndChar

StartChar: percent
Encoding: 37 37 8
Width: 2048
GlyphClass: 2
Flags: W
LayerCount: 2
Fore
SplineSet
154 1057 m 0,0,1
 154 1141 154 1141 174.5 1214.5 c 128,-1,2
 195 1288 195 1288 238 1343 c 128,-1,3
 281 1398 281 1398 346 1430 c 128,-1,4
 411 1462 411 1462 501 1462 c 0,5,6
 596 1462 596 1462 660.5 1429 c 128,-1,7
 725 1396 725 1396 764 1340 c 128,-1,8
 803 1284 803 1284 820 1208.5 c 128,-1,9
 837 1133 837 1133 837 1049 c 256,10,11
 837 965 837 965 816.5 894.5 c 128,-1,12
 796 824 796 824 753.5 772.5 c 128,-1,13
 711 721 711 721 646 692.5 c 128,-1,14
 581 664 581 664 491 664 c 0,15,16
 397 664 397 664 332.5 693.5 c 128,-1,17
 268 723 268 723 228 775.5 c 128,-1,18
 188 828 188 828 171 900 c 128,-1,19
 154 972 154 972 154 1057 c 0,0,1
361 1053 m 0,20,21
 361 1020 361 1020 363 979 c 128,-1,22
 365 938 365 938 377.5 902 c 128,-1,23
 390 866 390 866 417 841.5 c 128,-1,24
 444 817 444 817 493 817 c 0,25,26
 541 817 541 817 568 841.5 c 128,-1,27
 595 866 595 866 608.5 902 c 128,-1,28
 622 938 622 938 625 978.5 c 128,-1,29
 628 1019 628 1019 628 1051 c 0,30,31
 628 1072 628 1072 627 1099 c 128,-1,32
 626 1126 626 1126 622 1154.5 c 128,-1,33
 618 1183 618 1183 610 1210.5 c 128,-1,34
 602 1238 602 1238 588 1260 c 128,-1,35
 574 1282 574 1282 552.5 1295.5 c 128,-1,36
 531 1309 531 1309 501 1309 c 0,37,38
 452 1309 452 1309 424 1282 c 128,-1,39
 396 1255 396 1255 382 1216 c 128,-1,40
 368 1177 368 1177 364.5 1132.5 c 128,-1,41
 361 1088 361 1088 361 1053 c 0,20,21
1541 1479 m 1,42,-1
 697 -43 l 1,43,-1
 519 -43 l 1,44,-1
 1367 1479 l 1,45,-1
 1541 1479 l 1,42,-1
1209 375 m 0,46,47
 1209 458 1209 458 1230 530 c 128,-1,48
 1251 602 1251 602 1293.5 655.5 c 128,-1,49
 1336 709 1336 709 1402 739.5 c 128,-1,50
 1468 770 1468 770 1558 770 c 0,51,52
 1653 770 1653 770 1717 738.5 c 128,-1,53
 1781 707 1781 707 1820 652 c 128,-1,54
 1859 597 1859 597 1876 524 c 128,-1,55
 1893 451 1893 451 1893 367 c 256,56,57
 1893 283 1893 283 1872.5 211 c 128,-1,58
 1852 139 1852 139 1810 86 c 128,-1,59
 1768 33 1768 33 1702.5 3 c 128,-1,60
 1637 -27 1637 -27 1547 -27 c 0,61,62
 1453 -27 1453 -27 1388 4 c 128,-1,63
 1323 35 1323 35 1283.5 89.5 c 128,-1,64
 1244 144 1244 144 1226.5 217.5 c 128,-1,65
 1209 291 1209 291 1209 375 c 0,46,47
1418 373 m 0,66,67
 1418 340 1418 340 1420 297 c 128,-1,68
 1422 254 1422 254 1434.5 216 c 128,-1,69
 1447 178 1447 178 1473.5 151.5 c 128,-1,70
 1500 125 1500 125 1549 125 c 0,71,72
 1597 125 1597 125 1624 151.5 c 128,-1,73
 1651 178 1651 178 1664.5 216 c 128,-1,74
 1678 254 1678 254 1681.5 296.5 c 128,-1,75
 1685 339 1685 339 1685 371 c 0,76,77
 1685 401 1685 401 1682 443 c 128,-1,78
 1679 485 1679 485 1666.5 523.5 c 128,-1,79
 1654 562 1654 562 1628.5 589 c 128,-1,80
 1603 616 1603 616 1558 616 c 0,81,82
 1509 616 1509 616 1480.5 591.5 c 128,-1,83
 1452 567 1452 567 1438.5 530 c 128,-1,84
 1425 493 1425 493 1421.5 450.5 c 128,-1,85
 1418 408 1418 408 1418 373 c 0,66,67
EndSplineSet
Ligature2: "<17006,16006> Roman in Arabic lookup 97 subtable" zero fraction zero
Ligature2: "<17006,16006> Roman in Arabic lookup 97 subtable" zero slash zero
Ligature2: "Ligature Substitution lookup 63 subtable" zero fraction zero
Ligature2: "Ligature Substitution lookup 63 subtable" zero slash zero
EndChar

StartChar: ampersand
Encoding: 38 38 9
Width: 1403
GlyphClass: 2
Flags: W
LayerCount: 2
Fore
SplineSet
781 1145 m 0,0,1
 781 1174 781 1174 770.5 1199 c 128,-1,2
 760 1224 760 1224 741.5 1243 c 128,-1,3
 723 1262 723 1262 699 1273 c 128,-1,4
 675 1284 675 1284 648 1284 c 256,5,6
 621 1284 621 1284 597.5 1274.5 c 128,-1,7
 574 1265 574 1265 556 1248 c 128,-1,8
 538 1231 538 1231 527.5 1207.5 c 128,-1,9
 517 1184 517 1184 517 1155 c 0,10,11
 517 1121 517 1121 527 1092 c 128,-1,12
 537 1063 537 1063 553.5 1036.5 c 128,-1,13
 570 1010 570 1010 590.5 986 c 128,-1,14
 611 962 611 962 632 936 c 1,15,16
 663 955 663 955 690 975 c 128,-1,17
 717 995 717 995 737.5 1019.5 c 128,-1,18
 758 1044 758 1044 769.5 1074.5 c 128,-1,19
 781 1105 781 1105 781 1145 c 0,0,1
546 645 m 1,20,21
 507 629 507 629 470 606 c 128,-1,22
 433 583 433 583 404.5 552.5 c 128,-1,23
 376 522 376 522 358.5 485 c 128,-1,24
 341 448 341 448 341 403 c 0,25,26
 341 363 341 363 358.5 328 c 128,-1,27
 376 293 376 293 405 267 c 128,-1,28
 434 241 434 241 471.5 226 c 128,-1,29
 509 211 509 211 550 211 c 0,30,31
 628 211 628 211 686.5 247 c 128,-1,32
 745 283 745 283 796 340 c 1,33,-1
 546 645 l 1,20,21
949 145 m 1,34,35
 861 59 861 59 762 16 c 128,-1,36
 663 -27 663 -27 538 -27 c 0,37,38
 439 -27 439 -27 352.5 2 c 128,-1,39
 266 31 266 31 202.5 87 c 128,-1,40
 139 143 139 143 102.5 224 c 128,-1,41
 66 305 66 305 66 410 c 0,42,43
 66 488 66 488 93 552.5 c 128,-1,44
 120 617 120 617 165 669.5 c 128,-1,45
 210 722 210 722 269 762.5 c 128,-1,46
 328 803 328 803 392 834 c 1,47,48
 362 870 362 870 336.5 905 c 128,-1,49
 311 940 311 940 292.5 977 c 128,-1,50
 274 1014 274 1014 263.5 1055.5 c 128,-1,51
 253 1097 253 1097 253 1145 c 0,52,53
 253 1221 253 1221 285 1283 c 128,-1,54
 317 1345 317 1345 370 1388.5 c 128,-1,55
 423 1432 423 1432 491.5 1455.5 c 128,-1,56
 560 1479 560 1479 634 1479 c 0,57,58
 717 1479 717 1479 790 1456.5 c 128,-1,59
 863 1434 863 1434 917.5 1390 c 128,-1,60
 972 1346 972 1346 1003.5 1280 c 128,-1,61
 1035 1214 1035 1214 1035 1128 c 0,62,63
 1035 1064 1035 1064 1015 1010 c 128,-1,64
 995 956 995 956 960.5 911.5 c 128,-1,65
 926 867 926 867 878.5 830.5 c 128,-1,66
 831 794 831 794 775 764 c 1,67,-1
 964 532 l 1,68,69
 987 574 987 574 999 618 c 128,-1,70
 1011 662 1011 662 1017 707 c 1,71,-1
 1269 707 l 1,72,73
 1258 607 1258 607 1223.5 516 c 128,-1,74
 1189 425 1189 425 1127 346 c 1,75,-1
 1425 0 l 1,76,-1
 1069 0 l 1,77,-1
 949 145 l 1,34,35
EndSplineSet
EndChar

StartChar: quotesingle
Encoding: 39 39 10
Width: 569
GlyphClass: 2
Flags: W
LayerCount: 2
Fore
SplineSet
234 1462 m 1,0,-1
 373 805 l 1,1,-1
 154 805 l 1,2,-1
 16 1462 l 1,3,-1
 234 1462 l 1,0,-1
EndSplineSet
EndChar

StartChar: parenleft
Encoding: 40 40 11
Width: 615
GlyphClass: 2
Flags: W
LayerCount: 2
Fore
SplineSet
564 1497 m 1,0,1
 446 1279 446 1279 393 1045.5 c 128,-1,2
 340 812 340 812 340 569 c 0,3,4
 340 322 340 322 392 87.5 c 128,-1,5
 444 -147 444 -147 561 -371 c 1,6,-1
 320 -371 l 1,7,8
 190 -159 190 -159 119.5 73.5 c 128,-1,9
 49 306 49 306 50 549 c 0,10,11
 50 663 50 663 67.5 789 c 128,-1,12
 85 915 85 915 119 1040 c 128,-1,13
 153 1165 153 1165 203.5 1282.5 c 128,-1,14
 254 1400 254 1400 320 1497 c 1,15,-1
 564 1497 l 1,0,1
EndSplineSet
Substitution2: "Single Substitution lookup 55 subtable" zerowidthspace
EndChar

StartChar: parenright
Encoding: 41 41 12
Width: 662
GlyphClass: 2
Flags: W
LayerCount: 2
Fore
SplineSet
0 -371 m 1,0,1
 112 -153 112 -153 166 78.5 c 128,-1,2
 220 310 220 310 220 553 c 0,3,4
 220 801 220 801 167 1037 c 128,-1,5
 114 1273 114 1273 2 1497 c 1,6,-1
 241 1497 l 1,7,8
 370 1286 370 1286 440.5 1051 c 128,-1,9
 511 816 511 816 511 573 c 0,10,11
 511 458 511 458 494.5 332.5 c 128,-1,12
 478 207 478 207 444 83 c 128,-1,13
 410 -41 410 -41 359.5 -157.5 c 128,-1,14
 309 -274 309 -274 240 -371 c 1,15,-1
 0 -371 l 1,0,1
EndSplineSet
Substitution2: "Single Substitution lookup 55 subtable" zerowidthspace
EndChar

StartChar: asterisk
Encoding: 42 42 13
Width: 834
GlyphClass: 2
Flags: W
LayerCount: 2
Fore
SplineSet
607 1296 m 1,0,-1
 695 1139 l 1,1,-1
 471 1059 l 1,2,-1
 665 858 l 1,3,-1
 551 758 l 1,4,-1
 356 969 l 1,5,-1
 256 758 l 1,6,-1
 99 858 l 1,7,-1
 207 1059 l 1,8,-1
 -47 1139 l 1,9,-1
 -25 1296 l 1,10,-1
 225 1206 l 1,11,-1
 171 1462 l 1,12,-1
 335 1462 l 1,13,-1
 389 1206 l 1,14,-1
 607 1296 l 1,0,-1
EndSplineSet
EndChar

StartChar: plus
Encoding: 43 43 14
Width: 1140
GlyphClass: 2
Flags: W
LayerCount: 2
Fore
SplineSet
1087 627 m 1,0,-1
 1087 408 l 1,1,-1
 679 408 l 1,2,-1
 680 0 l 1,3,-1
 461 0 l 1,4,-1
 460 408 l 1,5,-1
 53 408 l 1,6,-1
 53 627 l 1,7,-1
 460 627 l 1,8,-1
 460 1034 l 1,9,-1
 679 1034 l 1,10,-1
 679 627 l 1,11,-1
 1087 627 l 1,0,-1
EndSplineSet
EndChar

StartChar: comma
Encoding: 44 44 15
Width: 646
GlyphClass: 2
Flags: W
LayerCount: 2
Fore
SplineSet
314 -67 m 1,0,1
 328 -55 328 -55 353 -27.5 c 128,-1,2
 378 0 378 0 403 29 c 1,3,4
 435 61 435 61 437 94 c 1,5,6
 384 126 384 126 345.5 165 c 128,-1,7
 307 204 307 204 299 246 c 1,8,9
 295 273 295 273 303 298 c 128,-1,10
 311 323 311 323 328 341.5 c 128,-1,11
 345 360 345 360 368.5 371 c 128,-1,12
 392 382 392 382 419 381 c 0,13,14
 453 380 453 380 483.5 365.5 c 128,-1,15
 514 351 514 351 538.5 325.5 c 128,-1,16
 563 300 563 300 580 265 c 128,-1,17
 597 230 597 230 604 189 c 0,18,19
 635 7 635 7 398 -191 c 1,20,-1
 314 -67 l 1,0,1
EndSplineSet
EndChar

StartChar: hyphen
Encoding: 45 45 16
AltUni2: 0000ad.ffffffff.0 002212.ffffffff.0
Width: 1140
GlyphClass: 2
Flags: W
LayerCount: 2
Fore
SplineSet
919 684 m 1,0,-1
 919 434 l 1,1,-1
 219 434 l 1,2,-1
 219 684 l 1,3,-1
 919 684 l 1,0,-1
EndSplineSet
Substitution2: "<17026,18026>  lookup 92 nested-substitutions 0 subtable" hyphenlow
Substitution2: "<17026,16026>  lookup 90 nested-substitutions 0 subtable" hyphenlow
Substitution2: "Single Substitution lookup 55 subtable" hyphenlow
EndChar

StartChar: period
Encoding: 46 46 17
Width: 666
GlyphClass: 2
Flags: W
LayerCount: 2
Fore
SplineSet
565 236 m 0,0,1
 600 77 600 77 442 77 c 0,2,3
 369 77 369 77 317 119 c 128,-1,4
 265 161 265 161 250 233 c 0,5,6
 216 392 216 392 381 392 c 0,7,8
 415 392 415 392 445 380 c 128,-1,9
 475 368 475 368 499.5 347 c 128,-1,10
 524 326 524 326 541 297.5 c 128,-1,11
 558 269 558 269 565 236 c 0,0,1
EndSplineSet
Substitution2: "<17001,16003> Urdu lookup 100 subtable" uni06D4
Substitution2: "<17008,18008> Textual Comma in Arabic lookup 95 nested-substitutions 0 subtable" uni066C
Substitution2: "Single Substitution lookup 55 subtable" uni066C
EndChar

StartChar: slash
Encoding: 47 47 18
AltUni2: 000338.ffffffff.0
Width: 760
GlyphClass: 2
Flags: W
LayerCount: 2
Fore
SplineSet
781 1497 m 1,0,-1
 210 -33 l 1,1,-1
 -19 -33 l 1,2,-1
 548 1497 l 1,3,-1
 781 1497 l 1,0,-1
EndSplineSet
Substitution2: "<17001,16003> Urdu lookup 100 subtable" slash
EndChar

StartChar: zero
Encoding: 48 48 19
Width: 1140
GlyphClass: 2
Flags: W
LayerCount: 2
Fore
SplineSet
40 723 m 0,0,1
 10 863 10 863 6 972 c 128,-1,2
 2 1081 2 1081 19 1163 c 128,-1,3
 36 1245 36 1245 72 1302 c 128,-1,4
 108 1359 108 1359 158.5 1394.5 c 128,-1,5
 209 1430 209 1430 272 1446 c 128,-1,6
 335 1462 335 1462 406 1462 c 0,7,8
 514 1462 514 1462 617.5 1425 c 128,-1,9
 721 1388 721 1388 812 1302 c 128,-1,10
 903 1216 903 1216 975 1074.5 c 128,-1,11
 1047 933 1047 933 1092 723 c 0,12,13
 1123 580 1123 580 1127 468.5 c 128,-1,14
 1131 357 1131 357 1114 274 c 128,-1,15
 1097 191 1097 191 1060.5 133.5 c 128,-1,16
 1024 76 1024 76 972.5 40.5 c 128,-1,17
 921 5 921 5 857.5 -11 c 128,-1,18
 794 -27 794 -27 722 -27 c 0,19,20
 616 -27 616 -27 513 9.5 c 128,-1,21
 410 46 410 46 320 133 c 128,-1,22
 230 220 230 220 157.5 364 c 128,-1,23
 85 508 85 508 40 723 c 0,0,1
330 723 m 0,24,25
 339 683 339 683 351 629 c 128,-1,26
 363 575 363 575 382 518 c 128,-1,27
 401 461 401 461 426.5 406 c 128,-1,28
 452 351 452 351 487.5 307.5 c 128,-1,29
 523 264 523 264 568.5 237.5 c 128,-1,30
 614 211 614 211 672 211 c 0,31,32
 732 211 732 211 767 237.5 c 128,-1,33
 802 264 802 264 819 307.5 c 128,-1,34
 836 351 836 351 838.5 406 c 128,-1,35
 841 461 841 461 835.5 518 c 128,-1,36
 830 575 830 575 820 629 c 128,-1,37
 810 683 810 683 801 723 c 0,38,39
 793 760 793 760 781 811.5 c 128,-1,40
 769 863 769 863 750.5 918.5 c 128,-1,41
 732 974 732 974 706 1028.5 c 128,-1,42
 680 1083 680 1083 644.5 1126.5 c 128,-1,43
 609 1170 609 1170 563 1196.5 c 128,-1,44
 517 1223 517 1223 457 1223 c 0,45,46
 398 1223 398 1223 363.5 1196.5 c 128,-1,47
 329 1170 329 1170 312.5 1126.5 c 128,-1,48
 296 1083 296 1083 293.5 1028.5 c 128,-1,49
 291 974 291 974 296.5 918.5 c 128,-1,50
 302 863 302 863 312 811.5 c 128,-1,51
 322 760 322 760 330 723 c 0,24,25
EndSplineSet
Substitution2: "<17001,16003> Urdu lookup 100 subtable" zero
EndChar

StartChar: one
Encoding: 49 49 20
Width: 1140
GlyphClass: 2
Flags: W
LayerCount: 2
Fore
SplineSet
662 0 m 1,0,-1
 464 930 l 1,1,-1
 105 930 l 1,2,-1
 58 1149 l 1,3,4
 134 1147 134 1147 201.5 1160 c 128,-1,5
 269 1173 269 1173 318.5 1206.5 c 128,-1,6
 368 1240 368 1240 394.5 1296 c 128,-1,7
 421 1352 421 1352 416 1434 c 1,8,-1
 648 1434 l 1,9,-1
 953 0 l 1,10,-1
 662 0 l 1,0,-1
EndSplineSet
Substitution2: "<17001,16003> Urdu lookup 100 subtable" one
EndChar

StartChar: two
Encoding: 50 50 21
Width: 1140
GlyphClass: 2
Flags: W
LayerCount: 2
Fore
SplineSet
39 883 m 1,0,1
 9 1006 9 1006 19 1111.5 c 128,-1,2
 29 1217 29 1217 78.5 1295 c 128,-1,3
 128 1373 128 1373 217 1417.5 c 128,-1,4
 306 1462 306 1462 435 1462 c 0,5,6
 533 1462 533 1462 628.5 1431.5 c 128,-1,7
 724 1401 724 1401 803.5 1343 c 128,-1,8
 883 1285 883 1285 941 1202 c 128,-1,9
 999 1119 999 1119 1021 1014 c 0,10,11
 1038 933 1038 933 1031.5 869.5 c 128,-1,12
 1025 806 1025 806 1001.5 754 c 128,-1,13
 978 702 978 702 940.5 660 c 128,-1,14
 903 618 903 618 858 580 c 128,-1,15
 813 542 813 542 764.5 506 c 128,-1,16
 716 470 716 470 669.5 431.5 c 128,-1,17
 623 393 623 393 582.5 349 c 128,-1,18
 542 305 542 305 514 250 c 1,19,-1
 1192 250 l 1,20,-1
 1246 0 l 1,21,-1
 193 0 l 1,22,23
 176 84 176 84 177.5 152 c 128,-1,24
 179 220 179 220 196.5 277 c 128,-1,25
 214 334 214 334 245 382 c 128,-1,26
 276 430 276 430 317 473.5 c 128,-1,27
 358 517 358 517 407 557.5 c 128,-1,28
 456 598 456 598 509 641 c 0,29,30
 549 674 549 674 595 708 c 128,-1,31
 641 742 641 742 677 783 c 128,-1,32
 713 824 713 824 731.5 874.5 c 128,-1,33
 750 925 750 925 736 991 c 0,34,35
 725 1043 725 1043 700 1084 c 128,-1,36
 675 1125 675 1125 640.5 1153.5 c 128,-1,37
 606 1182 606 1182 563.5 1197 c 128,-1,38
 521 1212 521 1212 474 1212 c 0,39,40
 410 1212 410 1212 372.5 1182 c 128,-1,41
 335 1152 335 1152 318.5 1105 c 128,-1,42
 302 1058 302 1058 303 999 c 128,-1,43
 304 940 304 940 316 883 c 1,44,-1
 39 883 l 1,0,1
EndSplineSet
Substitution2: "<17001,16003> Urdu lookup 100 subtable" two
EndChar

StartChar: three
Encoding: 51 51 22
Width: 1140
GlyphClass: 2
Flags: W
LayerCount: 2
Fore
SplineSet
435 854 m 1,0,1
 483 850 483 850 535.5 854.5 c 128,-1,2
 588 859 588 859 629.5 878 c 128,-1,3
 671 897 671 897 693 934 c 128,-1,4
 715 971 715 971 702 1032 c 0,5,6
 692 1078 692 1078 668 1113.5 c 128,-1,7
 644 1149 644 1149 611 1173.5 c 128,-1,8
 578 1198 578 1198 538.5 1210.5 c 128,-1,9
 499 1223 499 1223 459 1223 c 0,10,11
 404 1223 404 1223 366.5 1203.5 c 128,-1,12
 329 1184 329 1184 308 1150 c 128,-1,13
 287 1116 287 1116 283.5 1069 c 128,-1,14
 280 1022 280 1022 292 967 c 1,15,-1
 17 967 l 1,16,17
 -3 1078 -3 1078 13.5 1169 c 128,-1,18
 30 1260 30 1260 80.5 1325 c 128,-1,19
 131 1390 131 1390 213 1426 c 128,-1,20
 295 1462 295 1462 406 1462 c 0,21,22
 492 1462 492 1462 584 1436 c 128,-1,23
 676 1410 676 1410 755.5 1359.5 c 128,-1,24
 835 1309 835 1309 893.5 1235 c 128,-1,25
 952 1161 952 1161 972 1065 c 0,26,27
 983 1013 983 1013 980.5 966 c 128,-1,28
 978 919 978 919 960.5 881 c 128,-1,29
 943 843 943 843 911.5 815 c 128,-1,30
 880 787 880 787 833 772 c 1,31,-1
 834 768 l 1,32,33
 896 755 896 755 949.5 725.5 c 128,-1,34
 1003 696 1003 696 1045 653.5 c 128,-1,35
 1087 611 1087 611 1116 557.5 c 128,-1,36
 1145 504 1145 504 1158 442 c 0,37,38
 1182 328 1182 328 1156.5 240.5 c 128,-1,39
 1131 153 1131 153 1069.5 93.5 c 128,-1,40
 1008 34 1008 34 918.5 3.5 c 128,-1,41
 829 -27 829 -27 724 -27 c 0,42,43
 604 -27 604 -27 497.5 7.5 c 128,-1,44
 391 42 391 42 307 109 c 128,-1,45
 223 176 223 176 164.5 273 c 128,-1,46
 106 370 106 370 82 494 c 1,47,-1
 357 494 l 1,48,49
 372 436 372 436 399 384 c 128,-1,50
 426 332 426 332 465.5 294 c 128,-1,51
 505 256 505 256 556 233.5 c 128,-1,52
 607 211 607 211 670 211 c 0,53,54
 719 211 719 211 758.5 226.5 c 128,-1,55
 798 242 798 242 823 271.5 c 128,-1,56
 848 301 848 301 857.5 342.5 c 128,-1,57
 867 384 867 384 856 436 c 0,58,59
 845 490 845 490 822 527 c 128,-1,60
 799 564 799 564 769 587.5 c 128,-1,61
 739 611 739 611 703 623.5 c 128,-1,62
 667 636 667 636 629 642 c 128,-1,63
 591 648 591 648 552.5 648.5 c 128,-1,64
 514 649 514 649 479 649 c 1,65,-1
 435 854 l 1,0,1
EndSplineSet
Substitution2: "<17001,16003> Urdu lookup 100 subtable" three
EndChar

StartChar: four
Encoding: 52 52 23
Width: 1140
GlyphClass: 2
Flags: W
LayerCount: 2
Fore
SplineSet
113 332 m 1,0,-1
 56 598 l 1,1,-1
 500 1434 l 1,2,-1
 760 1434 l 1,3,-1
 943 571 l 1,4,-1
 1134 571 l 1,5,-1
 1185 332 l 1,6,-1
 994 332 l 1,7,-1
 1065 0 l 1,8,-1
 789 0 l 1,9,-1
 718 332 l 1,10,-1
 113 332 l 1,0,-1
555 1069 m 1,11,-1
 290 571 l 1,12,-1
 667 571 l 1,13,-1
 561 1069 l 1,14,-1
 555 1069 l 1,11,-1
EndSplineSet
Substitution2: "<17001,16003> Urdu lookup 100 subtable" four
EndChar

StartChar: five
Encoding: 53 53 24
Width: 1140
GlyphClass: 2
Flags: W
LayerCount: 2
Fore
SplineSet
328 1194 m 1,0,-1
 340 868 l 1,1,-1
 345 864 l 1,2,3
 393 924 393 924 454 949.5 c 128,-1,4
 515 975 515 975 601 975 c 0,5,6
 707 975 707 975 798 936.5 c 128,-1,7
 889 898 889 898 959.5 832 c 128,-1,8
 1030 766 1030 766 1078.5 677 c 128,-1,9
 1127 588 1127 588 1148 487 c 0,10,11
 1172 376 1172 376 1149 280.5 c 128,-1,12
 1126 185 1126 185 1068 116 c 128,-1,13
 1010 47 1010 47 921 9 c 128,-1,14
 832 -29 832 -29 724 -27 c 1,15,16
 620 -27 620 -27 518.5 1 c 128,-1,17
 417 29 417 29 332 85.5 c 128,-1,18
 247 142 247 142 185 227 c 128,-1,19
 123 312 123 312 97 426 c 1,20,-1
 387 426 l 1,21,22
 403 377 403 377 430.5 337 c 128,-1,23
 458 297 458 297 494.5 269 c 128,-1,24
 531 241 531 241 575 226 c 128,-1,25
 619 211 619 211 668 211 c 0,26,27
 726 211 726 211 767 234.5 c 128,-1,28
 808 258 808 258 831.5 296.5 c 128,-1,29
 855 335 855 335 861.5 384.5 c 128,-1,30
 868 434 868 434 857 487 c 0,31,32
 845 543 845 543 818 592 c 128,-1,33
 791 641 791 641 751 677.5 c 128,-1,34
 711 714 711 714 661 735 c 128,-1,35
 611 756 611 756 552 756 c 0,36,37
 474 756 474 756 430.5 728.5 c 128,-1,38
 387 701 387 701 357 641 c 1,39,-1
 96 641 l 1,40,-1
 69 1434 l 1,41,-1
 869 1434 l 1,42,-1
 920 1194 l 1,43,-1
 328 1194 l 1,0,-1
EndSplineSet
Substitution2: "<17001,16003> Urdu lookup 100 subtable" five
EndChar

StartChar: six
Encoding: 54 54 25
Width: 1140
GlyphClass: 2
Flags: W
LayerCount: 2
Fore
SplineSet
718 1065 m 1,0,1
 703 1101 703 1101 679.5 1133.5 c 128,-1,2
 656 1166 656 1166 625.5 1190 c 128,-1,3
 595 1214 595 1214 560 1228.5 c 128,-1,4
 525 1243 525 1243 487 1243 c 0,5,6
 435 1243 435 1243 399.5 1221.5 c 128,-1,7
 364 1200 364 1200 341.5 1165 c 128,-1,8
 319 1130 319 1130 308 1084.5 c 128,-1,9
 297 1039 297 1039 294.5 990.5 c 128,-1,10
 292 942 292 942 295.5 894 c 128,-1,11
 299 846 299 846 306 807 c 1,12,-1
 311 803 l 1,13,14
 352 889 352 889 424 926 c 128,-1,15
 496 963 496 963 600 963 c 0,16,17
 646 963 646 963 694 952.5 c 128,-1,18
 742 942 742 942 788.5 922.5 c 128,-1,19
 835 903 835 903 879 876 c 128,-1,20
 923 849 923 849 961 815 c 0,21,22
 1033 749 1033 749 1077.5 665.5 c 128,-1,23
 1122 582 1122 582 1140 496 c 0,24,25
 1164 385 1164 385 1148 289.5 c 128,-1,26
 1132 194 1132 194 1081 123.5 c 128,-1,27
 1030 53 1030 53 946 13 c 128,-1,28
 862 -27 862 -27 749 -27 c 0,29,30
 641 -27 641 -27 551.5 2.5 c 128,-1,31
 462 32 462 32 390 84 c 128,-1,32
 318 136 318 136 262 206.5 c 128,-1,33
 206 277 206 277 163.5 359 c 128,-1,34
 121 441 121 441 91.5 531.5 c 128,-1,35
 62 622 62 622 42 713 c 0,36,37
 23 801 23 801 17.5 890.5 c 128,-1,38
 12 980 12 980 23 1063.5 c 128,-1,39
 34 1147 34 1147 63 1219.5 c 128,-1,40
 92 1292 92 1292 143 1346 c 128,-1,41
 194 1400 194 1400 269 1431 c 128,-1,42
 344 1462 344 1462 445 1462 c 0,43,44
 538 1462 538 1462 623 1435.5 c 128,-1,45
 708 1409 708 1409 779.5 1358.5 c 128,-1,46
 851 1308 851 1308 906 1234 c 128,-1,47
 961 1160 961 1160 994 1065 c 1,48,-1
 718 1065 l 1,0,1
578 743 m 0,49,50
 520 743 520 743 480.5 721.5 c 128,-1,51
 441 700 441 700 420 663 c 128,-1,52
 399 626 399 626 395 578 c 128,-1,53
 391 530 391 530 402 477 c 0,54,55
 413 427 413 427 438.5 379.5 c 128,-1,56
 464 332 464 332 501.5 294.5 c 128,-1,57
 539 257 539 257 587.5 234 c 128,-1,58
 636 211 636 211 691 211 c 0,59,60
 743 211 743 211 779 233.5 c 128,-1,61
 815 256 815 256 835 293 c 128,-1,62
 855 330 855 330 860 377 c 128,-1,63
 865 424 865 424 854 473 c 0,64,65
 843 524 843 524 819.5 572.5 c 128,-1,66
 796 621 796 621 761 659 c 128,-1,67
 726 697 726 697 680 720 c 128,-1,68
 634 743 634 743 578 743 c 0,49,50
EndSplineSet
Substitution2: "<17001,16003> Urdu lookup 100 subtable" six
EndChar

StartChar: seven
Encoding: 55 55 26
Width: 1140
GlyphClass: 2
Flags: W
LayerCount: 2
Fore
SplineSet
957 1184 m 1,0,1
 896 1119 896 1119 850.5 1032 c 128,-1,2
 805 945 805 945 775 845.5 c 128,-1,3
 745 746 745 746 728.5 637.5 c 128,-1,4
 712 529 712 529 708 419 c 128,-1,5
 704 309 704 309 712.5 202.5 c 128,-1,6
 721 96 721 96 740 0 c 1,7,-1
 429 0 l 1,8,9
 407 161 407 161 412 316.5 c 128,-1,10
 417 472 417 472 447 619 c 128,-1,11
 477 766 477 766 531.5 903 c 128,-1,12
 586 1040 586 1040 662 1163 c 1,13,-1
 -17 1163 l 1,14,-1
 -74 1434 l 1,15,-1
 904 1434 l 1,16,-1
 957 1184 l 1,0,1
EndSplineSet
Substitution2: "<17001,16003> Urdu lookup 100 subtable" seven
EndChar

StartChar: eight
Encoding: 56 56 27
Width: 1140
GlyphClass: 2
Flags: W
LayerCount: 2
Fore
SplineSet
376 434 m 0,0,1
 388 379 388 379 417.5 334 c 128,-1,2
 447 289 447 289 488.5 257 c 128,-1,3
 530 225 530 225 580 207.5 c 128,-1,4
 630 190 630 190 682 190 c 0,5,6
 735 190 735 190 776 207.5 c 128,-1,7
 817 225 817 225 843.5 257 c 128,-1,8
 870 289 870 289 879 333.5 c 128,-1,9
 888 378 888 378 877 432 c 0,10,11
 866 483 866 483 837.5 525.5 c 128,-1,12
 809 568 809 568 769.5 598.5 c 128,-1,13
 730 629 730 629 681.5 645.5 c 128,-1,14
 633 662 633 662 582 662 c 0,15,16
 529 662 529 662 486 647 c 128,-1,17
 443 632 443 632 414.5 603.5 c 128,-1,18
 386 575 386 575 375 532.5 c 128,-1,19
 364 490 364 490 376 434 c 0,0,1
11 1071 m 0,20,21
 -10 1168 -10 1168 17 1241 c 128,-1,22
 44 1314 44 1314 102.5 1363 c 128,-1,23
 161 1412 161 1412 242 1437 c 128,-1,24
 323 1462 323 1462 410 1462 c 0,25,26
 499 1462 499 1462 573.5 1443 c 128,-1,27
 648 1424 648 1424 708 1393 c 128,-1,28
 768 1362 768 1362 814 1322 c 128,-1,29
 860 1282 860 1282 892.5 1239 c 128,-1,30
 925 1196 925 1196 945 1154 c 128,-1,31
 965 1112 965 1112 972 1077 c 0,32,33
 983 1024 983 1024 980 977 c 128,-1,34
 977 930 977 930 959 891 c 128,-1,35
 941 852 941 852 908 823 c 128,-1,36
 875 794 875 794 827 776 c 1,37,-1
 827 772 l 1,38,39
 895 757 895 757 951.5 726 c 128,-1,40
 1008 695 1008 695 1052 650 c 128,-1,41
 1096 605 1096 605 1126 547.5 c 128,-1,42
 1156 490 1156 490 1170 422 c 0,43,44
 1194 308 1194 308 1166 224 c 128,-1,45
 1138 140 1138 140 1074 84 c 128,-1,46
 1010 28 1010 28 919.5 0.5 c 128,-1,47
 829 -27 829 -27 728 -27 c 0,48,49
 659 -27 659 -27 589.5 -15.5 c 128,-1,50
 520 -4 520 -4 454.5 20 c 128,-1,51
 389 44 389 44 330 80 c 128,-1,52
 271 116 271 116 223 166 c 128,-1,53
 175 216 175 216 140.5 279 c 128,-1,54
 106 342 106 342 90 420 c 0,55,56
 61 557 61 557 111.5 649 c 128,-1,57
 162 741 162 741 284 772 c 1,58,-1
 284 776 l 1,59,60
 229 791 229 791 183.5 819 c 128,-1,61
 138 847 138 847 103.5 885.5 c 128,-1,62
 69 924 69 924 45.5 971 c 128,-1,63
 22 1018 22 1018 11 1071 c 0,20,21
280 1044 m 0,64,65
 290 998 290 998 315.5 963 c 128,-1,66
 341 928 341 928 376 904 c 128,-1,67
 411 880 411 880 453.5 868 c 128,-1,68
 496 856 496 856 539 856 c 0,69,70
 585 856 585 856 622 868 c 128,-1,71
 659 880 659 880 682.5 904 c 128,-1,72
 706 928 706 928 715 963 c 128,-1,73
 724 998 724 998 714 1044 c 0,74,75
 708 1072 708 1072 692.5 1106.5 c 128,-1,76
 677 1141 677 1141 647 1171.5 c 128,-1,77
 617 1202 617 1202 570.5 1222.5 c 128,-1,78
 524 1243 524 1243 456 1243 c 0,79,80
 413 1243 413 1243 376 1230 c 128,-1,81
 339 1217 339 1217 314 1192 c 128,-1,82
 289 1167 289 1167 279.5 1130 c 128,-1,83
 270 1093 270 1093 280 1044 c 0,64,65
EndSplineSet
Substitution2: "<17001,16003> Urdu lookup 100 subtable" eight
EndChar

StartChar: nine
Encoding: 57 57 28
Width: 1140
GlyphClass: 2
Flags: W
LayerCount: 2
Fore
SplineSet
415 369 m 1,0,1
 430 333 430 333 453.5 300.5 c 128,-1,2
 477 268 477 268 507 243.5 c 128,-1,3
 537 219 537 219 572.5 204.5 c 128,-1,4
 608 190 608 190 646 190 c 0,5,6
 699 190 699 190 735 211.5 c 128,-1,7
 771 233 771 233 793 268.5 c 128,-1,8
 815 304 815 304 825.5 349.5 c 128,-1,9
 836 395 836 395 838 443.5 c 128,-1,10
 840 492 840 492 836.5 540 c 128,-1,11
 833 588 833 588 827 627 c 1,12,-1
 822 631 l 1,13,14
 781 545 781 545 709 508 c 128,-1,15
 637 471 637 471 532 471 c 0,16,17
 486 471 486 471 438 481.5 c 128,-1,18
 390 492 390 492 343.5 511 c 128,-1,19
 297 530 297 530 253.5 557 c 128,-1,20
 210 584 210 584 172 618 c 1,21,22
 101 685 101 685 57 768 c 128,-1,23
 13 851 13 851 -6 938 c 0,24,25
 -29 1048 -29 1048 -13.5 1143.5 c 128,-1,26
 2 1239 2 1239 53 1310 c 128,-1,27
 104 1381 104 1381 188 1421.5 c 128,-1,28
 272 1462 272 1462 384 1462 c 0,29,30
 493 1462 493 1462 582 1432.5 c 128,-1,31
 671 1403 671 1403 743.5 1350.5 c 128,-1,32
 816 1298 816 1298 872 1227 c 128,-1,33
 928 1156 928 1156 970.5 1074 c 128,-1,34
 1013 992 1013 992 1043 901.5 c 128,-1,35
 1073 811 1073 811 1092 721 c 0,36,37
 1111 633 1111 633 1116.5 543 c 128,-1,38
 1122 453 1122 453 1111 370 c 128,-1,39
 1100 287 1100 287 1070.5 214.5 c 128,-1,40
 1041 142 1041 142 990 88.5 c 128,-1,41
 939 35 939 35 864 4 c 128,-1,42
 789 -27 789 -27 687 -27 c 0,43,44
 594 -27 594 -27 509 -0.5 c 128,-1,45
 424 26 424 26 352.5 76.5 c 128,-1,46
 281 127 281 127 226.5 201 c 128,-1,47
 172 275 172 275 140 369 c 1,48,-1
 415 369 l 1,0,1
556 690 m 0,49,50
 615 690 615 690 653.5 711.5 c 128,-1,51
 692 733 692 733 713 770 c 128,-1,52
 734 807 734 807 737.5 855 c 128,-1,53
 741 903 741 903 730 956 c 0,54,55
 720 1006 720 1006 694.5 1054 c 128,-1,56
 669 1102 669 1102 631.5 1139.5 c 128,-1,57
 594 1177 594 1177 546 1200 c 128,-1,58
 498 1223 498 1223 443 1223 c 0,59,60
 391 1223 391 1223 355 1200.5 c 128,-1,61
 319 1178 319 1178 298.5 1141 c 128,-1,62
 278 1104 278 1104 273.5 1057 c 128,-1,63
 269 1010 269 1010 279 961 c 0,64,65
 290 910 290 910 313.5 861.5 c 128,-1,66
 337 813 337 813 372 774.5 c 128,-1,67
 407 736 407 736 453.5 713 c 128,-1,68
 500 690 500 690 556 690 c 0,49,50
EndSplineSet
Substitution2: "<17001,16003> Urdu lookup 100 subtable" nine
EndChar

StartChar: colon
Encoding: 58 58 29
Width: 592
GlyphClass: 2
Flags: W
LayerCount: 2
Fore
SplineSet
490 240 m 1,0,1
 517 116 517 116 398 116 c 0,2,3
 373 116 373 116 348.5 126 c 128,-1,4
 324 136 324 136 303.5 152.5 c 128,-1,5
 283 169 283 169 268.5 191 c 128,-1,6
 254 213 254 213 249 237 c 0,7,8
 244 262 244 262 248 286 c 128,-1,9
 252 310 252 310 264 329 c 128,-1,10
 276 348 276 348 295.5 360 c 128,-1,11
 315 372 315 372 340 372 c 0,12,13
 463 372 463 372 490 240 c 1,0,1
370 809 m 1,14,15
 394 691 394 691 276 691 c 0,16,17
 251 691 251 691 226.5 700.5 c 128,-1,18
 202 710 202 710 182 726 c 128,-1,19
 162 742 162 742 148 763.5 c 128,-1,20
 134 785 134 785 129 809 c 0,21,22
 123 835 123 835 127 859.5 c 128,-1,23
 131 884 131 884 143 904 c 128,-1,24
 155 924 155 924 174 936 c 128,-1,25
 193 948 193 948 218 948 c 0,26,27
 340 948 340 948 370 809 c 1,14,15
EndSplineSet
Substitution2: "<17001,16003> Urdu lookup 100 subtable" colon
EndChar

StartChar: semicolon
Encoding: 59 59 30
Width: 637
GlyphClass: 2
Flags: W
LayerCount: 2
Fore
SplineSet
206 839 m 0,0,1
 181 962 181 962 304 962 c 0,2,3
 329 962 329 962 353.5 952 c 128,-1,4
 378 942 378 942 398 925.5 c 128,-1,5
 418 909 418 909 432.5 887 c 128,-1,6
 447 865 447 865 452 841 c 0,7,8
 457 816 457 816 452.5 791.5 c 128,-1,9
 448 767 448 767 435.5 748 c 128,-1,10
 423 729 423 729 403.5 717.5 c 128,-1,11
 384 706 384 706 358 706 c 0,12,13
 233 706 233 706 206 839 c 0,0,1
320 -96 m 1,14,15
 458 35 458 35 450 70 c 1,16,-1
 443 88 l 2,17,18
 442 90 442 90 442 90 c 257,19,20
 442 90 442 90 441 92 c 1,21,22
 326 161 326 161 308 248 c 0,23,24
 303 274 303 274 310.5 296 c 128,-1,25
 318 318 318 318 334 334.5 c 128,-1,26
 350 351 350 351 373 360.5 c 128,-1,27
 396 370 396 370 421 370 c 0,28,29
 558 368 558 368 594 197 c 1,30,31
 618 76 618 76 564 -29 c 1,32,33
 542 -63 542 -63 499 -110 c 128,-1,34
 456 -157 456 -157 388 -217 c 1,35,-1
 320 -96 l 1,14,15
EndSplineSet
Substitution2: "<17001,16003> Urdu lookup 100 subtable" semicolon
EndChar

StartChar: less
Encoding: 60 60 31
Width: 1140
GlyphClass: 2
Flags: W
LayerCount: 2
Fore
SplineSet
338 518 m 1,0,-1
 1090 219 l 1,1,-1
 1090 -14 l 1,2,-1
 50 397 l 1,3,-1
 50 639 l 1,4,-1
 1090 1053 l 1,5,-1
 1090 817 l 1,6,-1
 338 518 l 1,0,-1
EndSplineSet
Substitution2: "<17001,16003> Urdu lookup 100 subtable" less
EndChar

StartChar: equal
Encoding: 61 61 32
Width: 1140
GlyphClass: 2
Flags: W
LayerCount: 2
Fore
SplineSet
53 627 m 1,0,-1
 53 846 l 1,1,-1
 1087 846 l 1,2,-1
 1087 627 l 1,3,-1
 53 627 l 1,0,-1
52 188 m 1,4,-1
 53 408 l 1,5,-1
 1087 408 l 1,6,-1
 1087 188 l 1,7,-1
 52 188 l 1,4,-1
EndSplineSet
Substitution2: "<17001,16003> Urdu lookup 100 subtable" equal
EndChar

StartChar: greater
Encoding: 62 62 33
Width: 1140
GlyphClass: 2
Flags: W
LayerCount: 2
Fore
SplineSet
801 518 m 1,0,-1
 50 817 l 1,1,-1
 50 1053 l 1,2,-1
 1090 639 l 1,3,-1
 1090 397 l 1,4,-1
 49 -14 l 1,5,-1
 49 219 l 1,6,-1
 801 518 l 1,0,-1
EndSplineSet
Substitution2: "<17001,16003> Urdu lookup 100 subtable" greater
EndChar

StartChar: question
Encoding: 63 63 34
Width: 788
GlyphClass: 2
Flags: W
LayerCount: 2
Fore
SplineSet
-28 1074 m 0,0,1
 -39 1128 -39 1128 -28.5 1172.5 c 128,-1,2
 -18 1217 -18 1217 10.5 1248.5 c 128,-1,3
 39 1280 39 1280 82.5 1297 c 128,-1,4
 126 1314 126 1314 180 1314 c 0,5,6
 508 1314 508 1314 585 952 c 0,7,8
 599 885 599 885 586.5 825 c 128,-1,9
 574 765 574 765 540.5 717.5 c 128,-1,10
 507 670 507 670 456 638.5 c 128,-1,11
 405 607 405 607 343 597 c 1,12,-1
 383 406 l 1,13,-1
 248 406 l 1,14,-1
 160 819 l 1,15,16
 165 819 165 819 176.5 818.5 c 128,-1,17
 188 818 188 818 200 817 c 0,18,19
 210 816 210 816 219 815 c 128,-1,20
 228 814 228 814 233 814 c 0,21,22
 272 814 272 814 303.5 828.5 c 128,-1,23
 335 843 335 843 355.5 868.5 c 128,-1,24
 376 894 376 894 383.5 928 c 128,-1,25
 391 962 391 962 383 1000 c 0,26,27
 375 1039 375 1039 358.5 1074 c 128,-1,28
 342 1109 342 1109 320.5 1135 c 128,-1,29
 299 1161 299 1161 273 1176.5 c 128,-1,30
 247 1192 247 1192 220 1192 c 0,31,32
 148 1192 148 1192 156 1154 c 0,33,34
 159 1142 159 1142 178 1104 c 1,35,-1
 179 1100 l 2,36,37
 179 1096 179 1096 179 1096 c 1,38,39
 182 1092 182 1092 183 1090 c 128,-1,40
 184 1088 184 1088 185 1087 c 0,41,42
 202 1058 202 1058 206 1036 c 0,43,44
 227 939 227 939 103 939 c 0,45,46
 1 939 1 939 -28 1074 c 0,0,1
233 231 m 0,47,48
 228 254 228 254 232.5 277 c 128,-1,49
 237 300 237 300 249.5 318 c 128,-1,50
 262 336 262 336 282 347.5 c 128,-1,51
 302 359 302 359 328 359 c 0,52,53
 462 359 462 359 487 236 c 0,54,55
 493 210 493 210 488 186.5 c 128,-1,56
 483 163 483 163 470.5 145 c 128,-1,57
 458 127 458 127 437.5 116.5 c 128,-1,58
 417 106 417 106 391 106 c 0,59,60
 364 106 364 106 338 115 c 128,-1,61
 312 124 312 124 290.5 140.5 c 128,-1,62
 269 157 269 157 254 180 c 128,-1,63
 239 203 239 203 233 231 c 0,47,48
EndSplineSet
Substitution2: "<17001,16003> Urdu lookup 100 subtable" question
EndChar

StartChar: at
Encoding: 64 64 35
Width: 1638
GlyphClass: 2
Flags: W
LayerCount: 2
Fore
SplineSet
595 653 m 0,0,1
 595 613 595 613 606.5 579.5 c 128,-1,2
 618 546 618 546 639 522 c 128,-1,3
 660 498 660 498 689.5 484.5 c 128,-1,4
 719 471 719 471 755 471 c 0,5,6
 810 471 810 471 856.5 499.5 c 128,-1,7
 903 528 903 528 936.5 572.5 c 128,-1,8
 970 617 970 617 988.5 672 c 128,-1,9
 1007 727 1007 727 1007 780 c 0,10,11
 1007 818 1007 818 994.5 850 c 128,-1,12
 982 882 982 882 961 905 c 128,-1,13
 940 928 940 928 911 941 c 128,-1,14
 882 954 882 954 849 954 c 0,15,16
 793 954 793 954 746 926.5 c 128,-1,17
 699 899 699 899 665.5 855.5 c 128,-1,18
 632 812 632 812 613.5 758.5 c 128,-1,19
 595 705 595 705 595 653 c 0,0,1
1144 588 m 1,20,21
 1138 568 1138 568 1132.5 544 c 128,-1,22
 1127 520 1127 520 1127 500 c 256,23,24
 1127 480 1127 480 1135.5 466.5 c 128,-1,25
 1144 453 1144 453 1162 453 c 0,26,27
 1206 453 1206 453 1249 480.5 c 128,-1,28
 1292 508 1292 508 1326.5 558 c 128,-1,29
 1361 608 1361 608 1382.5 677 c 128,-1,30
 1404 746 1404 746 1404 829 c 0,31,32
 1404 951 1404 951 1361 1045 c 128,-1,33
 1318 1139 1318 1139 1243 1203 c 128,-1,34
 1168 1267 1168 1267 1067 1300 c 128,-1,35
 966 1333 966 1333 849 1333 c 0,36,37
 717 1333 717 1333 610 1287 c 128,-1,38
 503 1241 503 1241 427 1160 c 128,-1,39
 351 1079 351 1079 310 968 c 128,-1,40
 269 857 269 857 269 727 c 0,41,42
 269 593 269 593 314 482.5 c 128,-1,43
 359 372 359 372 439 293.5 c 128,-1,44
 519 215 519 215 630 172 c 128,-1,45
 741 129 741 129 873 129 c 0,46,47
 1004 129 1004 129 1118.5 172.5 c 128,-1,48
 1233 216 1233 216 1314 297 c 1,49,-1
 1486 297 l 1,50,51
 1434 217 1434 217 1366 155.5 c 128,-1,52
 1298 94 1298 94 1217.5 52 c 128,-1,53
 1137 10 1137 10 1047 -11.5 c 128,-1,54
 957 -33 957 -33 861 -33 c 0,55,56
 752 -33 752 -33 651 -7 c 128,-1,57
 550 19 550 19 462.5 67.5 c 128,-1,58
 375 116 375 116 303.5 184.5 c 128,-1,59
 232 253 232 253 181 338 c 128,-1,60
 130 423 130 423 102 522.5 c 128,-1,61
 74 622 74 622 74 731 c 0,62,63
 74 839 74 839 102 937.5 c 128,-1,64
 130 1036 130 1036 181 1121.5 c 128,-1,65
 232 1207 232 1207 303 1276 c 128,-1,66
 374 1345 374 1345 460.5 1394.5 c 128,-1,67
 547 1444 547 1444 646 1470.5 c 128,-1,68
 745 1497 745 1497 851 1497 c 0,69,70
 944 1497 944 1497 1033 1477 c 128,-1,71
 1122 1457 1122 1457 1201 1419 c 128,-1,72
 1280 1381 1280 1381 1346.5 1326 c 128,-1,73
 1413 1271 1413 1271 1461.5 1201.5 c 128,-1,74
 1510 1132 1510 1132 1537 1049 c 128,-1,75
 1564 966 1564 966 1564 872 c 0,76,77
 1564 767 1564 767 1537.5 682.5 c 128,-1,78
 1511 598 1511 598 1468.5 532 c 128,-1,79
 1426 466 1426 466 1372.5 418.5 c 128,-1,80
 1319 371 1319 371 1265.5 340 c 128,-1,81
 1212 309 1212 309 1163.5 294 c 128,-1,82
 1115 279 1115 279 1082 279 c 0,83,84
 1016 279 1016 279 977 311.5 c 128,-1,85
 938 344 938 344 933 395 c 1,86,-1
 929 395 l 1,87,88
 892 333 892 333 833 304.5 c 128,-1,89
 774 276 774 276 708 276 c 0,90,91
 643 276 643 276 584.5 304 c 128,-1,92
 526 332 526 332 482 380 c 128,-1,93
 438 428 438 428 412 491.5 c 128,-1,94
 386 555 386 555 386 627 c 0,95,96
 386 692 386 692 400.5 755.5 c 128,-1,97
 415 819 415 819 442 877 c 128,-1,98
 469 935 469 935 508 984.5 c 128,-1,99
 547 1034 547 1034 596.5 1071 c 128,-1,100
 646 1108 646 1108 705.5 1128.5 c 128,-1,101
 765 1149 765 1149 833 1149 c 0,102,103
 866 1149 866 1149 901 1141.5 c 128,-1,104
 936 1134 936 1134 968 1117 c 128,-1,105
 1000 1100 1000 1100 1027 1073 c 128,-1,106
 1054 1046 1054 1046 1072 1006 c 1,107,-1
 1105 1116 l 1,108,-1
 1273 1116 l 1,109,-1
 1144 588 l 1,20,21
EndSplineSet
Substitution2: "<17001,16003> Urdu lookup 100 subtable" at
EndChar

StartChar: A
Encoding: 65 65 36
Width: 1403
GlyphClass: 2
Flags: W
LayerCount: 2
Fore
SplineSet
709 1462 m 1,0,-1
 1567 0 l 1,1,-1
 1233 0 l 1,2,-1
 1053 326 l 1,3,-1
 506 326 l 1,4,-1
 461 0 l 1,5,-1
 138 0 l 1,6,-1
 380 1462 l 1,7,-1
 709 1462 l 1,0,-1
918 565 m 1,8,-1
 620 1102 l 1,9,-1
 615 1102 l 1,10,-1
 539 565 l 1,11,-1
 918 565 l 1,8,-1
EndSplineSet
Substitution2: "<17001,16003> Urdu lookup 100 subtable" A
EndChar

StartChar: B
Encoding: 66 66 37
Width: 1442
GlyphClass: 2
Flags: W
LayerCount: 2
Fore
SplineSet
903 250 m 2,0,1
 950 250 950 250 991 259 c 128,-1,2
 1032 268 1032 268 1060.5 289.5 c 128,-1,3
 1089 311 1089 311 1100.5 348 c 128,-1,4
 1112 385 1112 385 1100 442 c 0,5,6
 1088 498 1088 498 1063 538 c 128,-1,7
 1038 578 1038 578 1002 603 c 128,-1,8
 966 628 966 628 921 639.5 c 128,-1,9
 876 651 876 651 824 651 c 2,10,-1
 474 651 l 1,11,-1
 559 250 l 1,12,-1
 903 250 l 2,0,1
668 1462 m 2,13,14
 773 1462 773 1462 862.5 1443.5 c 128,-1,15
 952 1425 952 1425 1022.5 1383 c 128,-1,16
 1093 1341 1093 1341 1141.5 1271.5 c 128,-1,17
 1190 1202 1190 1202 1212 1100 c 1,18,19
 1235 988 1235 988 1201 915.5 c 128,-1,20
 1167 843 1167 843 1079 795 c 1,21,22
 1223 756 1223 756 1309.5 658.5 c 128,-1,23
 1396 561 1396 561 1425 424 c 0,24,25
 1449 313 1449 313 1422.5 232.5 c 128,-1,26
 1396 152 1396 152 1335.5 100.5 c 128,-1,27
 1275 49 1275 49 1187 24.5 c 128,-1,28
 1099 0 1099 0 1000 0 c 2,29,-1
 291 0 l 1,30,-1
 -19 1462 l 1,31,-1
 668 1462 l 2,13,14
753 870 m 2,32,33
 796 870 796 870 830 880 c 128,-1,34
 864 890 864 890 886 911 c 128,-1,35
 908 932 908 932 915.5 965 c 128,-1,36
 923 998 923 998 913 1044 c 0,37,38
 902 1096 902 1096 876.5 1128.5 c 128,-1,39
 851 1161 851 1161 816.5 1179.5 c 128,-1,40
 782 1198 782 1198 740.5 1205 c 128,-1,41
 699 1212 699 1212 656 1212 c 2,42,-1
 355 1212 l 1,43,-1
 428 870 l 1,44,-1
 753 870 l 2,32,33
EndSplineSet
Substitution2: "<17001,16003> Urdu lookup 100 subtable" B
EndChar

StartChar: C
Encoding: 67 67 38
AltUni2: 00216d.ffffffff.0
Width: 1518
GlyphClass: 2
Flags: W
LayerCount: 2
Fore
SplineSet
1059 971 m 1,0,1
 1039 1025 1039 1025 1000.5 1072 c 128,-1,2
 962 1119 962 1119 911.5 1153.5 c 128,-1,3
 861 1188 861 1188 803 1207.5 c 128,-1,4
 745 1227 745 1227 686 1227 c 0,5,6
 578 1227 578 1227 511 1184.5 c 128,-1,7
 444 1142 444 1142 411.5 1072 c 128,-1,8
 379 1002 379 1002 376.5 911.5 c 128,-1,9
 374 821 374 821 394 725 c 0,10,11
 407 664 407 664 429 604 c 128,-1,12
 451 544 451 544 483 489.5 c 128,-1,13
 515 435 515 435 556.5 389 c 128,-1,14
 598 343 598 343 649 309 c 128,-1,15
 700 275 700 275 762 255.5 c 128,-1,16
 824 236 824 236 896 236 c 0,17,18
 970 236 970 236 1022.5 259.5 c 128,-1,19
 1075 283 1075 283 1107 326 c 128,-1,20
 1139 369 1139 369 1151.5 429.5 c 128,-1,21
 1164 490 1164 490 1158 563 c 1,22,-1
 1470 563 l 1,23,24
 1487 425 1487 425 1459 314.5 c 128,-1,25
 1431 204 1431 204 1364 127 c 128,-1,26
 1297 50 1297 50 1193 8.5 c 128,-1,27
 1089 -33 1089 -33 954 -33 c 0,28,29
 785 -33 785 -33 639 25.5 c 128,-1,30
 493 84 493 84 378.5 186 c 128,-1,31
 264 288 264 288 186 426.5 c 128,-1,32
 108 565 108 565 74 725 c 0,33,34
 40 888 40 888 58.5 1029 c 128,-1,35
 77 1170 77 1170 147.5 1274 c 128,-1,36
 218 1378 218 1378 338.5 1437.5 c 128,-1,37
 459 1497 459 1497 628 1497 c 0,38,39
 748 1497 748 1497 863 1462.5 c 128,-1,40
 978 1428 978 1428 1077 1361 c 128,-1,41
 1176 1294 1176 1294 1252.5 1196 c 128,-1,42
 1329 1098 1329 1098 1370 971 c 1,43,-1
 1059 971 l 1,0,1
EndSplineSet
Substitution2: "<17001,16003> Urdu lookup 100 subtable" C
EndChar

StartChar: D
Encoding: 68 68 39
AltUni2: 00216e.ffffffff.0
Width: 1518
GlyphClass: 2
Flags: W
LayerCount: 2
Fore
SplineSet
611 1462 m 2,0,1
 753 1462 753 1462 884 1417 c 128,-1,2
 1015 1372 1015 1372 1123 1282 c 128,-1,3
 1231 1192 1231 1192 1310.5 1056.5 c 128,-1,4
 1390 921 1390 921 1428 739 c 0,5,6
 1462 580 1462 580 1450 444.5 c 128,-1,7
 1438 309 1438 309 1376.5 210.5 c 128,-1,8
 1315 112 1315 112 1202.5 56 c 128,-1,9
 1090 0 1090 0 922 0 c 2,10,-1
 291 0 l 1,11,-1
 -19 1462 l 1,12,-1
 611 1462 l 2,0,1
842 270 m 2,13,14
 912 270 912 270 972.5 293 c 128,-1,15
 1033 316 1033 316 1073 368 c 128,-1,16
 1113 420 1113 420 1126 504 c 128,-1,17
 1139 588 1139 588 1113 709 c 0,18,19
 1089 820 1089 820 1049 909 c 128,-1,20
 1009 998 1009 998 946 1061 c 128,-1,21
 883 1124 883 1124 795 1158 c 128,-1,22
 707 1192 707 1192 588 1192 c 2,23,-1
 359 1192 l 1,24,-1
 555 270 l 1,25,-1
 842 270 l 2,13,14
EndSplineSet
Substitution2: "<17001,16003> Urdu lookup 100 subtable" D
EndChar

StartChar: E
Encoding: 69 69 40
Width: 1327
GlyphClass: 2
Flags: W
LayerCount: 2
Fore
SplineSet
1074 1462 m 1,0,-1
 1131 1192 l 1,1,-1
 359 1192 l 1,2,-1
 426 879 l 1,3,-1
 1134 879 l 1,4,-1
 1187 629 l 1,5,-1
 479 629 l 1,6,-1
 555 270 l 1,7,-1
 1343 270 l 1,8,-1
 1401 0 l 1,9,-1
 291 0 l 1,10,-1
 -19 1462 l 1,11,-1
 1074 1462 l 1,0,-1
EndSplineSet
Substitution2: "<17001,16003> Urdu lookup 100 subtable" E
EndChar

StartChar: F
Encoding: 70 70 41
Width: 1214
GlyphClass: 2
Flags: W
LayerCount: 2
Fore
SplineSet
1008 1462 m 1,0,-1
 1065 1192 l 1,1,-1
 359 1192 l 1,2,-1
 431 854 l 1,3,-1
 1043 854 l 1,4,-1
 1096 604 l 1,5,-1
 484 604 l 1,6,-1
 613 0 l 1,7,-1
 291 0 l 1,8,-1
 -19 1462 l 1,9,-1
 1008 1462 l 1,0,-1
EndSplineSet
Substitution2: "<17001,16003> Urdu lookup 100 subtable" F
EndChar

StartChar: G
Encoding: 71 71 42
Width: 1554
GlyphClass: 2
Flags: W
LayerCount: 2
Fore
SplineSet
1312 166 m 1,0,1
 1281 111 1281 111 1241 72.5 c 128,-1,2
 1201 34 1201 34 1155 11 c 128,-1,3
 1109 -12 1109 -12 1058 -22.5 c 128,-1,4
 1007 -33 1007 -33 954 -33 c 0,5,6
 785 -33 785 -33 639 25.5 c 128,-1,7
 493 84 493 84 378.5 186 c 128,-1,8
 264 288 264 288 186 426.5 c 128,-1,9
 108 565 108 565 74 725 c 0,10,11
 40 888 40 888 58.5 1029 c 128,-1,12
 77 1170 77 1170 147.5 1274 c 128,-1,13
 218 1378 218 1378 338.5 1437.5 c 128,-1,14
 459 1497 459 1497 628 1497 c 0,15,16
 741 1497 741 1497 854 1463.5 c 128,-1,17
 967 1430 967 1430 1065 1364.5 c 128,-1,18
 1163 1299 1163 1299 1239 1202.5 c 128,-1,19
 1315 1106 1315 1106 1354 981 c 1,20,-1
 1047 981 l 1,21,22
 991 1105 991 1105 897 1166 c 128,-1,23
 803 1227 803 1227 686 1227 c 0,24,25
 578 1227 578 1227 511 1184.5 c 128,-1,26
 444 1142 444 1142 411.5 1072 c 128,-1,27
 379 1002 379 1002 376.5 911.5 c 128,-1,28
 374 821 374 821 394 725 c 0,29,30
 407 664 407 664 429 604 c 128,-1,31
 451 544 451 544 483 489.5 c 128,-1,32
 515 435 515 435 556.5 389 c 128,-1,33
 598 343 598 343 649 309 c 128,-1,34
 700 275 700 275 762 255.5 c 128,-1,35
 824 236 824 236 896 236 c 0,36,37
 1057 236 1057 236 1126.5 316 c 128,-1,38
 1196 396 1196 396 1177 551 c 1,39,-1
 853 551 l 1,40,-1
 802 791 l 1,41,-1
 1417 791 l 1,42,-1
 1586 0 l 1,43,-1
 1381 0 l 1,44,-1
 1312 166 l 1,0,1
EndSplineSet
Substitution2: "<17001,16003> Urdu lookup 100 subtable" G
EndChar

StartChar: H
Encoding: 72 72 43
Width: 1518
GlyphClass: 2
Flags: W
LayerCount: 2
Fore
SplineSet
302 1462 m 1,0,-1
 421 901 l 1,1,-1
 1013 901 l 1,2,-1
 894 1462 l 1,3,-1
 1215 1462 l 1,4,-1
 1526 0 l 1,5,-1
 1205 0 l 1,6,-1
 1070 631 l 1,7,-1
 478 631 l 1,8,-1
 613 0 l 1,9,-1
 291 0 l 1,10,-1
 -19 1462 l 1,11,-1
 302 1462 l 1,0,-1
EndSplineSet
Substitution2: "<17001,16003> Urdu lookup 100 subtable" H
EndChar

StartChar: I
Encoding: 73 73 44
Width: 604
GlyphClass: 2
Flags: W
LayerCount: 2
Fore
SplineSet
302 1462 m 1,0,-1
 613 0 l 1,1,-1
 291 0 l 1,2,-1
 -19 1462 l 1,3,-1
 302 1462 l 1,0,-1
EndSplineSet
Substitution2: "<17001,16003> Urdu lookup 100 subtable" I
EndChar

StartChar: J
Encoding: 74 74 45
Width: 1139
GlyphClass: 2
Flags: W
LayerCount: 2
Fore
SplineSet
1049 461 m 2,0,1
 1059 413 1059 413 1065 358 c 128,-1,2
 1071 303 1071 303 1065 248 c 128,-1,3
 1059 193 1059 193 1036.5 142.5 c 128,-1,4
 1014 92 1014 92 968.5 53 c 128,-1,5
 923 14 923 14 849.5 -9.5 c 128,-1,6
 776 -33 776 -33 667 -33 c 0,7,8
 576 -33 576 -33 483.5 -7.5 c 128,-1,9
 391 18 391 18 312.5 72.5 c 128,-1,10
 234 127 234 127 175 212.5 c 128,-1,11
 116 298 116 298 91 418 c 2,12,-1
 64 545 l 1,13,-1
 353 545 l 1,14,-1
 367 479 l 2,15,16
 378 426 378 426 395.5 381.5 c 128,-1,17
 413 337 413 337 440.5 304.5 c 128,-1,18
 468 272 468 272 508 254 c 128,-1,19
 548 236 548 236 605 236 c 0,20,21
 669 236 669 236 698.5 258.5 c 128,-1,22
 728 281 728 281 737 316.5 c 128,-1,23
 746 352 746 352 739.5 394 c 128,-1,24
 733 436 733 436 725 475 c 2,25,-1
 515 1462 l 1,26,-1
 836 1462 l 1,27,-1
 1049 461 l 2,0,1
EndSplineSet
Substitution2: "<17001,16003> Urdu lookup 100 subtable" J
EndChar

StartChar: K
Encoding: 75 75 46
AltUni2: 00212a.ffffffff.0
Width: 1479
GlyphClass: 2
Flags: W
LayerCount: 2
Fore
SplineSet
302 1462 m 1,0,-1
 431 856 l 1,1,-1
 873 1462 l 1,2,-1
 1275 1462 l 1,3,-1
 825 885 l 1,4,-1
 1641 0 l 1,5,-1
 1237 0 l 1,6,-1
 657 657 l 1,7,-1
 512 471 l 1,8,-1
 613 0 l 1,9,-1
 291 0 l 1,10,-1
 -19 1462 l 1,11,-1
 302 1462 l 1,0,-1
EndSplineSet
Substitution2: "<17001,16003> Urdu lookup 100 subtable" K
EndChar

StartChar: L
Encoding: 76 76 47
AltUni2: 00216c.ffffffff.0
Width: 1214
GlyphClass: 2
Flags: W
LayerCount: 2
Fore
SplineSet
302 1462 m 1,0,-1
 555 270 l 1,1,-1
 1268 270 l 1,2,-1
 1326 0 l 1,3,-1
 291 0 l 1,4,-1
 -19 1462 l 1,5,-1
 302 1462 l 1,0,-1
EndSplineSet
Substitution2: "<17001,16003> Urdu lookup 100 subtable" L
EndChar

StartChar: M
Encoding: 77 77 48
AltUni2: 00216f.ffffffff.0
Width: 1858
GlyphClass: 2
Flags: W
LayerCount: 2
Fore
SplineSet
433 1462 m 1,0,-1
 988 457 l 1,1,-1
 992 457 l 1,2,-1
 1103 1462 l 1,3,-1
 1555 1462 l 1,4,-1
 1866 0 l 1,5,-1
 1565 0 l 1,6,-1
 1344 1036 l 1,7,-1
 1340 1036 l 1,8,-1
 1203 0 l 1,9,-1
 955 0 l 1,10,-1
 377 1026 l 1,11,-1
 373 1026 l 1,12,-1
 592 0 l 1,13,-1
 291 0 l 1,14,-1
 -19 1462 l 1,15,-1
 433 1462 l 1,0,-1
EndSplineSet
Substitution2: "<17001,16003> Urdu lookup 100 subtable" M
EndChar

StartChar: N
Encoding: 78 78 49
Width: 1518
GlyphClass: 2
Flags: W
LayerCount: 2
Fore
SplineSet
300 1462 m 1,0,-1
 1118 481 l 1,1,-1
 1122 481 l 1,2,-1
 914 1462 l 1,3,-1
 1215 1462 l 1,4,-1
 1526 0 l 1,5,-1
 1205 0 l 1,6,-1
 387 979 l 1,7,-1
 383 979 l 1,8,-1
 592 0 l 1,9,-1
 291 0 l 1,10,-1
 -19 1462 l 1,11,-1
 300 1462 l 1,0,-1
EndSplineSet
Substitution2: "<17001,16003> Urdu lookup 100 subtable" N
EndChar

StartChar: O
Encoding: 79 79 50
Width: 1593
GlyphClass: 2
Flags: W
LayerCount: 2
Fore
SplineSet
74 725 m 0,0,1
 40 888 40 888 58.5 1029 c 128,-1,2
 77 1170 77 1170 147.5 1274 c 128,-1,3
 218 1378 218 1378 338.5 1437.5 c 128,-1,4
 459 1497 459 1497 628 1497 c 256,5,6
 797 1497 797 1497 943 1437.5 c 128,-1,7
 1089 1378 1089 1378 1204 1274 c 128,-1,8
 1319 1170 1319 1170 1398 1029 c 128,-1,9
 1477 888 1477 888 1511 725 c 0,10,11
 1545 565 1545 565 1525.5 426.5 c 128,-1,12
 1506 288 1506 288 1435.5 186 c 128,-1,13
 1365 84 1365 84 1244 25.5 c 128,-1,14
 1123 -33 1123 -33 954 -33 c 256,15,16
 785 -33 785 -33 639 25.5 c 128,-1,17
 493 84 493 84 378.5 186 c 128,-1,18
 264 288 264 288 186 426.5 c 128,-1,19
 108 565 108 565 74 725 c 0,0,1
394 725 m 0,20,21
 407 664 407 664 429 604 c 128,-1,22
 451 544 451 544 483 489.5 c 128,-1,23
 515 435 515 435 556.5 389 c 128,-1,24
 598 343 598 343 649 309 c 128,-1,25
 700 275 700 275 762 255.5 c 128,-1,26
 824 236 824 236 896 236 c 0,27,28
 1004 236 1004 236 1070.5 278 c 128,-1,29
 1137 320 1137 320 1170 389 c 128,-1,30
 1203 458 1203 458 1206 546 c 128,-1,31
 1209 634 1209 634 1189 725 c 1,32,33
 1169 821 1169 821 1128.5 911.5 c 128,-1,34
 1088 1002 1088 1002 1025.5 1072 c 128,-1,35
 963 1142 963 1142 878.5 1184.5 c 128,-1,36
 794 1227 794 1227 686 1227 c 256,37,38
 578 1227 578 1227 511 1184.5 c 128,-1,39
 444 1142 444 1142 411.5 1072 c 128,-1,40
 379 1002 379 1002 376.5 911.5 c 128,-1,41
 374 821 374 821 394 725 c 0,20,21
EndSplineSet
Substitution2: "<17001,16003> Urdu lookup 100 subtable" O
EndChar

StartChar: P
Encoding: 80 80 51
Width: 1366
GlyphClass: 2
Flags: W
LayerCount: 2
Fore
SplineSet
640 1462 m 2,0,1
 777 1462 777 1462 882 1422 c 128,-1,2
 987 1382 987 1382 1061 1316.5 c 128,-1,3
 1135 1251 1135 1251 1180.5 1166.5 c 128,-1,4
 1226 1082 1226 1082 1245 993 c 256,5,6
 1264 904 1264 904 1254.5 819.5 c 128,-1,7
 1245 735 1245 735 1198.5 669.5 c 128,-1,8
 1152 604 1152 604 1064 564 c 128,-1,9
 976 524 976 524 839 524 c 2,10,-1
 501 524 l 1,11,-1
 613 0 l 1,12,-1
 291 0 l 1,13,-1
 -19 1462 l 1,14,-1
 640 1462 l 2,0,1
698 774 m 2,15,16
 753 774 753 774 802.5 782 c 128,-1,17
 852 790 852 790 886 813.5 c 128,-1,18
 920 837 920 837 934 880 c 128,-1,19
 948 923 948 923 933 993 c 256,20,21
 918 1063 918 1063 886 1106 c 128,-1,22
 854 1149 854 1149 809.5 1172.5 c 128,-1,23
 765 1196 765 1196 712.5 1204 c 128,-1,24
 660 1212 660 1212 605 1212 c 2,25,-1
 355 1212 l 1,26,-1
 448 774 l 1,27,-1
 698 774 l 2,15,16
EndSplineSet
Substitution2: "<17001,16003> Urdu lookup 100 subtable" P
EndChar

StartChar: Q
Encoding: 81 81 52
Width: 1593
GlyphClass: 2
Flags: W
LayerCount: 2
Fore
SplineSet
1290 51 m 1,0,1
 1226 9 1226 9 1142.5 -12 c 128,-1,2
 1059 -33 1059 -33 954 -33 c 0,3,4
 785 -33 785 -33 639 25.5 c 128,-1,5
 493 84 493 84 378.5 186 c 128,-1,6
 264 288 264 288 186 426.5 c 128,-1,7
 108 565 108 565 74 725 c 0,8,9
 40 888 40 888 58.5 1029 c 128,-1,10
 77 1170 77 1170 147.5 1274 c 128,-1,11
 218 1378 218 1378 338.5 1437.5 c 128,-1,12
 459 1497 459 1497 628 1497 c 256,13,14
 797 1497 797 1497 943 1437.5 c 128,-1,15
 1089 1378 1089 1378 1204 1274 c 128,-1,16
 1319 1170 1319 1170 1398 1029 c 128,-1,17
 1477 888 1477 888 1511 725 c 1,18,19
 1546 564 1546 564 1525.5 428 c 128,-1,20
 1505 292 1505 292 1435 186 c 1,21,-1
 1652 20 l 1,22,-1
 1536 -135 l 1,23,-1
 1290 51 l 1,0,1
1171 389 m 1,24,25
 1200 445 1200 445 1207.5 526.5 c 128,-1,26
 1215 608 1215 608 1189 725 c 1,27,28
 1169 821 1169 821 1128.5 911.5 c 128,-1,29
 1088 1002 1088 1002 1025.5 1072 c 128,-1,30
 963 1142 963 1142 878.5 1184.5 c 128,-1,31
 794 1227 794 1227 686 1227 c 256,32,33
 578 1227 578 1227 511 1184.5 c 128,-1,34
 444 1142 444 1142 411.5 1072 c 128,-1,35
 379 1002 379 1002 376.5 911.5 c 128,-1,36
 374 821 374 821 394 725 c 0,37,38
 407 664 407 664 429 604 c 128,-1,39
 451 544 451 544 483 489.5 c 128,-1,40
 515 435 515 435 556.5 389 c 128,-1,41
 598 343 598 343 649 309 c 128,-1,42
 700 275 700 275 762 255.5 c 128,-1,43
 824 236 824 236 896 236 c 0,44,45
 914 236 914 236 933 236 c 128,-1,46
 952 236 952 236 969.5 237.5 c 128,-1,47
 987 239 987 239 1000.5 243 c 128,-1,48
 1014 247 1014 247 1021 256 c 1,49,-1
 857 381 l 1,50,-1
 973 541 l 1,51,-1
 1171 389 l 1,24,25
EndSplineSet
Substitution2: "<17001,16003> Urdu lookup 100 subtable" Q
EndChar

StartChar: R
Encoding: 82 82 53
Width: 1479
GlyphClass: 2
Flags: W
LayerCount: 2
Fore
SplineSet
769 1462 m 2,0,1
 867 1462 867 1462 953 1430 c 128,-1,2
 1039 1398 1039 1398 1106 1343.5 c 128,-1,3
 1173 1289 1173 1289 1218.5 1215.5 c 128,-1,4
 1264 1142 1264 1142 1282 1059 c 0,5,6
 1296 995 1296 995 1294.5 938.5 c 128,-1,7
 1293 882 1293 882 1275 835.5 c 128,-1,8
 1257 789 1257 789 1220.5 753 c 128,-1,9
 1184 717 1184 717 1128 692 c 1,10,-1
 1129 688 l 1,11,12
 1192 672 1192 672 1238.5 638 c 128,-1,13
 1285 604 1285 604 1319 558 c 128,-1,14
 1353 512 1353 512 1376 457.5 c 128,-1,15
 1399 403 1399 403 1415 346 c 0,16,17
 1425 312 1425 312 1437 264.5 c 128,-1,18
 1449 217 1449 217 1464.5 168.5 c 128,-1,19
 1480 120 1480 120 1501.5 75 c 128,-1,20
 1523 30 1523 30 1551 0 c 1,21,-1
 1229 0 l 1,22,23
 1208 35 1208 35 1191.5 77.5 c 128,-1,24
 1175 120 1175 120 1160.5 166 c 128,-1,25
 1146 212 1146 212 1132 259 c 128,-1,26
 1118 306 1118 306 1103 350 c 0,27,28
 1082 408 1082 408 1057 449.5 c 128,-1,29
 1032 491 1032 491 997.5 518 c 128,-1,30
 963 545 963 545 918 558 c 128,-1,31
 873 571 873 571 812 571 c 2,32,-1
 491 571 l 1,33,-1
 613 0 l 1,34,-1
 291 0 l 1,35,-1
 -19 1462 l 1,36,-1
 769 1462 l 2,0,1
794 801 m 2,37,38
 905 801 905 801 949.5 850 c 128,-1,39
 994 899 994 899 971 1010 c 1,40,41
 948 1116 948 1116 883.5 1164 c 128,-1,42
 819 1212 819 1212 707 1212 c 2,43,-1
 355 1212 l 1,44,-1
 442 801 l 1,45,-1
 794 801 l 2,37,38
EndSplineSet
Substitution2: "<17001,16003> Urdu lookup 100 subtable" R
EndChar

StartChar: S
Encoding: 83 83 54
Width: 1329
GlyphClass: 2
Flags: W
LayerCount: 2
Fore
SplineSet
406 485 m 1,0,1
 422 412 422 412 459.5 361 c 128,-1,2
 497 310 497 310 548.5 277.5 c 128,-1,3
 600 245 600 245 662 230 c 128,-1,4
 724 215 724 215 788 215 c 0,5,6
 830 215 830 215 878.5 222.5 c 128,-1,7
 927 230 927 230 965.5 250 c 128,-1,8
 1004 270 1004 270 1025 305.5 c 128,-1,9
 1046 341 1046 341 1034 397 c 0,10,11
 1022 456 1022 456 976 493 c 128,-1,12
 930 530 930 530 863.5 555 c 128,-1,13
 797 580 797 580 715 598.5 c 128,-1,14
 633 617 633 617 549 639 c 1,15,16
 463 659 463 659 378 688.5 c 128,-1,17
 293 718 293 718 222 765.5 c 128,-1,18
 151 813 151 813 98.5 883 c 128,-1,19
 46 953 46 953 24 1055 c 0,20,21
 0 1168 0 1168 30.5 1251 c 128,-1,22
 61 1334 61 1334 127 1389 c 128,-1,23
 193 1444 193 1444 285 1470.5 c 128,-1,24
 377 1497 377 1497 476 1497 c 0,25,26
 590 1497 590 1497 701.5 1471 c 128,-1,27
 813 1445 813 1445 906.5 1388.5 c 128,-1,28
 1000 1332 1000 1332 1067.5 1242.5 c 128,-1,29
 1135 1153 1135 1153 1162 1026 c 1,30,-1
 851 1026 l 1,31,32
 833 1091 833 1091 800 1134 c 128,-1,33
 767 1177 767 1177 723 1202 c 128,-1,34
 679 1227 679 1227 626 1237 c 128,-1,35
 573 1247 573 1247 515 1247 c 0,36,37
 476 1247 476 1247 439 1238.5 c 128,-1,38
 402 1230 402 1230 374.5 1210.5 c 128,-1,39
 347 1191 347 1191 333.5 1159 c 128,-1,40
 320 1127 320 1127 330 1081 c 0,41,42
 336 1053 336 1053 347.5 1031.5 c 128,-1,43
 359 1010 359 1010 380.5 993.5 c 128,-1,44
 402 977 402 977 436 962.5 c 128,-1,45
 470 948 470 948 522 933 c 128,-1,46
 574 918 574 918 645.5 900.5 c 128,-1,47
 717 883 717 883 813 860 c 1,48,49
 841 855 841 855 886 844 c 128,-1,50
 931 833 931 833 983.5 813 c 128,-1,51
 1036 793 1036 793 1091 762 c 128,-1,52
 1146 731 1146 731 1195 685.5 c 128,-1,53
 1244 640 1244 640 1282 578 c 128,-1,54
 1320 516 1320 516 1337 434 c 0,55,56
 1359 333 1359 333 1338.5 247.5 c 128,-1,57
 1318 162 1318 162 1254.5 99.5 c 128,-1,58
 1191 37 1191 37 1085 2 c 128,-1,59
 979 -33 979 -33 829 -33 c 0,60,61
 748 -33 748 -33 667 -20 c 128,-1,62
 586 -7 586 -7 510.5 20.5 c 128,-1,63
 435 48 435 48 367.5 90 c 128,-1,64
 300 132 300 132 245.5 189.5 c 128,-1,65
 191 247 191 247 152.5 321 c 128,-1,66
 114 395 114 395 96 485 c 1,67,-1
 406 485 l 1,0,1
EndSplineSet
Substitution2: "<17001,16003> Urdu lookup 100 subtable" S
EndChar

StartChar: T
Encoding: 84 84 55
Width: 1251
GlyphClass: 2
Flags: W
LayerCount: 2
Fore
SplineSet
-76 1192 m 1,0,-1
 -133 1462 l 1,1,-1
 1064 1462 l 1,2,-1
 1121 1192 l 1,3,-1
 682 1192 l 1,4,-1
 936 0 l 1,5,-1
 615 0 l 1,6,-1
 361 1192 l 1,7,-1
 -76 1192 l 1,0,-1
EndSplineSet
Substitution2: "<17001,16003> Urdu lookup 100 subtable" T
EndChar

StartChar: U
Encoding: 85 85 56
Width: 1518
GlyphClass: 2
Flags: W
LayerCount: 2
Fore
SplineSet
1414 553 m 2,0,1
 1446 405 1446 405 1426.5 295 c 128,-1,2
 1407 185 1407 185 1342.5 112 c 128,-1,3
 1278 39 1278 39 1170 3 c 128,-1,4
 1062 -33 1062 -33 915 -33 c 0,5,6
 767 -33 767 -33 643.5 2.5 c 128,-1,7
 520 38 520 38 424.5 110.5 c 128,-1,8
 329 183 329 183 264 293 c 128,-1,9
 199 403 199 403 167 553 c 2,10,-1
 -25 1462 l 1,11,-1
 296 1462 l 1,12,-1
 489 553 l 2,13,14
 502 494 502 494 524.5 437 c 128,-1,15
 547 380 547 380 588.5 335.5 c 128,-1,16
 630 291 630 291 695 263.5 c 128,-1,17
 760 236 760 236 857 236 c 0,18,19
 943 236 943 236 997 254.5 c 128,-1,20
 1051 273 1051 273 1078.5 312 c 128,-1,21
 1106 351 1106 351 1108.5 411 c 128,-1,22
 1111 471 1111 471 1093 553 c 2,23,-1
 900 1462 l 1,24,-1
 1221 1462 l 1,25,-1
 1414 553 l 2,0,1
EndSplineSet
Substitution2: "<17001,16003> Urdu lookup 100 subtable" U
EndChar

StartChar: V
Encoding: 86 86 57
Width: 1290
GlyphClass: 2
Flags: W
LayerCount: 2
Fore
SplineSet
609 0 m 1,0,-1
 -174 1462 l 1,1,-1
 154 1462 l 1,2,-1
 698 434 l 1,3,-1
 702 434 l 1,4,-1
 814 1462 l 1,5,-1
 1146 1462 l 1,6,-1
 971 0 l 1,7,-1
 609 0 l 1,0,-1
EndSplineSet
Substitution2: "<17001,16003> Urdu lookup 100 subtable" V
EndChar

StartChar: W
Encoding: 87 87 58
Width: 1933
GlyphClass: 2
Flags: W
LayerCount: 2
Fore
SplineSet
1364 0 m 1,0,-1
 905 995 l 1,1,-1
 901 995 l 1,2,-1
 869 0 l 1,3,-1
 543 0 l 1,4,-1
 -154 1462 l 1,5,-1
 167 1462 l 1,6,-1
 609 467 l 1,7,-1
 613 467 l 1,8,-1
 656 1462 l 1,9,-1
 957 1462 l 1,10,-1
 1421 455 l 1,11,-1
 1425 455 l 1,12,-1
 1451 1462 l 1,13,-1
 1766 1462 l 1,14,-1
 1684 0 l 1,15,-1
 1364 0 l 1,0,-1
EndSplineSet
Substitution2: "<17001,16003> Urdu lookup 100 subtable" W
EndChar

StartChar: X
Encoding: 88 88 59
Width: 1366
GlyphClass: 2
Flags: W
LayerCount: 2
Fore
SplineSet
-131 1462 m 1,0,-1
 240 1462 l 1,1,-1
 626 995 l 1,2,-1
 824 1462 l 1,3,-1
 1176 1462 l 1,4,-1
 855 764 l 1,5,-1
 1528 0 l 1,6,-1
 1145 0 l 1,7,-1
 718 506 l 1,8,-1
 500 0 l 1,9,-1
 140 0 l 1,10,-1
 487 766 l 1,11,-1
 -131 1462 l 1,0,-1
EndSplineSet
Substitution2: "<17001,16003> Urdu lookup 100 subtable" X
EndChar

StartChar: Y
Encoding: 89 89 60
Width: 1366
GlyphClass: 2
Flags: W
LayerCount: 2
Fore
SplineSet
-176 1462 m 1,0,-1
 183 1462 l 1,1,-1
 647 885 l 1,2,-1
 865 1462 l 1,3,-1
 1223 1462 l 1,4,-1
 872 561 l 1,5,-1
 992 0 l 1,6,-1
 670 0 l 1,7,-1
 549 569 l 1,8,-1
 -176 1462 l 1,0,-1
EndSplineSet
Substitution2: "<17001,16003> Urdu lookup 100 subtable" Y
EndChar

StartChar: Z
Encoding: 90 90 61
Width: 1327
GlyphClass: 2
Flags: W
LayerCount: 2
Fore
SplineSet
727 1192 m 1,0,-1
 6 1192 l 1,1,-1
 -51 1462 l 1,2,-1
 1099 1462 l 1,3,-1
 1153 1208 l 1,4,-1
 567 270 l 1,5,-1
 1372 270 l 1,6,-1
 1430 0 l 1,7,-1
 197 0 l 1,8,-1
 144 254 l 1,9,-1
 727 1192 l 1,0,-1
EndSplineSet
Substitution2: "<17001,16003> Urdu lookup 100 subtable" Z
EndChar

StartChar: bracketleft
Encoding: 91 91 62
Width: 641
GlyphClass: 2
Flags: W
LayerCount: 2
Fore
SplineSet
590 1497 m 1,0,-1
 590 1268 l 1,1,-1
 340 1268 l 1,2,-1
 340 -141 l 1,3,-1
 590 -141 l 1,4,-1
 590 -371 l 1,5,-1
 49 -371 l 1,6,-1
 50 1497 l 1,7,-1
 590 1497 l 1,0,-1
EndSplineSet
Substitution2: "<17001,16003> Urdu lookup 100 subtable" bracketleft
EndChar

StartChar: backslash
Encoding: 92 92 63
Width: 760
GlyphClass: 2
Flags: W
LayerCount: 2
Fore
SplineSet
548 -33 m 1,0,-1
 -19 1497 l 1,1,-1
 211 1497 l 1,2,-1
 781 -33 l 1,3,-1
 548 -33 l 1,0,-1
EndSplineSet
Substitution2: "<17001,16003> Urdu lookup 100 subtable" backslash
EndChar

StartChar: bracketright
Encoding: 93 93 64
Width: 741
GlyphClass: 2
Flags: W
LayerCount: 2
Fore
SplineSet
49 -371 m 1,0,-1
 49 -141 l 1,1,-1
 299 -141 l 1,2,-1
 299 1268 l 1,3,-1
 50 1268 l 1,4,-1
 50 1497 l 1,5,-1
 590 1497 l 1,6,-1
 590 -371 l 1,7,-1
 49 -371 l 1,0,-1
EndSplineSet
Substitution2: "<17001,16003> Urdu lookup 100 subtable" bracketright
EndChar

StartChar: asciicircum
Encoding: 94 94 65
Width: 1229
GlyphClass: 2
Flags: W
LayerCount: 2
Fore
SplineSet
597 1434 m 1,0,-1
 1116 645 l 1,1,-1
 876 645 l 1,2,-1
 507 1208 l 1,3,-1
 377 645 l 1,4,-1
 138 645 l 1,5,-1
 322 1434 l 1,6,-1
 597 1434 l 1,0,-1
EndSplineSet
Substitution2: "<17001,16003> Urdu lookup 100 subtable" asciicircum
EndChar

StartChar: underscore
Encoding: 95 95 66
Width: 1024
GlyphClass: 2
Flags: W
LayerCount: 2
Fore
SplineSet
1023 -782 m 1,0,-1
 1023 -884 l 1,1,-1
 0 -884 l 1,2,-1
 0 -782 l 1,3,-1
 1023 -782 l 1,0,-1
EndSplineSet
Substitution2: "<17001,16003> Urdu lookup 100 subtable" underscore
EndChar

StartChar: grave
Encoding: 96 96 67
Width: 530
GlyphClass: 2
Flags: W
LayerCount: 2
Fore
SplineSet
59 1481 m 1,0,-1
 317 1190 l 1,1,-1
 115 1190 l 1,2,-1
 -260 1481 l 1,3,-1
 59 1481 l 1,0,-1
EndSplineSet
Substitution2: "<17001,16003> Urdu lookup 100 subtable" grave
EndChar

StartChar: a
Encoding: 97 97 68
Width: 1176
GlyphClass: 2
Flags: W
LayerCount: 2
Fore
SplineSet
809 518 m 1,0,1
 794 502 794 502 769 492.5 c 128,-1,2
 744 483 744 483 713.5 477 c 128,-1,3
 683 471 683 471 648.5 467 c 128,-1,4
 614 463 614 463 580 457 c 0,5,6
 548 451 548 451 519 441 c 128,-1,7
 490 431 490 431 470 413.5 c 128,-1,8
 450 396 450 396 441.5 369 c 128,-1,9
 433 342 433 342 442 301 c 0,10,11
 450 261 450 261 470 235 c 128,-1,12
 490 209 490 209 518 193.5 c 128,-1,13
 546 178 546 178 579.5 172 c 128,-1,14
 613 166 613 166 649 166 c 0,15,16
 706 166 706 166 742.5 179.5 c 128,-1,17
 779 193 779 193 800.5 214.5 c 128,-1,18
 822 236 822 236 831 263 c 128,-1,19
 840 290 840 290 841.5 317.5 c 128,-1,20
 843 345 843 345 839.5 369 c 128,-1,21
 836 393 836 393 832 410 c 2,22,-1
 809 518 l 1,0,1
93 733 m 1,23,24
 78 835 78 835 108 903 c 128,-1,25
 138 971 138 971 198.5 1012 c 128,-1,26
 259 1053 259 1053 342 1070 c 128,-1,27
 425 1087 425 1087 514 1087 c 0,28,29
 593 1087 593 1087 678 1075.5 c 128,-1,30
 763 1064 763 1064 837.5 1031.5 c 128,-1,31
 912 999 912 999 967.5 940 c 128,-1,32
 1023 881 1023 881 1043 786 c 2,33,-1
 1160 236 l 2,34,35
 1168 200 1168 200 1177.5 164.5 c 128,-1,36
 1187 129 1187 129 1198 98 c 128,-1,37
 1209 67 1209 67 1221.5 41.5 c 128,-1,38
 1234 16 1234 16 1248 0 c 1,39,-1
 953 0 l 1,40,41
 939 25 939 25 928 50.5 c 128,-1,42
 917 76 917 76 910 102 c 1,43,44
 883 66 883 66 846.5 41.5 c 128,-1,45
 810 17 810 17 767.5 1.5 c 128,-1,46
 725 -14 725 -14 677.5 -20.5 c 128,-1,47
 630 -27 630 -27 581 -27 c 0,48,49
 505 -27 505 -27 435.5 -8.5 c 128,-1,50
 366 10 366 10 309 49 c 128,-1,51
 252 88 252 88 212 147.5 c 128,-1,52
 172 207 172 207 154 289 c 1,53,54
 136 379 136 379 155 437 c 128,-1,55
 174 495 174 495 217 530.5 c 128,-1,56
 260 566 260 566 320 583.5 c 128,-1,57
 380 601 380 601 444.5 610.5 c 128,-1,58
 509 620 509 620 570.5 626.5 c 128,-1,59
 632 633 632 633 678 645.5 c 128,-1,60
 724 658 724 658 748 681.5 c 128,-1,61
 772 705 772 705 760 750 c 1,62,63
 750 796 750 796 729 824 c 128,-1,64
 708 852 708 852 679.5 867.5 c 128,-1,65
 651 883 651 883 615.5 888 c 128,-1,66
 580 893 580 893 542 893 c 0,67,68
 456 893 456 893 414 856 c 128,-1,69
 372 819 372 819 383 733 c 1,70,-1
 93 733 l 1,23,24
EndSplineSet
Substitution2: "<17001,16003> Urdu lookup 100 subtable" a
EndChar

StartChar: b
Encoding: 98 98 69
Width: 1251
GlyphClass: 2
Flags: W
LayerCount: 2
Fore
SplineSet
240 1462 m 1,0,-1
 353 930 l 1,1,-1
 358 930 l 1,2,3
 376 971 376 971 406.5 1000.5 c 128,-1,4
 437 1030 437 1030 476.5 1049 c 128,-1,5
 516 1068 516 1068 562 1077.5 c 128,-1,6
 608 1087 608 1087 657 1087 c 0,7,8
 736 1087 736 1087 821.5 1054.5 c 128,-1,9
 907 1022 907 1022 984 954 c 128,-1,10
 1061 886 1061 886 1122.5 781 c 128,-1,11
 1184 676 1184 676 1215 530 c 0,12,13
 1246 385 1246 385 1229 280 c 128,-1,14
 1212 175 1212 175 1164 106.5 c 128,-1,15
 1116 38 1116 38 1044.5 5.5 c 128,-1,16
 973 -27 973 -27 894 -27 c 0,17,18
 836 -27 836 -27 781.5 -18 c 128,-1,19
 727 -9 727 -9 678.5 10.5 c 128,-1,20
 630 30 630 30 587.5 60.5 c 128,-1,21
 545 91 545 91 512 135 c 1,22,-1
 508 135 l 1,23,-1
 537 0 l 1,24,-1
 261 0 l 1,25,-1
 -49 1462 l 1,26,-1
 240 1462 l 1,0,-1
924 528 m 0,27,28
 910 596 910 596 882.5 657.5 c 128,-1,29
 855 719 855 719 814.5 766 c 128,-1,30
 774 813 774 813 721.5 840.5 c 128,-1,31
 669 868 669 868 604 868 c 0,32,33
 540 868 540 868 499 840.5 c 128,-1,34
 458 813 458 813 437.5 766 c 128,-1,35
 417 719 417 719 415.5 657.5 c 128,-1,36
 414 596 414 596 428 528 c 0,37,38
 442 462 442 462 469.5 401 c 128,-1,39
 497 340 497 340 537.5 293 c 128,-1,40
 578 246 578 246 631 218 c 128,-1,41
 684 190 684 190 748 190 c 0,42,43
 813 190 813 190 853.5 218 c 128,-1,44
 894 246 894 246 914.5 293 c 128,-1,45
 935 340 935 340 936.5 401 c 128,-1,46
 938 462 938 462 924 528 c 0,27,28
EndSplineSet
Substitution2: "<17001,16003> Urdu lookup 100 subtable" b
EndChar

StartChar: c
Encoding: 99 99 70
AltUni2: 00217d.ffffffff.0
Width: 1176
GlyphClass: 2
Flags: W
LayerCount: 2
Fore
SplineSet
835 686 m 1,0,1
 769 868 769 868 581 868 c 0,2,3
 511 868 511 868 470.5 836 c 128,-1,4
 430 804 430 804 412 754.5 c 128,-1,5
 394 705 394 705 394.5 644 c 128,-1,6
 395 583 395 583 407 524 c 0,7,8
 419 467 419 467 444 407.5 c 128,-1,9
 469 348 469 348 507 299.5 c 128,-1,10
 545 251 545 251 598 220.5 c 128,-1,11
 651 190 651 190 719 190 c 0,12,13
 824 190 824 190 868 248.5 c 128,-1,14
 912 307 912 307 905 406 c 1,15,-1
 1185 406 l 1,16,17
 1193 301 1193 301 1168 220 c 128,-1,18
 1143 139 1143 139 1089 84 c 128,-1,19
 1035 29 1035 29 953.5 1 c 128,-1,20
 872 -27 872 -27 767 -27 c 0,21,22
 647 -27 647 -27 540.5 13 c 128,-1,23
 434 53 434 53 348.5 124.5 c 128,-1,24
 263 196 263 196 203.5 295.5 c 128,-1,25
 144 395 144 395 119 514 c 0,26,27
 93 638 93 638 106.5 743 c 128,-1,28
 120 848 120 848 172.5 924.5 c 128,-1,29
 225 1001 225 1001 316 1044 c 128,-1,30
 407 1087 407 1087 536 1087 c 0,31,32
 631 1087 631 1087 723.5 1062.5 c 128,-1,33
 816 1038 816 1038 895 988 c 128,-1,34
 974 938 974 938 1033 862.5 c 128,-1,35
 1092 787 1092 787 1120 686 c 1,36,-1
 835 686 l 1,0,1
EndSplineSet
Substitution2: "<17001,16003> Urdu lookup 100 subtable" c
EndChar

StartChar: d
Encoding: 100 100 71
AltUni2: 00217e.ffffffff.0
Width: 1251
GlyphClass: 2
Flags: W
LayerCount: 2
Fore
SplineSet
983 135 m 1,0,1
 951 49 951 49 875.5 11 c 128,-1,2
 800 -27 800 -27 696 -27 c 0,3,4
 576 -27 576 -27 477 19.5 c 128,-1,5
 378 66 378 66 302.5 144.5 c 128,-1,6
 227 223 227 223 176 325.5 c 128,-1,7
 125 428 125 428 102 539 c 0,8,9
 80 646 80 646 88 744.5 c 128,-1,10
 96 843 96 843 138.5 919.5 c 128,-1,11
 181 996 181 996 258.5 1041.5 c 128,-1,12
 336 1087 336 1087 453 1087 c 0,13,14
 500 1087 500 1087 547.5 1077 c 128,-1,15
 595 1067 595 1067 640 1047.5 c 128,-1,16
 685 1028 685 1028 726 998.5 c 128,-1,17
 767 969 767 969 800 930 c 1,18,-1
 804 930 l 1,19,-1
 691 1462 l 1,20,-1
 982 1462 l 1,21,-1
 1293 0 l 1,22,-1
 1016 0 l 1,23,-1
 987 135 l 1,24,-1
 983 135 l 1,0,1
898 532 m 0,25,26
 885 597 885 597 859.5 657.5 c 128,-1,27
 834 718 834 718 795 765 c 128,-1,28
 756 812 756 812 702 840 c 128,-1,29
 648 868 648 868 577 868 c 256,30,31
 506 868 506 868 463 839.5 c 128,-1,32
 420 811 420 811 400 763.5 c 128,-1,33
 380 716 380 716 379.5 655.5 c 128,-1,34
 379 595 379 595 393 530 c 0,35,36
 406 468 406 468 433.5 407 c 128,-1,37
 461 346 461 346 502.5 298 c 128,-1,38
 544 250 544 250 599 220 c 128,-1,39
 654 190 654 190 721 190 c 0,40,41
 793 190 793 190 834.5 219 c 128,-1,42
 876 248 876 248 895 296 c 128,-1,43
 914 344 914 344 913 405.5 c 128,-1,44
 912 467 912 467 898 532 c 0,25,26
EndSplineSet
Substitution2: "<17001,16003> Urdu lookup 100 subtable" d
EndChar

StartChar: e
Encoding: 101 101 72
Width: 1176
GlyphClass: 2
Flags: W
LayerCount: 2
Fore
SplineSet
402 459 m 1,0,1
 438 317 438 317 517 253.5 c 128,-1,2
 596 190 596 190 719 190 c 0,3,4
 763 190 763 190 799 202.5 c 128,-1,5
 835 215 835 215 861.5 234.5 c 128,-1,6
 888 254 888 254 903 278.5 c 128,-1,7
 918 303 918 303 920 328 c 1,8,-1
 1176 328 l 1,9,10
 1166 233 1166 233 1132.5 165.5 c 128,-1,11
 1099 98 1099 98 1045 55.5 c 128,-1,12
 991 13 991 13 918 -7 c 128,-1,13
 845 -27 845 -27 755 -27 c 0,14,15
 630 -27 630 -27 521 13.5 c 128,-1,16
 412 54 412 54 326.5 127 c 128,-1,17
 241 200 241 200 182 302.5 c 128,-1,18
 123 405 123 405 97 528 c 0,19,20
 72 647 72 647 89.5 749.5 c 128,-1,21
 107 852 107 852 162 927 c 128,-1,22
 217 1002 217 1002 307.5 1044.5 c 128,-1,23
 398 1087 398 1087 518 1087 c 0,24,25
 608 1087 608 1087 688 1063 c 128,-1,26
 768 1039 768 1039 836 996.5 c 128,-1,27
 904 954 904 954 960 895 c 128,-1,28
 1016 836 1016 836 1058 766 c 128,-1,29
 1100 696 1100 696 1127 618 c 128,-1,30
 1154 540 1154 540 1166 459 c 1,31,-1
 402 459 l 1,0,1
836 643 m 1,32,33
 814 699 814 699 787.5 741 c 128,-1,34
 761 783 761 783 727.5 811 c 128,-1,35
 694 839 694 839 652 853.5 c 128,-1,36
 610 868 610 868 557 868 c 0,37,38
 486 868 486 868 445 844.5 c 128,-1,39
 404 821 404 821 384.5 786.5 c 128,-1,40
 365 752 365 752 362 713 c 128,-1,41
 359 674 359 674 363 643 c 1,42,-1
 836 643 l 1,32,33
EndSplineSet
Substitution2: "<17001,16003> Urdu lookup 100 subtable" e
EndChar

StartChar: f
Encoding: 102 102 73
Width: 682
GlyphClass: 2
Flags: W
LayerCount: 2
Fore
SplineSet
-33 864 m 1,0,-1
 -75 1059 l 1,1,-1
 99 1059 l 1,2,-1
 82 1141 l 2,3,4
 67 1212 67 1212 76.5 1270.5 c 128,-1,5
 86 1329 86 1329 121 1372 c 128,-1,6
 156 1415 156 1415 217.5 1438.5 c 128,-1,7
 279 1462 279 1462 367 1462 c 0,8,9
 406 1462 406 1462 445.5 1459 c 128,-1,10
 485 1456 485 1456 522 1454 c 1,11,-1
 569 1237 l 1,12,13
 515 1243 515 1243 460 1243 c 0,14,15
 400 1243 400 1243 381 1215.5 c 128,-1,16
 362 1188 362 1188 376 1122 c 2,17,-1
 389 1059 l 1,18,-1
 590 1059 l 1,19,-1
 632 864 l 1,20,-1
 431 864 l 1,21,-1
 615 0 l 1,22,-1
 324 0 l 1,23,-1
 141 864 l 1,24,-1
 -33 864 l 1,0,-1
EndSplineSet
Substitution2: "<17001,16003> Urdu lookup 100 subtable" f
EndChar

StartChar: g
Encoding: 103 103 74
Width: 1251
GlyphClass: 2
Flags: W
LayerCount: 2
Fore
SplineSet
1263 68 m 2,0,1
 1272 25 1272 25 1276 -26.5 c 128,-1,2
 1280 -78 1280 -78 1270.5 -129.5 c 128,-1,3
 1261 -181 1261 -181 1234 -230 c 128,-1,4
 1207 -279 1207 -279 1154 -316.5 c 128,-1,5
 1101 -354 1101 -354 1018 -376.5 c 128,-1,6
 935 -399 935 -399 814 -399 c 0,7,8
 736 -399 736 -399 651 -379.5 c 128,-1,9
 566 -360 566 -360 491 -319 c 128,-1,10
 416 -278 416 -278 358 -213.5 c 128,-1,11
 300 -149 300 -149 275 -59 c 1,12,-1
 563 -59 l 1,13,14
 582 -100 582 -100 608.5 -128 c 128,-1,15
 635 -156 635 -156 667 -173 c 128,-1,16
 699 -190 699 -190 735.5 -197.5 c 128,-1,17
 772 -205 772 -205 811 -205 c 0,18,19
 873 -205 873 -205 913 -185.5 c 128,-1,20
 953 -166 953 -166 974.5 -131 c 128,-1,21
 996 -96 996 -96 999 -48.5 c 128,-1,22
 1002 -1 1002 -1 990 55 c 2,23,-1
 960 195 l 1,24,-1
 956 195 l 1,25,26
 941 153 941 153 913 122 c 128,-1,27
 885 91 885 91 848 70.5 c 128,-1,28
 811 50 811 50 766 40.5 c 128,-1,29
 721 31 721 31 673 31 c 0,30,31
 553 31 553 31 458.5 73 c 128,-1,32
 364 115 364 115 294 187.5 c 128,-1,33
 224 260 224 260 178 357 c 128,-1,34
 132 454 132 454 109 563 c 0,35,36
 87 666 87 666 96 761 c 128,-1,37
 105 856 105 856 147 928.5 c 128,-1,38
 189 1001 189 1001 264.5 1044 c 128,-1,39
 340 1087 340 1087 450 1087 c 0,40,41
 556 1087 556 1087 642 1048.5 c 128,-1,42
 728 1010 728 1010 802 918 c 1,43,-1
 806 918 l 1,44,-1
 776 1059 l 1,45,-1
 1052 1059 l 1,46,-1
 1263 68 l 2,0,1
700 250 m 0,47,48
 762 250 762 250 803.5 274.5 c 128,-1,49
 845 299 845 299 867.5 339.5 c 128,-1,50
 890 380 890 380 894 433 c 128,-1,51
 898 486 898 486 886 543 c 0,52,53
 873 608 873 608 848 666.5 c 128,-1,54
 823 725 823 725 785 770 c 128,-1,55
 747 815 747 815 693.5 841.5 c 128,-1,56
 640 868 640 868 569 868 c 0,57,58
 508 868 508 868 468.5 843 c 128,-1,59
 429 818 429 818 409 776.5 c 128,-1,60
 389 735 389 735 387 680.5 c 128,-1,61
 385 626 385 626 398 567 c 0,62,63
 410 510 410 510 433.5 453.5 c 128,-1,64
 457 397 457 397 493.5 352 c 128,-1,65
 530 307 530 307 581.5 278.5 c 128,-1,66
 633 250 633 250 700 250 c 0,47,48
EndSplineSet
Substitution2: "<17001,16003> Urdu lookup 100 subtable" g
EndChar

StartChar: h
Encoding: 104 104 75
Width: 1214
GlyphClass: 2
Flags: W
LayerCount: 2
Fore
SplineSet
240 1462 m 1,0,-1
 357 911 l 1,1,-1
 364 911 l 1,2,3
 382 957 382 957 411 990.5 c 128,-1,4
 440 1024 440 1024 476 1045.5 c 128,-1,5
 512 1067 512 1067 553 1077 c 128,-1,6
 594 1087 594 1087 635 1087 c 0,7,8
 751 1087 751 1087 832.5 1055.5 c 128,-1,9
 914 1024 914 1024 970 967 c 128,-1,10
 1026 910 1026 910 1060 829.5 c 128,-1,11
 1094 749 1094 749 1115 651 c 2,12,-1
 1254 0 l 1,13,-1
 963 0 l 1,14,-1
 835 598 l 2,15,16
 821 663 821 663 801 712 c 128,-1,17
 781 761 781 761 752.5 793.5 c 128,-1,18
 724 826 724 826 685 842 c 128,-1,19
 646 858 646 858 594 858 c 0,20,21
 476 858 476 858 437.5 787 c 128,-1,22
 399 716 399 716 433 555 c 2,23,-1
 551 0 l 1,24,-1
 261 0 l 1,25,-1
 -49 1462 l 1,26,-1
 240 1462 l 1,0,-1
EndSplineSet
Substitution2: "<17001,16003> Urdu lookup 100 subtable" h
EndChar

StartChar: i
Encoding: 105 105 76
Width: 528
GlyphClass: 2
Flags: W
LayerCount: 2
Fore
SplineSet
334 1059 m 1,0,-1
 560 0 l 1,1,-1
 269 0 l 1,2,-1
 44 1059 l 1,3,-1
 334 1059 l 1,0,-1
10 1223 m 1,4,-1
 -41 1462 l 1,5,-1
 249 1462 l 1,6,-1
 300 1223 l 1,7,-1
 10 1223 l 1,4,-1
EndSplineSet
Substitution2: "<17001,16003> Urdu lookup 100 subtable" i
EndChar

StartChar: j
Encoding: 106 106 77
Width: 569
GlyphClass: 2
Flags: W
LayerCount: 2
Fore
SplineSet
140 -123 m 1,0,1
 159 -131 159 -131 202 -131 c 0,2,3
 224 -131 224 -131 243.5 -127.5 c 128,-1,4
 263 -124 263 -124 276.5 -114 c 128,-1,5
 290 -104 290 -104 295 -85.5 c 128,-1,6
 300 -67 300 -67 294 -37 c 2,7,-1
 62 1059 l 1,8,-1
 352 1059 l 1,9,-1
 588 -51 l 2,10,11
 605 -132 605 -132 601 -192.5 c 128,-1,12
 597 -253 597 -253 563 -292.5 c 128,-1,13
 529 -332 529 -332 461 -351.5 c 128,-1,14
 393 -371 393 -371 283 -371 c 0,15,16
 257 -371 257 -371 234 -369 c 128,-1,17
 211 -367 211 -367 189 -362 c 1,18,-1
 140 -123 l 1,0,1
28 1223 m 1,19,-1
 -23 1462 l 1,20,-1
 267 1462 l 1,21,-1
 318 1223 l 1,22,-1
 28 1223 l 1,19,-1
EndSplineSet
Substitution2: "<17001,16003> Urdu lookup 100 subtable" j
EndChar

StartChar: k
Encoding: 107 107 78
Width: 1176
GlyphClass: 2
Flags: W
LayerCount: 2
Fore
SplineSet
267 1462 m 1,0,-1
 433 678 l 1,1,-1
 719 1059 l 1,2,-1
 1063 1059 l 1,3,-1
 746 670 l 1,4,-1
 1334 0 l 1,5,-1
 981 0 l 1,6,-1
 590 473 l 1,7,-1
 500 365 l 1,8,-1
 578 0 l 1,9,-1
 287 0 l 1,10,-1
 -23 1462 l 1,11,-1
 267 1462 l 1,0,-1
EndSplineSet
Substitution2: "<17001,16003> Urdu lookup 100 subtable" k
EndChar

StartChar: l
Encoding: 108 108 79
AltUni2: 00217c.ffffffff.0
Width: 528
GlyphClass: 2
Flags: W
LayerCount: 2
Fore
SplineSet
249 1462 m 1,0,-1
 560 0 l 1,1,-1
 269 0 l 1,2,-1
 -41 1462 l 1,3,-1
 249 1462 l 1,0,-1
EndSplineSet
Substitution2: "<17001,16003> Urdu lookup 100 subtable" l
EndChar

StartChar: m
Encoding: 109 109 80
AltUni2: 00217f.ffffffff.0
Width: 1855
GlyphClass: 2
Flags: W
LayerCount: 2
Fore
SplineSet
317 1059 m 1,0,-1
 348 915 l 1,1,-1
 352 915 l 1,2,3
 392 997 392 997 463 1042 c 128,-1,4
 534 1087 534 1087 639 1087 c 0,5,6
 689 1087 689 1087 737.5 1078 c 128,-1,7
 786 1069 786 1069 830.5 1048 c 128,-1,8
 875 1027 875 1027 914.5 993.5 c 128,-1,9
 954 960 954 960 986 911 c 1,10,11
 1003 946 1003 946 1028 978 c 128,-1,12
 1053 1010 1053 1010 1088 1034 c 128,-1,13
 1123 1058 1123 1058 1168 1072.5 c 128,-1,14
 1213 1087 1213 1087 1268 1087 c 0,15,16
 1352 1087 1352 1087 1427.5 1066.5 c 128,-1,17
 1503 1046 1503 1046 1564.5 1001 c 128,-1,18
 1626 956 1626 956 1670 884 c 128,-1,19
 1714 812 1714 812 1736 709 c 2,20,-1
 1887 0 l 1,21,-1
 1596 0 l 1,22,-1
 1468 600 l 2,23,24
 1457 653 1457 653 1442.5 700 c 128,-1,25
 1428 747 1428 747 1402.5 782 c 128,-1,26
 1377 817 1377 817 1337 837.5 c 128,-1,27
 1297 858 1297 858 1235 858 c 0,28,29
 1174 858 1174 858 1140.5 834.5 c 128,-1,30
 1107 811 1107 811 1094 773 c 128,-1,31
 1081 735 1081 735 1084 687 c 128,-1,32
 1087 639 1087 639 1097 590 c 2,33,-1
 1223 0 l 1,34,-1
 932 0 l 1,35,-1
 805 594 l 2,36,37
 795 640 795 640 783.5 687 c 128,-1,38
 772 734 772 734 748.5 772 c 128,-1,39
 725 810 725 810 683.5 834 c 128,-1,40
 642 858 642 858 573 858 c 0,41,42
 552 858 552 858 520.5 849 c 128,-1,43
 489 840 489 840 463 813.5 c 128,-1,44
 437 787 437 787 425 739.5 c 128,-1,45
 413 692 413 692 429 614 c 2,46,-1
 560 0 l 1,47,-1
 269 0 l 1,48,-1
 44 1059 l 1,49,-1
 317 1059 l 1,0,-1
EndSplineSet
Substitution2: "<17001,16003> Urdu lookup 100 subtable" m
EndChar

StartChar: n
Encoding: 110 110 81
Width: 1214
GlyphClass: 2
Flags: W
LayerCount: 2
Fore
SplineSet
311 1059 m 1,0,-1
 343 911 l 1,1,-1
 349 911 l 1,2,3
 367 957 367 957 396.5 990.5 c 128,-1,4
 426 1024 426 1024 463.5 1045.5 c 128,-1,5
 501 1067 501 1067 545 1077 c 128,-1,6
 589 1087 589 1087 635 1087 c 0,7,8
 751 1087 751 1087 832.5 1055.5 c 128,-1,9
 914 1024 914 1024 970 967 c 128,-1,10
 1026 910 1026 910 1060 829.5 c 128,-1,11
 1094 749 1094 749 1115 651 c 2,12,-1
 1254 0 l 1,13,-1
 963 0 l 1,14,-1
 835 598 l 2,15,16
 821 663 821 663 801 712 c 128,-1,17
 781 761 781 761 752.5 793.5 c 128,-1,18
 724 826 724 826 685 842 c 128,-1,19
 646 858 646 858 594 858 c 0,20,21
 476 858 476 858 437.5 787 c 128,-1,22
 399 716 399 716 433 555 c 2,23,-1
 551 0 l 1,24,-1
 261 0 l 1,25,-1
 36 1059 l 1,26,-1
 311 1059 l 1,0,-1
EndSplineSet
Substitution2: "<17001,16003> Urdu lookup 100 subtable" n
EndChar

StartChar: o
Encoding: 111 111 82
Width: 1251
GlyphClass: 2
Flags: W
LayerCount: 2
Fore
SplineSet
116 528 m 256,0,1
 89 655 89 655 105.5 758 c 128,-1,2
 122 861 122 861 178 934 c 128,-1,3
 234 1007 234 1007 326.5 1047 c 128,-1,4
 419 1087 419 1087 543 1087 c 0,5,6
 668 1087 668 1087 778 1047 c 128,-1,7
 888 1007 888 1007 975 934 c 128,-1,8
 1062 861 1062 861 1123 758 c 128,-1,9
 1184 655 1184 655 1211 528 c 256,10,11
 1238 401 1238 401 1221 298.5 c 128,-1,12
 1204 196 1204 196 1147.5 123.5 c 128,-1,13
 1091 51 1091 51 998 12 c 128,-1,14
 905 -27 905 -27 780 -27 c 0,15,16
 656 -27 656 -27 546.5 12 c 128,-1,17
 437 51 437 51 350 123.5 c 128,-1,18
 263 196 263 196 203 298.5 c 128,-1,19
 143 401 143 401 116 528 c 256,0,1
406 528 m 0,20,21
 420 464 420 464 445 403.5 c 128,-1,22
 470 343 470 343 509.5 295.5 c 128,-1,23
 549 248 549 248 604.5 219 c 128,-1,24
 660 190 660 190 734 190 c 256,25,26
 808 190 808 190 851.5 219 c 128,-1,27
 895 248 895 248 914.5 295.5 c 128,-1,28
 934 343 934 343 934 403.5 c 128,-1,29
 934 464 934 464 920 528 c 0,30,31
 907 592 907 592 881.5 653 c 128,-1,32
 856 714 856 714 816 762 c 128,-1,33
 776 810 776 810 720 839 c 128,-1,34
 664 868 664 868 590 868 c 256,35,36
 516 868 516 868 473 839 c 128,-1,37
 430 810 430 810 410.5 762 c 128,-1,38
 391 714 391 714 392 653 c 128,-1,39
 393 592 393 592 406 528 c 0,20,21
EndSplineSet
Substitution2: "<17001,16003> Urdu lookup 100 subtable" o
EndChar

StartChar: p
Encoding: 112 112 83
Width: 1251
GlyphClass: 2
Flags: W
LayerCount: 2
Fore
SplineSet
311 1059 m 1,0,-1
 340 924 l 1,1,-1
 344 924 l 1,2,3
 380 1010 380 1010 452.5 1048.5 c 128,-1,4
 525 1087 525 1087 625 1087 c 0,5,6
 749 1087 749 1087 849.5 1040.5 c 128,-1,7
 950 994 950 994 1026 915.5 c 128,-1,8
 1102 837 1102 837 1152.5 734 c 128,-1,9
 1203 631 1203 631 1227 518 c 0,10,11
 1250 411 1250 411 1242 312.5 c 128,-1,12
 1234 214 1234 214 1192 138.5 c 128,-1,13
 1150 63 1150 63 1072.5 18 c 128,-1,14
 995 -27 995 -27 878 -27 c 0,15,16
 779 -27 779 -27 688.5 13 c 128,-1,17
 598 53 598 53 528 131 c 1,18,-1
 523 131 l 1,19,-1
 629 -371 l 1,20,-1
 339 -371 l 1,21,-1
 36 1059 l 1,22,-1
 311 1059 l 1,0,-1
754 190 m 0,23,24
 826 190 826 190 868 218.5 c 128,-1,25
 910 247 910 247 929.5 293.5 c 128,-1,26
 949 340 949 340 949 401 c 128,-1,27
 949 462 949 462 935 526 c 0,28,29
 922 590 922 590 895 651.5 c 128,-1,30
 868 713 868 713 827.5 761 c 128,-1,31
 787 809 787 809 732.5 838.5 c 128,-1,32
 678 868 678 868 608 868 c 0,33,34
 537 868 537 868 495 839 c 128,-1,35
 453 810 453 810 433.5 762 c 128,-1,36
 414 714 414 714 414.5 652.5 c 128,-1,37
 415 591 415 591 429 526 c 0,38,39
 443 462 443 462 469 401 c 128,-1,40
 495 340 495 340 534.5 293.5 c 128,-1,41
 574 247 574 247 629 218.5 c 128,-1,42
 684 190 684 190 754 190 c 0,23,24
EndSplineSet
Substitution2: "<17001,16003> Urdu lookup 100 subtable" p
EndChar

StartChar: q
Encoding: 113 113 84
Width: 1251
GlyphClass: 2
Flags: W
LayerCount: 2
Fore
SplineSet
1080 -371 m 1,0,-1
 973 133 l 1,1,-1
 969 133 l 1,2,3
 953 90 953 90 922.5 59.5 c 128,-1,4
 892 29 892 29 852 10 c 128,-1,5
 812 -9 812 -9 765 -18 c 128,-1,6
 718 -27 718 -27 669 -27 c 256,7,8
 620 -27 620 -27 565.5 -15 c 128,-1,9
 511 -3 511 -3 455.5 24 c 128,-1,10
 400 51 400 51 346.5 93.5 c 128,-1,11
 293 136 293 136 247 197 c 128,-1,12
 201 258 201 258 164 338.5 c 128,-1,13
 127 419 127 419 106 522 c 0,14,15
 83 631 83 631 90 733 c 128,-1,16
 97 835 97 835 139 913.5 c 128,-1,17
 181 992 181 992 260 1039.5 c 128,-1,18
 339 1087 339 1087 459 1087 c 0,19,20
 508 1087 508 1087 557 1078 c 128,-1,21
 606 1069 606 1069 652 1049 c 128,-1,22
 698 1029 698 1029 739.5 998.5 c 128,-1,23
 781 968 781 968 815 924 c 1,24,-1
 819 924 l 1,25,-1
 790 1059 l 1,26,-1
 1067 1059 l 1,27,-1
 1371 -371 l 1,28,-1
 1080 -371 l 1,0,-1
393 528 m 1,29,30
 407 464 407 464 432.5 403.5 c 128,-1,31
 458 343 458 343 497.5 295.5 c 128,-1,32
 537 248 537 248 591.5 219 c 128,-1,33
 646 190 646 190 717 190 c 256,34,35
 788 190 788 190 830.5 217.5 c 128,-1,36
 873 245 873 245 893 291.5 c 128,-1,37
 913 338 913 338 913.5 398.5 c 128,-1,38
 914 459 914 459 900 524 c 0,39,40
 887 586 887 586 861 647 c 128,-1,41
 835 708 835 708 795 757.5 c 128,-1,42
 755 807 755 807 701.5 837.5 c 128,-1,43
 648 868 648 868 579 868 c 0,44,45
 508 868 508 868 465 839 c 128,-1,46
 422 810 422 810 401.5 762.5 c 128,-1,47
 381 715 381 715 380.5 654 c 128,-1,48
 380 593 380 593 393 528 c 1,29,30
EndSplineSet
Substitution2: "<17001,16003> Urdu lookup 100 subtable" q
EndChar

StartChar: r
Encoding: 114 114 85
Width: 797
GlyphClass: 2
Flags: W
LayerCount: 2
Fore
SplineSet
311 1059 m 1,0,-1
 353 862 l 1,1,-1
 357 862 l 1,2,3
 367 912 367 912 393.5 953.5 c 128,-1,4
 420 995 420 995 458 1024.5 c 128,-1,5
 496 1054 496 1054 544.5 1070.5 c 128,-1,6
 593 1087 593 1087 647 1087 c 0,7,8
 661 1087 661 1087 678 1084.5 c 128,-1,9
 695 1082 695 1082 714 1077 c 1,10,-1
 771 807 l 1,11,12
 750 812 750 812 720 814.5 c 128,-1,13
 690 817 690 817 664 817 c 0,14,15
 583 817 583 817 534 790.5 c 128,-1,16
 485 764 485 764 461 718 c 128,-1,17
 437 672 437 672 435.5 610 c 128,-1,18
 434 548 434 548 449 477 c 2,19,-1
 551 0 l 1,20,-1
 261 0 l 1,21,-1
 36 1059 l 1,22,-1
 311 1059 l 1,0,-1
EndSplineSet
Substitution2: "<17001,16003> Urdu lookup 100 subtable" r
EndChar

StartChar: s
Encoding: 115 115 86
Width: 1100
GlyphClass: 2
Flags: W
LayerCount: 2
Fore
SplineSet
412 344 m 1,0,1
 422 297 422 297 448 263.5 c 128,-1,2
 474 230 474 230 510 208 c 128,-1,3
 546 186 546 186 588.5 176 c 128,-1,4
 631 166 631 166 673 166 c 0,5,6
 704 166 704 166 736 173 c 128,-1,7
 768 180 768 180 793 195.5 c 128,-1,8
 818 211 818 211 831 237 c 128,-1,9
 844 263 844 263 836 301 c 0,10,11
 829 334 829 334 801.5 357.5 c 128,-1,12
 774 381 774 381 727.5 399.5 c 128,-1,13
 681 418 681 418 616.5 433.5 c 128,-1,14
 552 449 552 449 471 465 c 1,15,16
 404 480 404 480 339.5 499.5 c 128,-1,17
 275 519 275 519 221.5 550.5 c 128,-1,18
 168 582 168 582 129.5 629.5 c 128,-1,19
 91 677 91 677 76 748 c 0,20,21
 62 816 62 816 69 867 c 128,-1,22
 76 918 76 918 100 956 c 128,-1,23
 124 994 124 994 162.5 1019 c 128,-1,24
 201 1044 201 1044 248.5 1059 c 128,-1,25
 296 1074 296 1074 351 1080.5 c 128,-1,26
 406 1087 406 1087 463 1087 c 0,27,28
 549 1087 549 1087 633 1071 c 128,-1,29
 717 1055 717 1055 789 1016 c 128,-1,30
 861 977 861 977 917 912.5 c 128,-1,31
 973 848 973 848 1002 750 c 1,32,-1
 725 750 l 1,33,34
 713 792 713 792 690.5 819.5 c 128,-1,35
 668 847 668 847 638 863.5 c 128,-1,36
 608 880 608 880 572 886.5 c 128,-1,37
 536 893 536 893 497 893 c 0,38,39
 472 893 472 893 444.5 890 c 128,-1,40
 417 887 417 887 395 877 c 128,-1,41
 373 867 373 867 361 847.5 c 128,-1,42
 349 828 349 828 356 795 c 0,43,44
 364 756 364 756 397.5 731.5 c 128,-1,45
 431 707 431 707 481 691 c 128,-1,46
 531 675 531 675 593 663.5 c 128,-1,47
 655 652 655 652 719 637 c 0,48,49
 785 622 785 622 850 601.5 c 128,-1,50
 915 581 915 581 969 547.5 c 128,-1,51
 1023 514 1023 514 1062 464 c 128,-1,52
 1101 414 1101 414 1117 340 c 0,53,54
 1132 270 1132 270 1124.5 215.5 c 128,-1,55
 1117 161 1117 161 1092 120 c 128,-1,56
 1067 79 1067 79 1027 51 c 128,-1,57
 987 23 987 23 937 5.5 c 128,-1,58
 887 -12 887 -12 829.5 -19.5 c 128,-1,59
 772 -27 772 -27 712 -27 c 0,60,61
 620 -27 620 -27 528.5 -9 c 128,-1,62
 437 9 437 9 358.5 52 c 128,-1,63
 280 95 280 95 221.5 166.5 c 128,-1,64
 163 238 163 238 136 344 c 1,65,-1
 412 344 l 1,0,1
EndSplineSet
Substitution2: "<17001,16003> Urdu lookup 100 subtable" s
EndChar

StartChar: t
Encoding: 116 116 87
Width: 721
GlyphClass: 2
Flags: W
LayerCount: 2
Fore
SplineSet
616 1059 m 1,0,-1
 658 864 l 1,1,-1
 445 864 l 1,2,-1
 556 340 l 2,3,4
 564 303 564 303 574.5 279.5 c 128,-1,5
 585 256 585 256 601.5 242 c 128,-1,6
 618 228 618 228 643 222.5 c 128,-1,7
 668 217 668 217 705 217 c 0,8,9
 730 217 730 217 752.5 218.5 c 128,-1,10
 775 220 775 220 794 225 c 1,11,-1
 842 0 l 1,12,13
 806 -6 806 -6 762 -8 c 128,-1,14
 718 -10 718 -10 674 -10 c 0,15,16
 607 -10 607 -10 544 -1 c 128,-1,17
 481 8 481 8 429.5 35 c 128,-1,18
 378 62 378 62 340.5 111 c 128,-1,19
 303 160 303 160 286 240 c 2,20,-1
 154 864 l 1,21,-1
 -21 864 l 1,22,-1
 -63 1059 l 1,23,-1
 113 1059 l 1,24,-1
 46 1376 l 1,25,-1
 336 1376 l 1,26,-1
 403 1059 l 1,27,-1
 616 1059 l 1,0,-1
EndSplineSet
Substitution2: "<17001,16003> Urdu lookup 100 subtable" t
EndChar

StartChar: u
Encoding: 117 117 88
Width: 1214
GlyphClass: 2
Flags: W
LayerCount: 2
Fore
SplineSet
977 0 m 1,0,-1
 945 147 l 1,1,-1
 939 147 l 1,2,3
 921 101 921 101 891.5 68 c 128,-1,4
 862 35 862 35 824.5 14 c 128,-1,5
 787 -7 787 -7 743 -17 c 128,-1,6
 699 -27 699 -27 653 -27 c 0,7,8
 537 -27 537 -27 455.5 3.5 c 128,-1,9
 374 34 374 34 318.5 91 c 128,-1,10
 263 148 263 148 229 228.5 c 128,-1,11
 195 309 195 309 174 408 c 2,12,-1
 36 1059 l 1,13,-1
 325 1059 l 1,14,-1
 453 461 l 2,15,16
 480 331 480 331 535.5 266 c 128,-1,17
 591 201 591 201 695 201 c 0,18,19
 754 201 754 201 793 218 c 128,-1,20
 832 235 832 235 851.5 272 c 128,-1,21
 871 309 871 309 871.5 366 c 128,-1,22
 872 423 872 423 855 504 c 2,23,-1
 737 1059 l 1,24,-1
 1028 1059 l 1,25,-1
 1254 0 l 1,26,-1
 977 0 l 1,0,-1
EndSplineSet
Substitution2: "<17001,16003> Urdu lookup 100 subtable" u
EndChar

StartChar: v
Encoding: 118 118 89
Width: 1065
GlyphClass: 2
Flags: W
LayerCount: 2
Fore
SplineSet
523 0 m 1,0,-1
 -65 1059 l 1,1,-1
 239 1059 l 1,2,-1
 617 336 l 1,3,-1
 621 336 l 1,4,-1
 690 1059 l 1,5,-1
 979 1059 l 1,6,-1
 846 0 l 1,7,-1
 523 0 l 1,0,-1
EndSplineSet
Substitution2: "<17001,16003> Urdu lookup 100 subtable" v
EndChar

StartChar: w
Encoding: 119 119 90
Width: 1667
GlyphClass: 2
Flags: W
LayerCount: 2
Fore
SplineSet
1172 0 m 1,0,-1
 832 711 l 1,1,-1
 827 711 l 1,2,-1
 799 0 l 1,3,-1
 498 0 l 1,4,-1
 -63 1059 l 1,5,-1
 243 1059 l 1,6,-1
 591 340 l 1,7,-1
 595 340 l 1,8,-1
 618 1059 l 1,9,-1
 901 1059 l 1,10,-1
 1234 342 l 1,11,-1
 1238 342 l 1,12,-1
 1280 1059 l 1,13,-1
 1579 1059 l 1,14,-1
 1471 0 l 1,15,-1
 1172 0 l 1,0,-1
EndSplineSet
Substitution2: "<17001,16003> Urdu lookup 100 subtable" w
EndChar

StartChar: x
Encoding: 120 120 91
Width: 1100
GlyphClass: 2
Flags: W
LayerCount: 2
Fore
SplineSet
-42 1059 m 1,0,-1
 289 1059 l 1,1,-1
 534 782 l 1,2,-1
 659 1059 l 1,3,-1
 981 1059 l 1,4,-1
 739 563 l 1,5,-1
 1250 0 l 1,6,-1
 918 0 l 1,7,-1
 626 334 l 1,8,-1
 476 0 l 1,9,-1
 150 0 l 1,10,-1
 412 557 l 1,11,-1
 -42 1059 l 1,0,-1
EndSplineSet
Substitution2: "<17001,16003> Urdu lookup 100 subtable" x
EndChar

StartChar: y
Encoding: 121 121 92
Width: 1063
GlyphClass: 2
Flags: W
LayerCount: 2
Fore
SplineSet
810 -131 m 2,0,1
 800 -196 800 -196 777.5 -241.5 c 128,-1,2
 755 -287 755 -287 717.5 -315.5 c 128,-1,3
 680 -344 680 -344 625.5 -357.5 c 128,-1,4
 571 -371 571 -371 496 -371 c 0,5,6
 451 -371 451 -371 407 -368 c 128,-1,7
 363 -365 363 -365 316 -360 c 1,8,-1
 265 -121 l 1,9,10
 307 -126 307 -126 351 -129.5 c 128,-1,11
 395 -133 395 -133 437 -131 c 1,12,13
 465 -128 465 -128 484 -116 c 128,-1,14
 503 -104 503 -104 513 -86 c 128,-1,15
 523 -68 523 -68 525.5 -46 c 128,-1,16
 528 -24 528 -24 523 0 c 0,17,18
 515 36 515 36 495 66 c 1,19,-1
 -85 1059 l 1,20,-1
 223 1059 l 1,21,-1
 618 334 l 1,22,-1
 622 334 l 1,23,-1
 698 1059 l 1,24,-1
 999 1059 l 1,25,-1
 810 -131 l 2,0,1
EndSplineSet
Substitution2: "<17001,16003> Urdu lookup 100 subtable" y
EndChar

StartChar: z
Encoding: 122 122 93
Width: 1063
GlyphClass: 2
Flags: W
LayerCount: 2
Fore
SplineSet
567 840 m 1,0,-1
 58 840 l 1,1,-1
 11 1059 l 1,2,-1
 903 1059 l 1,3,-1
 950 840 l 1,4,-1
 531 219 l 1,5,-1
 1121 219 l 1,6,-1
 1168 0 l 1,7,-1
 195 0 l 1,8,-1
 149 219 l 1,9,-1
 567 840 l 1,0,-1
EndSplineSet
Substitution2: "<17001,16003> Urdu lookup 100 subtable" z
EndChar

StartChar: braceleft
Encoding: 123 123 94
Width: 798
GlyphClass: 2
Flags: W
LayerCount: 2
Fore
SplineSet
636 1268 m 2,0,1
 599 1268 599 1268 577.5 1254 c 128,-1,2
 556 1240 556 1240 544.5 1218 c 128,-1,3
 533 1196 533 1196 529.5 1169.5 c 128,-1,4
 526 1143 526 1143 526 1118 c 2,5,-1
 526 807 l 2,6,7
 526 732 526 732 502.5 685.5 c 128,-1,8
 479 639 479 639 446.5 613 c 128,-1,9
 414 587 414 587 379.5 577 c 128,-1,10
 345 567 345 567 323 565 c 1,11,-1
 323 559 l 1,12,13
 345 557 345 557 379.5 545.5 c 128,-1,14
 414 534 414 534 446.5 508.5 c 128,-1,15
 479 483 479 483 502.5 441 c 128,-1,16
 526 399 526 399 526 334 c 2,17,-1
 526 6 l 2,18,19
 526 -17 526 -17 529.5 -43 c 128,-1,20
 533 -69 533 -69 544.5 -90.5 c 128,-1,21
 556 -112 556 -112 577.5 -126.5 c 128,-1,22
 599 -141 599 -141 636 -141 c 2,23,-1
 747 -141 l 1,24,-1
 747 -371 l 1,25,-1
 487 -371 l 2,26,27
 453 -371 453 -371 409 -354 c 128,-1,28
 365 -337 365 -337 326.5 -302.5 c 128,-1,29
 288 -268 288 -268 261.5 -216 c 128,-1,30
 235 -164 235 -164 235 -94 c 2,31,-1
 235 303 l 2,32,33
 235 350 235 350 214.5 382.5 c 128,-1,34
 194 415 194 415 165 435 c 128,-1,35
 136 455 136 455 104.5 464 c 128,-1,36
 73 473 73 473 50 473 c 1,37,-1
 50 651 l 1,38,39
 73 651 73 651 104.5 660 c 128,-1,40
 136 669 136 669 165 691 c 128,-1,41
 194 713 194 713 214.5 748.5 c 128,-1,42
 235 784 235 784 235 836 c 2,43,-1
 236 1221 l 2,44,45
 236 1291 236 1291 262.5 1342.5 c 128,-1,46
 289 1394 289 1394 327 1428.5 c 128,-1,47
 365 1463 365 1463 409 1480 c 128,-1,48
 453 1497 453 1497 487 1497 c 2,49,-1
 747 1497 l 1,50,-1
 747 1268 l 1,51,-1
 636 1268 l 2,0,1
EndSplineSet
Substitution2: "<17001,16003> Urdu lookup 100 subtable" braceleft
EndChar

StartChar: bar
Encoding: 124 124 95
Width: 457
GlyphClass: 2
Flags: W
LayerCount: 2
Fore
SplineSet
338 1610 m 1,0,-1
 337 -436 l 1,1,-1
 118 -436 l 1,2,-1
 119 1610 l 1,3,-1
 338 1610 l 1,0,-1
EndSplineSet
Substitution2: "<17001,16003> Urdu lookup 100 subtable" bar
EndChar

StartChar: braceright
Encoding: 125 125 96
Width: 850
GlyphClass: 2
Flags: W
LayerCount: 2
Fore
SplineSet
110 -141 m 2,0,1
 147 -141 147 -141 168.5 -126.5 c 128,-1,2
 190 -112 190 -112 201.5 -90.5 c 128,-1,3
 213 -69 213 -69 216.5 -43 c 128,-1,4
 220 -17 220 -17 220 6 c 2,5,-1
 220 334 l 2,6,7
 220 399 220 399 243.5 441 c 128,-1,8
 267 483 267 483 299.5 508.5 c 128,-1,9
 332 534 332 534 366.5 545.5 c 128,-1,10
 401 557 401 557 423 559 c 1,11,-1
 423 565 l 1,12,13
 401 567 401 567 366.5 577 c 128,-1,14
 332 587 332 587 299.5 613 c 128,-1,15
 267 639 267 639 243.5 685.5 c 128,-1,16
 220 732 220 732 220 807 c 2,17,-1
 221 1118 l 2,18,19
 221 1143 221 1143 217.5 1169.5 c 128,-1,20
 214 1196 214 1196 202.5 1218 c 128,-1,21
 191 1240 191 1240 169.5 1254 c 128,-1,22
 148 1268 148 1268 111 1268 c 2,23,-1
 0 1268 l 1,24,-1
 0 1497 l 1,25,-1
 260 1497 l 2,26,27
 294 1497 294 1497 337.5 1480 c 128,-1,28
 381 1463 381 1463 419.5 1428.5 c 128,-1,29
 458 1394 458 1394 484.5 1342.5 c 128,-1,30
 511 1291 511 1291 511 1221 c 2,31,-1
 511 836 l 2,32,33
 511 784 511 784 531 748.5 c 128,-1,34
 551 713 551 713 580.5 691 c 128,-1,35
 610 669 610 669 642.5 660 c 128,-1,36
 675 651 675 651 699 651 c 1,37,-1
 699 473 l 1,38,39
 675 473 675 473 642.5 464 c 128,-1,40
 610 455 610 455 580.5 435 c 128,-1,41
 551 415 551 415 531 382.5 c 128,-1,42
 511 350 511 350 511 303 c 2,43,-1
 511 -94 l 2,44,45
 511 -164 511 -164 484.5 -216 c 128,-1,46
 458 -268 458 -268 419.5 -302.5 c 128,-1,47
 381 -337 381 -337 337.5 -354 c 128,-1,48
 294 -371 294 -371 259 -371 c 2,49,-1
 0 -371 l 1,50,-1
 0 -141 l 1,51,-1
 110 -141 l 2,0,1
EndSplineSet
Substitution2: "<17001,16003> Urdu lookup 100 subtable" braceright
EndChar

StartChar: asciitilde
Encoding: 126 126 97
Width: 1229
GlyphClass: 2
Flags: W
LayerCount: 2
Fore
SplineSet
1132 514 m 1,0,1
 1117 481 1117 481 1098.5 449.5 c 128,-1,2
 1080 418 1080 418 1055 393 c 128,-1,3
 1030 368 1030 368 996 353 c 128,-1,4
 962 338 962 338 914 338 c 0,5,6
 857 338 857 338 802 357.5 c 128,-1,7
 747 377 747 377 690 406 c 0,8,9
 634 435 634 435 572.5 456 c 128,-1,10
 511 477 511 477 439 477 c 0,11,12
 405 477 405 477 381.5 464 c 128,-1,13
 358 451 358 451 341.5 430 c 128,-1,14
 325 409 325 409 315 383 c 128,-1,15
 305 357 305 357 298 330 c 1,16,-1
 176 520 l 1,17,18
 185 553 185 553 201 584.5 c 128,-1,19
 217 616 217 616 243 641 c 128,-1,20
 269 666 269 666 306.5 681 c 128,-1,21
 344 696 344 696 395 696 c 0,22,23
 449 696 449 696 509.5 676.5 c 128,-1,24
 570 657 570 657 636 631 c 0,25,26
 667 619 667 619 698 605.5 c 128,-1,27
 729 592 729 592 758 581.5 c 128,-1,28
 787 571 787 571 813 564 c 128,-1,29
 839 557 839 557 860 557 c 0,30,31
 892 557 892 557 914.5 570 c 128,-1,32
 937 583 937 583 954 604 c 128,-1,33
 971 625 971 625 984 651.5 c 128,-1,34
 997 678 997 678 1010 705 c 1,35,-1
 1132 514 l 1,0,1
EndSplineSet
Substitution2: "<17001,16003> Urdu lookup 100 subtable" asciitilde
EndChar

StartChar: exclamdown
Encoding: 161 161 99
Width: 554
GlyphClass: 2
Flags: W
LayerCount: 2
Fore
SplineSet
177 581 m 0,0,1
 171 608 171 608 175.5 631 c 128,-1,2
 180 654 180 654 193.5 671.5 c 128,-1,3
 207 689 207 689 228 699 c 128,-1,4
 249 709 249 709 275 709 c 0,5,6
 398 709 398 709 427 581 c 1,7,8
 454 457 454 457 329 457 c 0,9,10
 303 457 303 457 278 466.5 c 128,-1,11
 253 476 253 476 232.5 493 c 128,-1,12
 212 510 212 510 197.5 532.5 c 128,-1,13
 183 555 183 555 177 581 c 0,0,1
366 -291 m 0,14,15
 360 -263 360 -263 355 -216 c 128,-1,16
 350 -169 350 -169 345 -117 c 1,17,18
 345 -104 345 -104 343 -91 c 128,-1,19
 341 -78 341 -78 340 -65 c 0,20,21
 340 -58 340 -58 339 -55 c 0,22,23
 339 -53 339 -53 337.5 -49 c 128,-1,24
 336 -45 336 -45 336 -40 c 0,25,26
 336 -39 336 -39 336.5 -38 c 128,-1,27
 337 -37 337 -37 336 -35 c 0,28,29
 334 -27 334 -27 336 -24 c 1,30,-1
 334 -15 l 1,31,32
 335 -12 335 -12 335 -5 c 2,33,-1
 335 0 l 1,34,-1
 333 5 l 2,35,36
 333 6 333 6 333.5 6.5 c 128,-1,37
 334 7 334 7 334 9 c 0,38,39
 333 12 333 12 333 14 c 128,-1,40
 333 16 333 16 332 19 c 0,41,42
 331 23 331 23 331.5 25 c 128,-1,43
 332 27 332 27 332 29 c 1,44,-1
 333 28 l 1,45,46
 331 49 331 49 329.5 63.5 c 128,-1,47
 328 78 328 78 327 82 c 0,48,49
 325 90 325 90 323 114.5 c 128,-1,50
 321 139 321 139 319.5 171 c 128,-1,51
 318 203 318 203 318.5 237.5 c 128,-1,52
 319 272 319 272 321.5 301.5 c 128,-1,53
 324 331 324 331 330.5 350 c 128,-1,54
 337 369 337 369 348 369 c 0,55,56
 362 369 362 369 379.5 347.5 c 128,-1,57
 397 326 397 326 415.5 287.5 c 128,-1,58
 434 249 434 249 454 197 c 128,-1,59
 474 145 474 145 493 83 c 0,60,61
 496 72 496 72 503 52 c 128,-1,62
 510 32 510 32 521 8 c 1,63,-1
 522 3 l 2,64,65
 523 0 523 0 523.5 -0.5 c 128,-1,66
 524 -1 524 -1 524 -2 c 0,67,68
 526 -10 526 -10 527 -11 c 0,69,70
 539 -46 539 -46 552.5 -86 c 128,-1,71
 566 -126 566 -126 578 -164.5 c 128,-1,72
 590 -203 590 -203 600 -237 c 128,-1,73
 610 -271 610 -271 615 -294 c 0,74,75
 654 -474 654 -474 530 -474 c 0,76,77
 407 -474 407 -474 366 -291 c 0,14,15
EndSplineSet
Substitution2: "<17001,16003> Urdu lookup 100 subtable" exclamdown
EndChar

StartChar: cent
Encoding: 162 162 100
Width: 1139
GlyphClass: 2
Flags: W
LayerCount: 2
Fore
SplineSet
531 866 m 1,0,1
 476 851 476 851 438 818.5 c 128,-1,2
 400 786 400 786 377 742 c 128,-1,3
 354 698 354 698 343.5 646 c 128,-1,4
 333 594 333 594 333 541 c 0,5,6
 333 486 333 486 342.5 431 c 128,-1,7
 352 376 352 376 375 329 c 128,-1,8
 398 282 398 282 436 245.5 c 128,-1,9
 474 209 474 209 531 190 c 1,10,-1
 531 866 l 1,0,1
531 -27 m 1,11,12
 421 -21 421 -21 331 23.5 c 128,-1,13
 241 68 241 68 177 140.5 c 128,-1,14
 113 213 113 213 78 308.5 c 128,-1,15
 43 404 43 404 43 512 c 0,16,17
 43 629 43 629 75 729.5 c 128,-1,18
 107 830 107 830 168.5 906.5 c 128,-1,19
 230 983 230 983 321.5 1030 c 128,-1,20
 413 1077 413 1077 531 1087 c 1,21,-1
 531 1262 l 1,22,-1
 652 1262 l 1,23,-1
 652 1087 l 1,24,25
 737 1087 737 1087 818 1058.5 c 128,-1,26
 899 1030 899 1030 962.5 977.5 c 128,-1,27
 1026 925 1026 925 1066.5 850.5 c 128,-1,28
 1107 776 1107 776 1111 684 c 1,29,-1
 826 684 l 1,30,31
 823 721 823 721 808.5 753 c 128,-1,32
 794 785 794 785 770.5 809.5 c 128,-1,33
 747 834 747 834 717 849.5 c 128,-1,34
 687 865 687 865 652 868 c 1,35,-1
 652 190 l 1,36,37
 689 196 689 196 721.5 217.5 c 128,-1,38
 754 239 754 239 778 270 c 128,-1,39
 802 301 802 301 816 339 c 128,-1,40
 830 377 830 377 830 416 c 1,41,-1
 1115 416 l 1,42,43
 1107 317 1107 317 1069 238.5 c 128,-1,44
 1031 160 1031 160 970 104 c 128,-1,45
 909 48 909 48 828 15 c 128,-1,46
 747 -18 747 -18 652 -27 c 1,47,-1
 652 -233 l 1,48,-1
 531 -233 l 1,49,-1
 531 -27 l 1,11,12
EndSplineSet
Substitution2: "<17001,16003> Urdu lookup 100 subtable" cent
EndChar

StartChar: sterling
Encoding: 163 163 101
Width: 1139
GlyphClass: 2
Flags: W
LayerCount: 2
Fore
SplineSet
52 156 m 1,0,1
 95 183 95 183 136.5 218.5 c 128,-1,2
 178 254 178 254 211 297 c 128,-1,3
 244 340 244 340 264 390.5 c 128,-1,4
 284 441 284 441 284 496 c 0,5,6
 284 531 284 531 273 564.5 c 128,-1,7
 262 598 262 598 245 633 c 1,8,-1
 43 633 l 1,9,-1
 43 807 l 1,10,-1
 173 807 l 1,11,12
 158 826 158 826 142 855.5 c 128,-1,13
 126 885 126 885 112.5 921.5 c 128,-1,14
 99 958 99 958 90.5 1001 c 128,-1,15
 82 1044 82 1044 82 1090 c 0,16,17
 82 1172 82 1172 115.5 1246 c 128,-1,18
 149 1320 149 1320 215 1375.5 c 128,-1,19
 281 1431 281 1431 378.5 1464 c 128,-1,20
 476 1497 476 1497 605 1497 c 0,21,22
 723 1497 723 1497 815.5 1464 c 128,-1,23
 908 1431 908 1431 972 1366.5 c 128,-1,24
 1036 1302 1036 1302 1069.5 1206 c 128,-1,25
 1103 1110 1103 1110 1103 985 c 1,26,-1
 826 985 l 1,27,28
 825 1005 825 1005 822 1033 c 128,-1,29
 819 1061 819 1061 811.5 1091 c 128,-1,30
 804 1121 804 1121 790 1151 c 128,-1,31
 776 1181 776 1181 751.5 1204.5 c 128,-1,32
 727 1228 727 1228 691 1242.5 c 128,-1,33
 655 1257 655 1257 603 1257 c 0,34,35
 510 1257 510 1257 456 1206.5 c 128,-1,36
 402 1156 402 1156 402 1069 c 0,37,38
 402 1045 402 1045 403.5 1022 c 128,-1,39
 405 999 405 999 413.5 969.5 c 128,-1,40
 422 940 422 940 439 901 c 128,-1,41
 456 862 456 862 486 807 c 1,42,-1
 759 807 l 1,43,-1
 759 633 l 1,44,-1
 544 633 l 1,45,46
 555 602 555 602 557.5 571.5 c 128,-1,47
 560 541 560 541 560 506 c 0,48,49
 560 458 560 458 546.5 417 c 128,-1,50
 533 376 533 376 510 341 c 128,-1,51
 487 306 487 306 456.5 276 c 128,-1,52
 426 246 426 246 392 219 c 1,53,-1
 396 215 l 1,54,55
 421 230 421 230 440.5 239.5 c 128,-1,56
 460 249 460 249 476.5 254 c 128,-1,57
 493 259 493 259 507 260.5 c 128,-1,58
 521 262 521 262 536 262 c 0,59,60
 578 262 578 262 616.5 255 c 128,-1,61
 655 248 655 248 697 240 c 1,62,63
 739 229 739 229 777 222 c 128,-1,64
 815 215 815 215 857 215 c 0,65,66
 878 215 878 215 898.5 217.5 c 128,-1,67
 919 220 919 220 940.5 229 c 128,-1,68
 962 238 962 238 986 255.5 c 128,-1,69
 1010 273 1010 273 1037 303 c 1,70,-1
 1160 96 l 1,71,72
 1124 60 1124 60 1084 35.5 c 128,-1,73
 1044 11 1044 11 1003 -4.5 c 128,-1,74
 962 -20 962 -20 921 -26.5 c 128,-1,75
 880 -33 880 -33 841 -33 c 256,76,77
 802 -33 802 -33 770 -30 c 128,-1,78
 738 -27 738 -27 711.5 -22 c 128,-1,79
 685 -17 685 -17 662 -11 c 128,-1,80
 639 -5 639 -5 617 2 c 1,81,82
 595 11 595 11 573.5 18.5 c 128,-1,83
 552 26 552 26 528 31.5 c 128,-1,84
 504 37 504 37 476.5 40 c 128,-1,85
 449 43 449 43 415 43 c 0,86,87
 359 43 359 43 299 27.5 c 128,-1,88
 239 12 239 12 179 -33 c 1,89,-1
 52 156 l 1,0,1
EndSplineSet
Substitution2: "<17001,16003> Urdu lookup 100 subtable" sterling
EndChar

StartChar: currency
Encoding: 164 164 102
Width: 1139
GlyphClass: 2
Flags: W
LayerCount: 2
Fore
SplineSet
157 424 m 1,0,1
 59 539 59 539 59 715 c 0,2,3
 59 758 59 758 65 800 c 128,-1,4
 71 842 71 842 83 880 c 128,-1,5
 95 918 95 918 114 951.5 c 128,-1,6
 133 985 133 985 158 1010 c 1,7,-1
 41 1128 l 1,8,-1
 158 1245 l 1,9,-1
 273 1130 l 1,10,11
 299 1152 299 1152 332.5 1169.5 c 128,-1,12
 366 1187 366 1187 405 1199.5 c 128,-1,13
 444 1212 444 1212 486.5 1218.5 c 128,-1,14
 529 1225 529 1225 572 1225 c 0,15,16
 613 1225 613 1225 653 1218.5 c 128,-1,17
 693 1212 693 1212 729.5 1200 c 128,-1,18
 766 1188 766 1188 797.5 1171 c 128,-1,19
 829 1154 829 1154 853 1133 c 1,20,-1
 972 1249 l 1,21,-1
 1097 1124 l 1,22,-1
 982 1012 l 1,23,24
 1027 962 1027 962 1050.5 884 c 128,-1,25
 1074 806 1074 806 1074 719 c 256,26,27
 1074 632 1074 632 1051 554.5 c 128,-1,28
 1028 477 1028 477 980 420 c 1,29,-1
 1093 305 l 1,30,-1
 980 193 l 1,31,-1
 863 311 l 1,32,33
 812 262 812 262 734.5 235.5 c 128,-1,34
 657 209 657 209 570 209 c 0,35,36
 478 209 478 209 400.5 234.5 c 128,-1,37
 323 260 323 260 269 309 c 1,38,-1
 155 190 l 1,39,-1
 41 305 l 1,40,-1
 157 424 l 1,0,1
572 1006 m 0,41,42
 508 1006 508 1006 459 982 c 128,-1,43
 410 958 410 958 377.5 917.5 c 128,-1,44
 345 877 345 877 328.5 824.5 c 128,-1,45
 312 772 312 772 312 715 c 0,46,47
 312 659 312 659 328.5 607 c 128,-1,48
 345 555 345 555 377.5 515.5 c 128,-1,49
 410 476 410 476 458 452 c 128,-1,50
 506 428 506 428 570 428 c 256,51,52
 634 428 634 428 681 452.5 c 128,-1,53
 728 477 728 477 759 518 c 128,-1,54
 790 559 790 559 805 611.5 c 128,-1,55
 820 664 820 664 820 719 c 0,56,57
 820 773 820 773 804.5 824.5 c 128,-1,58
 789 876 789 876 758 916.5 c 128,-1,59
 727 957 727 957 680.5 981.5 c 128,-1,60
 634 1006 634 1006 572 1006 c 0,41,42
EndSplineSet
Substitution2: "<17001,16003> Urdu lookup 100 subtable" currency
EndChar

StartChar: yen
Encoding: 165 165 103
Width: 1139
GlyphClass: 2
Flags: W
LayerCount: 2
Fore
SplineSet
423 283 m 1,0,-1
 101 283 l 1,1,-1
 101 477 l 1,2,-1
 423 477 l 1,3,-1
 423 571 l 1,4,-1
 394 631 l 1,5,-1
 102 631 l 1,6,-1
 102 825 l 1,7,-1
 296 825 l 1,8,-1
 -15 1462 l 1,9,-1
 314 1462 l 1,10,-1
 585 825 l 1,11,-1
 849 1462 l 1,12,-1
 1181 1462 l 1,13,-1
 863 825 l 1,14,-1
 1058 825 l 1,15,-1
 1058 631 l 1,16,-1
 765 631 l 1,17,-1
 734 571 l 1,18,-1
 734 477 l 1,19,-1
 1058 477 l 1,20,-1
 1058 283 l 1,21,-1
 734 283 l 1,22,-1
 735 0 l 1,23,-1
 424 0 l 1,24,-1
 423 283 l 1,0,-1
EndSplineSet
Substitution2: "<17001,16003> Urdu lookup 100 subtable" yen
EndChar

StartChar: brokenbar
Encoding: 166 166 104
Width: 457
GlyphClass: 2
Flags: W
LayerCount: 2
Fore
SplineSet
337 330 m 1,0,-1
 337 -180 l 1,1,-1
 118 -180 l 1,2,-1
 118 330 l 1,3,-1
 337 330 l 1,0,-1
119 842 m 1,4,-1
 119 1354 l 1,5,-1
 337 1354 l 1,6,-1
 337 842 l 1,7,-1
 119 842 l 1,4,-1
EndSplineSet
Substitution2: "<17001,16003> Urdu lookup 100 subtable" brokenbar
EndChar

StartChar: section
Encoding: 167 167 105
Width: 1139
GlyphClass: 2
Flags: W
LayerCount: 2
Fore
SplineSet
433 778 m 2,0,1
 421 784 421 784 408 792.5 c 128,-1,2
 395 801 395 801 378 799 c 0,3,4
 356 797 356 797 336.5 783.5 c 128,-1,5
 317 770 317 770 303 750.5 c 128,-1,6
 289 731 289 731 281 707.5 c 128,-1,7
 273 684 273 684 273 662 c 0,8,9
 273 633 273 633 288.5 606.5 c 128,-1,10
 304 580 304 580 339 561 c 2,11,-1
 708 360 l 2,12,13
 719 355 719 355 734.5 350.5 c 128,-1,14
 750 346 750 346 769 346 c 0,15,16
 790 346 790 346 807 357.5 c 128,-1,17
 824 369 824 369 836.5 386.5 c 128,-1,18
 849 404 849 404 856 423.5 c 128,-1,19
 863 443 863 443 863 459 c 0,20,21
 863 506 863 506 835.5 537 c 128,-1,22
 808 568 808 568 771 588 c 2,23,-1
 433 778 l 2,0,1
757 1102 m 1,24,25
 757 1140 757 1140 745 1172 c 128,-1,26
 733 1204 733 1204 710.5 1227.5 c 128,-1,27
 688 1251 688 1251 656 1264.5 c 128,-1,28
 624 1278 624 1278 583 1278 c 0,29,30
 555 1278 555 1278 527.5 1269 c 128,-1,31
 500 1260 500 1260 477.5 1243 c 128,-1,32
 455 1226 455 1226 441 1202 c 128,-1,33
 427 1178 427 1178 427 1147 c 1,34,35
 429 1104 429 1104 459 1070 c 128,-1,36
 489 1036 489 1036 538 1006 c 128,-1,37
 587 976 587 976 649 948 c 128,-1,38
 711 920 711 920 775 889 c 128,-1,39
 839 858 839 858 900.5 822.5 c 128,-1,40
 962 787 962 787 1010 742 c 128,-1,41
 1058 697 1058 697 1087.5 640.5 c 128,-1,42
 1117 584 1117 584 1117 512 c 0,43,44
 1117 460 1117 460 1102 413.5 c 128,-1,45
 1087 367 1087 367 1059.5 328 c 128,-1,46
 1032 289 1032 289 992.5 260 c 128,-1,47
 953 231 953 231 904 213 c 1,48,49
 964 168 964 168 990.5 107 c 128,-1,50
 1017 46 1017 46 1017 -27 c 0,51,52
 1017 -113 1017 -113 978 -177.5 c 128,-1,53
 939 -242 939 -242 876.5 -285 c 128,-1,54
 814 -328 814 -328 736 -349.5 c 128,-1,55
 658 -371 658 -371 581 -371 c 0,56,57
 482 -371 482 -371 398 -347.5 c 128,-1,58
 314 -324 314 -324 252 -275.5 c 128,-1,59
 190 -227 190 -227 155 -152 c 128,-1,60
 120 -77 120 -77 120 25 c 1,61,-1
 374 25 l 1,62,63
 379 -63 379 -63 430.5 -107.5 c 128,-1,64
 482 -152 482 -152 574 -152 c 0,65,66
 606 -152 606 -152 633.5 -143.5 c 128,-1,67
 661 -135 661 -135 681.5 -118 c 128,-1,68
 702 -101 702 -101 714 -75.5 c 128,-1,69
 726 -50 726 -50 726 -16 c 1,70,71
 728 28 728 28 698.5 63 c 128,-1,72
 669 98 669 98 620 128.5 c 128,-1,73
 571 159 571 159 507.5 187.5 c 128,-1,74
 444 216 444 216 377.5 247 c 128,-1,75
 311 278 311 278 247 314.5 c 128,-1,76
 183 351 183 351 133 397.5 c 128,-1,77
 83 444 83 444 52 502.5 c 128,-1,78
 21 561 21 561 20 637 c 1,79,80
 20 748 20 748 77 823.5 c 128,-1,81
 134 899 134 899 239 936 c 1,82,83
 196 983 196 983 174 1030 c 128,-1,84
 152 1077 152 1077 152 1143 c 0,85,86
 152 1230 152 1230 189.5 1296 c 128,-1,87
 227 1362 227 1362 288 1406.5 c 128,-1,88
 349 1451 349 1451 425 1474 c 128,-1,89
 501 1497 501 1497 579 1497 c 0,90,91
 669 1497 669 1497 747.5 1471 c 128,-1,92
 826 1445 826 1445 884.5 1395 c 128,-1,93
 943 1345 943 1345 977 1271 c 128,-1,94
 1011 1197 1011 1197 1011 1102 c 1,95,-1
 757 1102 l 1,24,25
EndSplineSet
Substitution2: "<17001,16003> Urdu lookup 100 subtable" section
EndChar

StartChar: dieresis
Encoding: 168 168 106
Width: 530
GlyphClass: 2
Flags: W
LayerCount: 2
Fore
SplineSet
453 1462 m 1,0,-1
 504 1223 l 1,1,-1
 228 1223 l 1,2,-1
 177 1462 l 1,3,-1
 453 1462 l 1,0,-1
33 1462 m 1,4,-1
 84 1223 l 1,5,-1
 -191 1223 l 1,6,-1
 -242 1462 l 1,7,-1
 33 1462 l 1,4,-1
EndSplineSet
Substitution2: "<17001,16003> Urdu lookup 100 subtable" dieresis
EndChar

StartChar: copyright
Encoding: 169 169 107
Width: 1638
GlyphClass: 2
Flags: W
LayerCount: 2
Fore
SplineSet
33 731 m 256,0,1
 33 848 33 848 62.5 950 c 128,-1,2
 92 1052 92 1052 144.5 1137 c 128,-1,3
 197 1222 197 1222 269.5 1289 c 128,-1,4
 342 1356 342 1356 429.5 1402 c 128,-1,5
 517 1448 517 1448 615.5 1472.5 c 128,-1,6
 714 1497 714 1497 818 1497 c 256,7,8
 922 1497 922 1497 1020.5 1472.5 c 128,-1,9
 1119 1448 1119 1448 1206.5 1402 c 128,-1,10
 1294 1356 1294 1356 1367.5 1289 c 128,-1,11
 1441 1222 1441 1222 1493.5 1137 c 128,-1,12
 1546 1052 1546 1052 1575.5 950 c 128,-1,13
 1605 848 1605 848 1605 731 c 256,14,15
 1605 614 1605 614 1575.5 512 c 128,-1,16
 1546 410 1546 410 1493.5 325 c 128,-1,17
 1441 240 1441 240 1367.5 173.5 c 128,-1,18
 1294 107 1294 107 1206.5 61 c 128,-1,19
 1119 15 1119 15 1020.5 -9 c 128,-1,20
 922 -33 922 -33 818 -33 c 256,21,22
 714 -33 714 -33 615.5 -9 c 128,-1,23
 517 15 517 15 429.5 61 c 128,-1,24
 342 107 342 107 269.5 173.5 c 128,-1,25
 197 240 197 240 144.5 325 c 128,-1,26
 92 410 92 410 62.5 512 c 128,-1,27
 33 614 33 614 33 731 c 256,0,1
241 731 m 256,28,29
 241 600 241 600 286 489.5 c 128,-1,30
 331 379 331 379 409 299 c 128,-1,31
 487 219 487 219 592.5 174 c 128,-1,32
 698 129 698 129 818 129 c 0,33,34
 937 129 937 129 1042.5 174 c 128,-1,35
 1148 219 1148 219 1226.5 299 c 128,-1,36
 1305 379 1305 379 1350.5 489.5 c 128,-1,37
 1396 600 1396 600 1396 731 c 256,38,39
 1396 862 1396 862 1350.5 972.5 c 128,-1,40
 1305 1083 1305 1083 1226.5 1163 c 128,-1,41
 1148 1243 1148 1243 1042.5 1288 c 128,-1,42
 937 1333 937 1333 818 1333 c 0,43,44
 698 1333 698 1333 592.5 1288 c 128,-1,45
 487 1243 487 1243 409 1163 c 128,-1,46
 331 1083 331 1083 286 972.5 c 128,-1,47
 241 862 241 862 241 731 c 256,28,29
1220 604 m 1,48,49
 1208 527 1208 527 1173.5 467 c 128,-1,50
 1139 407 1139 407 1089.5 365.5 c 128,-1,51
 1040 324 1040 324 977.5 302.5 c 128,-1,52
 915 281 915 281 847 281 c 0,53,54
 747 281 747 281 666 316 c 128,-1,55
 585 351 585 351 527.5 412 c 128,-1,56
 470 473 470 473 438.5 556 c 128,-1,57
 407 639 407 639 407 735 c 0,58,59
 407 833 407 833 436.5 917 c 128,-1,60
 466 1001 466 1001 522.5 1062.5 c 128,-1,61
 579 1124 579 1124 660 1159 c 128,-1,62
 741 1194 741 1194 843 1194 c 0,63,64
 914 1194 914 1194 976.5 1173.5 c 128,-1,65
 1039 1153 1039 1153 1088.5 1113 c 128,-1,66
 1138 1073 1138 1073 1170.5 1013.5 c 128,-1,67
 1203 954 1203 954 1213 877 c 1,68,-1
 1054 877 l 1,69,70
 1045 913 1045 913 1026 941.5 c 128,-1,71
 1007 970 1007 970 979.5 989.5 c 128,-1,72
 952 1009 952 1009 917.5 1019.5 c 128,-1,73
 883 1030 883 1030 843 1030 c 0,74,75
 785 1030 785 1030 740 1008.5 c 128,-1,76
 695 987 695 987 664.5 949 c 128,-1,77
 634 911 634 911 618.5 857.5 c 128,-1,78
 603 804 603 804 603 739 c 0,79,80
 603 679 603 679 620.5 625.5 c 128,-1,81
 638 572 638 572 669.5 531.5 c 128,-1,82
 701 491 701 491 746.5 467.5 c 128,-1,83
 792 444 792 444 847 444 c 0,84,85
 934 444 934 444 988.5 487 c 128,-1,86
 1043 530 1043 530 1054 604 c 1,87,-1
 1220 604 l 1,48,49
EndSplineSet
Substitution2: "<17001,16003> Urdu lookup 100 subtable" copyright
EndChar

StartChar: ordfeminine
Encoding: 170 170 108
Width: 705
GlyphClass: 2
Flags: W
LayerCount: 2
Fore
SplineSet
388 1096 m 1,0,1
 378 1086 378 1086 362 1080 c 128,-1,2
 346 1074 346 1074 328 1070.5 c 128,-1,3
 310 1067 310 1067 291.5 1064.5 c 128,-1,4
 273 1062 273 1062 258 1059 c 1,5,6
 238 1053 238 1053 220 1047 c 128,-1,7
 202 1041 202 1041 190 1031.5 c 128,-1,8
 178 1022 178 1022 172.5 1009 c 128,-1,9
 167 996 167 996 171 977 c 0,10,11
 176 955 176 955 188 940.5 c 128,-1,12
 200 926 200 926 215.5 917 c 128,-1,13
 231 908 231 908 248 904.5 c 128,-1,14
 265 901 265 901 280 901 c 0,15,16
 331 901 331 901 357.5 916 c 128,-1,17
 384 931 384 931 394.5 954 c 128,-1,18
 405 977 405 977 403 1004 c 128,-1,19
 401 1031 401 1031 396 1055 c 2,20,-1
 388 1096 l 1,0,1
-72 1239 m 1,21,22
 -76 1306 -76 1306 -55.5 1349 c 128,-1,23
 -35 1392 -35 1392 2.5 1417 c 128,-1,24
 40 1442 40 1442 91 1452 c 128,-1,25
 142 1462 142 1462 199 1462 c 0,26,27
 253 1462 253 1462 309.5 1455 c 128,-1,28
 366 1448 366 1448 414 1428.5 c 128,-1,29
 462 1409 462 1409 497.5 1373.5 c 128,-1,30
 533 1338 533 1338 545 1280 c 2,31,-1
 618 940 l 2,32,33
 640 834 640 834 674 786 c 1,34,-1
 467 786 l 1,35,36
 459 803 459 803 452 818 c 128,-1,37
 445 833 445 833 440 850 c 1,38,39
 423 826 423 826 399.5 810 c 128,-1,40
 376 794 376 794 349 785 c 128,-1,41
 322 776 322 776 293 772 c 128,-1,42
 264 768 264 768 236 768 c 0,43,44
 188 768 188 768 144 779.5 c 128,-1,45
 100 791 100 791 64 816 c 128,-1,46
 28 841 28 841 2 879.5 c 128,-1,47
 -24 918 -24 918 -36 973 c 0,48,49
 -48 1030 -48 1030 -35.5 1066 c 128,-1,50
 -23 1102 -23 1102 5.5 1123.5 c 128,-1,51
 34 1145 34 1145 73.5 1155 c 128,-1,52
 113 1165 113 1165 155 1171 c 0,53,54
 200 1177 200 1177 239 1181 c 128,-1,55
 278 1185 278 1185 306 1191.5 c 128,-1,56
 334 1198 334 1198 348 1211 c 128,-1,57
 362 1224 362 1224 357 1249 c 0,58,59
 351 1276 351 1276 338 1292 c 128,-1,60
 325 1308 325 1308 306.5 1316 c 128,-1,61
 288 1324 288 1324 265.5 1326.5 c 128,-1,62
 243 1329 243 1329 217 1329 c 0,63,64
 199 1329 199 1329 183.5 1324 c 128,-1,65
 168 1319 168 1319 157 1308 c 128,-1,66
 146 1297 146 1297 140 1280 c 128,-1,67
 134 1263 134 1263 137 1239 c 1,68,-1
 -72 1239 l 1,21,22
EndSplineSet
Substitution2: "<17001,16003> Urdu lookup 100 subtable" ordfeminine
EndChar

StartChar: guillemotleft
Encoding: 171 171 109
Width: 937
GlyphClass: 2
Flags: W
LayerCount: 2
Fore
SplineSet
468 696 m 1,0,-1
 735 948 l 1,1,-1
 787 702 l 1,2,-1
 634 557 l 1,3,-1
 849 410 l 1,4,-1
 902 164 l 1,5,-1
 526 420 l 1,6,-1
 468 696 l 1,0,-1
53 696 m 1,7,-1
 320 948 l 1,8,-1
 372 702 l 1,9,-1
 218 557 l 1,10,-1
 434 410 l 1,11,-1
 487 164 l 1,12,-1
 111 420 l 1,13,-1
 53 696 l 1,7,-1
EndSplineSet
Substitution2: "<17001,16003> Urdu lookup 100 subtable" guillemotleft
EndChar

StartChar: guillemotright
Encoding: 187 187 110
Width: 937
GlyphClass: 2
Flags: W
LayerCount: 2
Fore
SplineSet
847 420 m 1,0,-1
 581 164 l 1,1,-1
 528 410 l 1,2,-1
 681 557 l 1,3,-1
 466 702 l 1,4,-1
 414 948 l 1,5,-1
 789 696 l 1,6,-1
 847 420 l 1,0,-1
432 420 m 1,7,-1
 165 164 l 1,8,-1
 113 410 l 1,9,-1
 265 557 l 1,10,-1
 51 702 l 1,11,-1
 -1 948 l 1,12,-1
 374 696 l 1,13,-1
 432 420 l 1,7,-1
EndSplineSet
Substitution2: "<17001,16003> Urdu lookup 100 subtable" guillemotright
EndChar

StartChar: logicalnot
Encoding: 172 172 111
Width: 1140
GlyphClass: 2
Flags: W
LayerCount: 2
Fore
SplineSet
866 203 m 1,0,-1
 866 612 l 1,1,-1
 54 612 l 1,2,-1
 54 831 l 1,3,-1
 1085 831 l 1,4,-1
 1085 203 l 1,5,-1
 866 203 l 1,0,-1
EndSplineSet
Substitution2: "<17001,16003> Urdu lookup 100 subtable" logicalnot
EndChar

StartChar: registered
Encoding: 174 174 112
Width: 1638
GlyphClass: 2
Flags: W
LayerCount: 2
Fore
SplineSet
33 733 m 0,0,1
 33 849 33 849 62.5 951 c 128,-1,2
 92 1053 92 1053 144.5 1138 c 128,-1,3
 197 1223 197 1223 269.5 1289.5 c 128,-1,4
 342 1356 342 1356 429.5 1402 c 128,-1,5
 517 1448 517 1448 615.5 1472.5 c 128,-1,6
 714 1497 714 1497 818 1497 c 256,7,8
 922 1497 922 1497 1020.5 1472.5 c 128,-1,9
 1119 1448 1119 1448 1206.5 1402 c 128,-1,10
 1294 1356 1294 1356 1367.5 1289.5 c 128,-1,11
 1441 1223 1441 1223 1493.5 1138 c 128,-1,12
 1546 1053 1546 1053 1575.5 951 c 128,-1,13
 1605 849 1605 849 1605 733 c 0,14,15
 1605 557 1605 557 1540.5 415.5 c 128,-1,16
 1476 274 1476 274 1367.5 174 c 128,-1,17
 1259 74 1259 74 1116.5 20.5 c 128,-1,18
 974 -33 974 -33 818 -33 c 0,19,20
 714 -33 714 -33 615.5 -9 c 128,-1,21
 517 15 517 15 429.5 61 c 128,-1,22
 342 107 342 107 269.5 174 c 128,-1,23
 197 241 197 241 144.5 326 c 128,-1,24
 92 411 92 411 62.5 513.5 c 128,-1,25
 33 616 33 616 33 733 c 0,0,1
241 733 m 256,26,27
 241 602 241 602 286 491 c 128,-1,28
 331 380 331 380 409 299.5 c 128,-1,29
 487 219 487 219 592.5 174 c 128,-1,30
 698 129 698 129 818 129 c 0,31,32
 937 129 937 129 1042.5 174 c 128,-1,33
 1148 219 1148 219 1226.5 299.5 c 128,-1,34
 1305 380 1305 380 1350.5 491 c 128,-1,35
 1396 602 1396 602 1396 733 c 256,36,37
 1396 864 1396 864 1350.5 974 c 128,-1,38
 1305 1084 1305 1084 1226.5 1163.5 c 128,-1,39
 1148 1243 1148 1243 1042.5 1288 c 128,-1,40
 937 1333 937 1333 818 1333 c 0,41,42
 698 1333 698 1333 592.5 1288 c 128,-1,43
 487 1243 487 1243 409 1163.5 c 128,-1,44
 331 1084 331 1084 286 974 c 128,-1,45
 241 864 241 864 241 733 c 256,26,27
837 1163 m 2,46,47
 918 1163 918 1163 980.5 1149.5 c 128,-1,48
 1043 1136 1043 1136 1085.5 1106 c 128,-1,49
 1128 1076 1128 1076 1150.5 1027.5 c 128,-1,50
 1173 979 1173 979 1173 909 c 0,51,52
 1173 850 1173 850 1155.5 808.5 c 128,-1,53
 1138 767 1138 767 1107 739.5 c 128,-1,54
 1076 712 1076 712 1035 698 c 128,-1,55
 994 684 994 684 947 680 c 1,56,-1
 1177 305 l 1,57,-1
 998 305 l 1,58,-1
 790 672 l 1,59,-1
 683 672 l 1,60,-1
 683 305 l 1,61,-1
 513 305 l 1,62,-1
 513 1163 l 1,63,-1
 837 1163 l 2,46,47
835 805 m 2,64,65
 872 805 872 805 902.5 809 c 128,-1,66
 933 813 933 813 955.5 825.5 c 128,-1,67
 978 838 978 838 990.5 861.5 c 128,-1,68
 1003 885 1003 885 1003 924 c 0,69,70
 1003 958 1003 958 986.5 978.5 c 128,-1,71
 970 999 970 999 944 1010.5 c 128,-1,72
 918 1022 918 1022 886.5 1026 c 128,-1,73
 855 1030 855 1030 826 1030 c 2,74,-1
 683 1030 l 1,75,-1
 683 805 l 1,76,-1
 835 805 l 2,64,65
EndSplineSet
Substitution2: "<17001,16003> Urdu lookup 100 subtable" registered
EndChar

StartChar: macron
Encoding: 175 175 113
Width: 530
GlyphClass: 2
Flags: W
LayerCount: 2
Fore
SplineSet
496 1415 m 1,0,-1
 528 1262 l 1,1,-1
 -233 1262 l 1,2,-1
 -265 1415 l 1,3,-1
 496 1415 l 1,0,-1
EndSplineSet
Substitution2: "<17001,16003> Urdu lookup 100 subtable" macron
EndChar

StartChar: degree
Encoding: 176 176 114
Width: 819
GlyphClass: 2
Flags: W
LayerCount: 2
Fore
SplineSet
10 1159 m 256,0,1
 -4 1223 -4 1223 8 1278 c 128,-1,2
 20 1333 20 1333 52.5 1374 c 128,-1,3
 85 1415 85 1415 135.5 1438.5 c 128,-1,4
 186 1462 186 1462 249 1462 c 0,5,6
 313 1462 313 1462 373 1438.5 c 128,-1,7
 433 1415 433 1415 482.5 1374 c 128,-1,8
 532 1333 532 1333 567.5 1278 c 128,-1,9
 603 1223 603 1223 616 1159 c 0,10,11
 630 1095 630 1095 618 1040 c 128,-1,12
 606 985 606 985 574 944 c 128,-1,13
 542 903 542 903 492 879.5 c 128,-1,14
 442 856 442 856 378 856 c 256,15,16
 314 856 314 856 253.5 879.5 c 128,-1,17
 193 903 193 903 143.5 944 c 128,-1,18
 94 985 94 985 59 1040 c 128,-1,19
 24 1095 24 1095 10 1159 c 256,0,1
144 1159 m 256,20,21
 152 1122 152 1122 172.5 1089.5 c 128,-1,22
 193 1057 193 1057 222 1032.5 c 128,-1,23
 251 1008 251 1008 284.5 993.5 c 128,-1,24
 318 979 318 979 351 979 c 256,25,26
 384 979 384 979 411.5 993.5 c 128,-1,27
 439 1008 439 1008 457.5 1032.5 c 128,-1,28
 476 1057 476 1057 483.5 1089.5 c 128,-1,29
 491 1122 491 1122 483 1159 c 256,30,31
 475 1196 475 1196 454 1228.5 c 128,-1,32
 433 1261 433 1261 404 1285.5 c 128,-1,33
 375 1310 375 1310 341.5 1324.5 c 128,-1,34
 308 1339 308 1339 275 1339 c 256,35,36
 242 1339 242 1339 214.5 1324.5 c 128,-1,37
 187 1310 187 1310 168.5 1285.5 c 128,-1,38
 150 1261 150 1261 143 1228.5 c 128,-1,39
 136 1196 136 1196 144 1159 c 256,20,21
EndSplineSet
Substitution2: "<17001,16003> Urdu lookup 100 subtable" degree
EndChar

StartChar: plusminus
Encoding: 177 177 115
Width: 1140
GlyphClass: 2
Flags: W
LayerCount: 2
Fore
SplineSet
1087 817 m 1,0,-1
 1087 598 l 1,1,-1
 679 598 l 1,2,-1
 679 190 l 1,3,-1
 460 190 l 1,4,-1
 460 598 l 1,5,-1
 53 598 l 1,6,-1
 53 817 l 1,7,-1
 460 817 l 1,8,-1
 460 1224 l 1,9,-1
 679 1224 l 1,10,-1
 679 817 l 1,11,-1
 1087 817 l 1,0,-1
1087 79 m 1,12,-1
 1087 -140 l 1,13,-1
 52 -140 l 1,14,-1
 52 79 l 1,15,-1
 1087 79 l 1,12,-1
EndSplineSet
Substitution2: "<17001,16003> Urdu lookup 100 subtable" plusminus
EndChar

StartChar: twosuperior
Encoding: 178 178 116
Width: 803
GlyphClass: 2
Flags: W
LayerCount: 2
Fore
SplineSet
-28 1106 m 1,0,1
 -45 1185 -45 1185 -36.5 1250.5 c 128,-1,2
 -28 1316 -28 1316 8 1363 c 128,-1,3
 44 1410 44 1410 108.5 1436 c 128,-1,4
 173 1462 173 1462 267 1462 c 0,5,6
 332 1462 332 1462 393.5 1444.5 c 128,-1,7
 455 1427 455 1427 506 1392.5 c 128,-1,8
 557 1358 557 1358 594 1306 c 128,-1,9
 631 1254 631 1254 645 1186 c 0,10,11
 659 1121 659 1121 646.5 1074 c 128,-1,12
 634 1027 634 1027 605 991 c 128,-1,13
 576 955 576 955 535.5 926 c 128,-1,14
 495 897 495 897 453 867 c 128,-1,15
 411 837 411 837 372 803 c 128,-1,16
 333 769 333 769 307 723 c 1,17,-1
 735 723 l 1,18,-1
 770 559 l 1,19,-1
 87 559 l 1,20,21
 70 640 70 640 79.5 699.5 c 128,-1,22
 89 759 89 759 118 804.5 c 128,-1,23
 147 850 147 850 191.5 887 c 128,-1,24
 236 924 236 924 287 961 c 0,25,26
 313 981 313 981 343 1001.5 c 128,-1,27
 373 1022 373 1022 397.5 1047 c 128,-1,28
 422 1072 422 1072 435 1102 c 128,-1,29
 448 1132 448 1132 440 1171 c 0,30,31
 434 1198 434 1198 420 1221 c 128,-1,32
 406 1244 406 1244 386 1261.5 c 128,-1,33
 366 1279 366 1279 341 1288.5 c 128,-1,34
 316 1298 316 1298 288 1298 c 0,35,36
 246 1298 246 1298 220.5 1279.5 c 128,-1,37
 195 1261 195 1261 183 1232.5 c 128,-1,38
 171 1204 171 1204 171 1170.5 c 128,-1,39
 171 1137 171 1137 180 1106 c 1,40,-1
 -28 1106 l 1,0,1
EndSplineSet
Substitution2: "<17001,16003> Urdu lookup 100 subtable" twosuperior
EndChar

StartChar: threesuperior
Encoding: 179 179 117
Width: 803
GlyphClass: 2
Flags: W
LayerCount: 2
Fore
SplineSet
253 1094 m 1,0,1
 282 1094 282 1094 315.5 1095 c 128,-1,2
 349 1096 349 1096 376 1105 c 128,-1,3
 403 1114 403 1114 419 1133.5 c 128,-1,4
 435 1153 435 1153 427 1190 c 0,5,6
 421 1215 421 1215 406.5 1235 c 128,-1,7
 392 1255 392 1255 371.5 1269 c 128,-1,8
 351 1283 351 1283 326.5 1290.5 c 128,-1,9
 302 1298 302 1298 277 1298 c 0,10,11
 244 1298 244 1298 220.5 1286.5 c 128,-1,12
 197 1275 197 1275 183.5 1255 c 128,-1,13
 170 1235 170 1235 167 1208.5 c 128,-1,14
 164 1182 164 1182 171 1151 c 1,15,-1
 -24 1151 l 1,16,17
 -37 1222 -37 1222 -26 1279.5 c 128,-1,18
 -15 1337 -15 1337 19 1377.5 c 128,-1,19
 53 1418 53 1418 108.5 1440 c 128,-1,20
 164 1462 164 1462 240 1462 c 0,21,22
 302 1462 302 1462 363.5 1446.5 c 128,-1,23
 425 1431 425 1431 477.5 1399.5 c 128,-1,24
 530 1368 530 1368 568 1321 c 128,-1,25
 606 1274 606 1274 619 1210 c 0,26,27
 626 1179 626 1179 623.5 1151 c 128,-1,28
 621 1123 621 1123 609 1100 c 128,-1,29
 597 1077 597 1077 575.5 1060 c 128,-1,30
 554 1043 554 1043 522 1034 c 1,31,-1
 523 1030 l 1,32,33
 563 1023 563 1023 597.5 1006 c 128,-1,34
 632 989 632 989 658.5 963.5 c 128,-1,35
 685 938 685 938 703.5 906 c 128,-1,36
 722 874 722 874 729 838 c 0,37,38
 745 764 745 764 728 708.5 c 128,-1,39
 711 653 711 653 670.5 615.5 c 128,-1,40
 630 578 630 578 570 559.5 c 128,-1,41
 510 541 510 541 438 541 c 0,42,43
 355 541 355 541 283.5 562 c 128,-1,44
 212 583 212 583 156.5 624.5 c 128,-1,45
 101 666 101 666 63.5 727 c 128,-1,46
 26 788 26 788 11 868 c 1,47,-1
 207 868 l 1,48,49
 216 835 216 835 232.5 805.5 c 128,-1,50
 249 776 249 776 273 753.5 c 128,-1,51
 297 731 297 731 328.5 718 c 128,-1,52
 360 705 360 705 399 705 c 0,53,54
 430 705 430 705 455 714.5 c 128,-1,55
 480 724 480 724 496.5 741 c 128,-1,56
 513 758 513 758 520 782 c 128,-1,57
 527 806 527 806 521 834 c 0,58,59
 512 878 512 878 486.5 901.5 c 128,-1,60
 461 925 461 925 427.5 935.5 c 128,-1,61
 394 946 394 946 356 948 c 128,-1,62
 318 950 318 950 284 950 c 1,63,-1
 253 1094 l 1,0,1
EndSplineSet
Substitution2: "<17001,16003> Urdu lookup 100 subtable" threesuperior
EndChar

StartChar: acute
Encoding: 180 180 118
Width: 530
GlyphClass: 2
Flags: W
LayerCount: 2
Fore
SplineSet
9 1190 m 1,0,-1
 143 1481 l 1,1,-1
 464 1481 l 1,2,-1
 210 1190 l 1,3,-1
 9 1190 l 1,0,-1
EndSplineSet
Substitution2: "<17001,16003> Urdu lookup 100 subtable" acute
EndChar

StartChar: mu
Encoding: 181 181 119
Width: 1214
GlyphClass: 2
Flags: W
LayerCount: 2
Fore
SplineSet
827 0 m 1,0,-1
 826 147 l 1,1,-1
 820 147 l 1,2,3
 792 102 792 102 756 69 c 128,-1,4
 720 36 720 36 683.5 15 c 128,-1,5
 647 -6 647 -6 613 -16.5 c 128,-1,6
 579 -27 579 -27 554 -27 c 0,7,8
 492 -27 492 -27 455.5 -13.5 c 128,-1,9
 419 0 419 0 400 20 c 1,10,-1
 400 -371 l 1,11,-1
 110 -371 l 1,12,-1
 111 1059 l 1,13,-1
 400 1059 l 1,14,-1
 400 461 l 2,15,16
 400 396 400 396 409.5 347 c 128,-1,17
 419 298 419 298 441 265.5 c 128,-1,18
 463 233 463 233 499 217 c 128,-1,19
 535 201 535 201 587 201 c 0,20,21
 646 201 646 201 688.5 218 c 128,-1,22
 731 235 731 235 758.5 272 c 128,-1,23
 786 309 786 309 799 366 c 128,-1,24
 812 423 812 423 812 504 c 2,25,-1
 812 1059 l 1,26,-1
 1103 1059 l 1,27,-1
 1104 0 l 1,28,-1
 827 0 l 1,0,-1
EndSplineSet
Substitution2: "<17001,16003> Urdu lookup 100 subtable" mu
EndChar

StartChar: paragraph
Encoding: 182 182 120
Width: 1270
GlyphClass: 2
Flags: W
LayerCount: 2
Fore
SplineSet
452 731 m 1,0,1
 344 731 344 731 260.5 756 c 128,-1,2
 177 781 177 781 120 827.5 c 128,-1,3
 63 874 63 874 33.5 940.5 c 128,-1,4
 4 1007 4 1007 4 1090 c 0,5,6
 4 1197 4 1197 41 1268 c 128,-1,7
 78 1339 78 1339 143 1382.5 c 128,-1,8
 208 1426 208 1426 298.5 1444 c 128,-1,9
 389 1462 389 1462 495 1462 c 2,10,-1
 1095 1462 l 1,11,-1
 1095 -338 l 1,12,-1
 886 -338 l 1,13,-1
 886 1298 l 1,14,-1
 661 1298 l 1,15,-1
 661 -338 l 1,16,-1
 452 -338 l 1,17,-1
 452 731 l 1,0,1
EndSplineSet
Substitution2: "<17001,16003> Urdu lookup 100 subtable" paragraph
EndChar

StartChar: periodcentered
Encoding: 183 183 121
Width: 569
GlyphClass: 2
Flags: W
LayerCount: 2
Fore
SplineSet
139 588 m 0,0,1
 131 625 131 625 138.5 656.5 c 128,-1,2
 146 688 146 688 164.5 711.5 c 128,-1,3
 183 735 183 735 212 748.5 c 128,-1,4
 241 762 241 762 275 762 c 256,5,6
 309 762 309 762 343 748.5 c 128,-1,7
 377 735 377 735 405.5 711.5 c 128,-1,8
 434 688 434 688 455 656.5 c 128,-1,9
 476 625 476 625 484 588 c 0,10,11
 491 555 491 555 483.5 524 c 128,-1,12
 476 493 476 493 457.5 469 c 128,-1,13
 439 445 439 445 411.5 430.5 c 128,-1,14
 384 416 384 416 350 416 c 0,15,16
 314 416 314 416 279 429.5 c 128,-1,17
 244 443 244 443 215 466.5 c 128,-1,18
 186 490 186 490 166 521.5 c 128,-1,19
 146 553 146 553 139 588 c 0,0,1
EndSplineSet
Substitution2: "<17001,16003> Urdu lookup 100 subtable" periodcentered
EndChar

StartChar: cedilla
Encoding: 184 184 122
Width: 530
GlyphClass: 2
Flags: W
LayerCount: 2
Fore
SplineSet
281 -301 m 1,0,1
 316 -315 316 -315 361.5 -326.5 c 128,-1,2
 407 -338 407 -338 461 -338 c 0,3,4
 498 -338 498 -338 517 -321.5 c 128,-1,5
 536 -305 536 -305 528 -268 c 0,6,7
 520 -230 520 -230 494 -216.5 c 128,-1,8
 468 -203 468 -203 433 -203 c 0,9,10
 410 -203 410 -203 390 -206 c 128,-1,11
 370 -209 370 -209 354 -217 c 1,12,-1
 300 -168 l 1,13,-1
 385 4 l 1,14,-1
 485 4 l 1,15,-1
 428 -106 l 1,16,-1
 432 -106 l 1,17,18
 443 -101 443 -101 460 -98.5 c 128,-1,19
 477 -96 477 -96 500 -96 c 0,20,21
 535 -96 535 -96 570 -104.5 c 128,-1,22
 605 -113 605 -113 635.5 -130.5 c 128,-1,23
 666 -148 666 -148 688.5 -175 c 128,-1,24
 711 -202 711 -202 719 -240 c 0,25,26
 731 -300 731 -300 719 -339 c 128,-1,27
 707 -378 707 -378 678.5 -401.5 c 128,-1,28
 650 -425 650 -425 609 -434.5 c 128,-1,29
 568 -444 568 -444 523 -444 c 0,30,31
 474 -444 474 -444 438 -441 c 128,-1,32
 402 -438 402 -438 372.5 -432.5 c 128,-1,33
 343 -427 343 -427 316.5 -418.5 c 128,-1,34
 290 -410 290 -410 259 -399 c 1,35,-1
 281 -301 l 1,0,1
EndSplineSet
Substitution2: "<17001,16003> Urdu lookup 100 subtable" cedilla
EndChar

StartChar: onesuperior
Encoding: 185 185 123
Width: 803
GlyphClass: 2
Flags: W
LayerCount: 2
Fore
SplineSet
414 559 m 1,0,-1
 294 1120 l 1,1,-1
 70 1120 l 1,2,-1
 38 1274 l 1,3,4
 86 1272 86 1272 129 1279.5 c 128,-1,5
 172 1287 172 1287 203 1307.5 c 128,-1,6
 234 1328 234 1328 250.5 1361.5 c 128,-1,7
 267 1395 267 1395 263 1444 c 1,8,-1
 435 1444 l 1,9,-1
 623 559 l 1,10,-1
 414 559 l 1,0,-1
EndSplineSet
Substitution2: "<17001,16003> Urdu lookup 100 subtable" onesuperior
EndChar

StartChar: ordmasculine
Encoding: 186 186 124
Width: 752
GlyphClass: 2
Flags: W
LayerCount: 2
Fore
SplineSet
-61 1114 m 256,0,1
 -78 1195 -78 1195 -67 1259.5 c 128,-1,2
 -56 1324 -56 1324 -20 1369 c 128,-1,3
 16 1414 16 1414 75.5 1438 c 128,-1,4
 135 1462 135 1462 214 1462 c 0,5,6
 294 1462 294 1462 364 1438 c 128,-1,7
 434 1414 434 1414 489.5 1369 c 128,-1,8
 545 1324 545 1324 584 1259.5 c 128,-1,9
 623 1195 623 1195 640 1114 c 256,10,11
 657 1033 657 1033 645.5 969 c 128,-1,12
 634 905 634 905 597.5 860.5 c 128,-1,13
 561 816 561 816 501 792 c 128,-1,14
 441 768 441 768 361 768 c 0,15,16
 282 768 282 768 212 792 c 128,-1,17
 142 816 142 816 87 860.5 c 128,-1,18
 32 905 32 905 -6 969 c 128,-1,19
 -44 1033 -44 1033 -61 1114 c 256,0,1
157 1114 m 0,20,21
 164 1080 164 1080 179 1046 c 128,-1,22
 194 1012 194 1012 215.5 984.5 c 128,-1,23
 237 957 237 957 266 939.5 c 128,-1,24
 295 922 295 922 329 922 c 0,25,26
 364 922 364 922 385.5 939.5 c 128,-1,27
 407 957 407 957 417.5 984.5 c 128,-1,28
 428 1012 428 1012 428 1046 c 128,-1,29
 428 1080 428 1080 421 1114 c 0,30,31
 414 1149 414 1149 398.5 1183.5 c 128,-1,32
 383 1218 383 1218 361 1246 c 128,-1,33
 339 1274 339 1274 310 1291.5 c 128,-1,34
 281 1309 281 1309 246 1309 c 0,35,36
 212 1309 212 1309 191 1291.5 c 128,-1,37
 170 1274 170 1274 160 1246 c 128,-1,38
 150 1218 150 1218 150 1183.5 c 128,-1,39
 150 1149 150 1149 157 1114 c 0,20,21
EndSplineSet
Substitution2: "<17001,16003> Urdu lookup 100 subtable" ordmasculine
EndChar

StartChar: onequarter
Encoding: 188 188 125
Width: 1827
GlyphClass: 2
Flags: W
LayerCount: 2
Fore
SplineSet
1168 1479 m 1,0,-1
 648 -43 l 1,1,-1
 470 -43 l 1,2,-1
 994 1479 l 1,3,-1
 1168 1479 l 1,0,-1
305 559 m 1,4,-1
 185 1120 l 1,5,-1
 -39 1120 l 1,6,-1
 -71 1274 l 1,7,8
 -22 1272 -22 1272 20.5 1279.5 c 128,-1,9
 63 1287 63 1287 94 1307.5 c 128,-1,10
 125 1328 125 1328 141.5 1361.5 c 128,-1,11
 158 1395 158 1395 154 1444 c 1,12,-1
 326 1444 l 1,13,-1
 514 559 l 1,14,-1
 305 559 l 1,4,-1
1129 182 m 1,15,-1
 1088 373 l 1,16,-1
 1370 860 l 1,17,-1
 1575 860 l 1,18,-1
 1684 346 l 1,19,-1
 1800 346 l 1,20,-1
 1835 182 l 1,21,-1
 1719 182 l 1,22,-1
 1758 0 l 1,23,-1
 1561 0 l 1,24,-1
 1522 182 l 1,25,-1
 1129 182 l 1,15,-1
1420 641 m 1,26,-1
 1250 346 l 1,27,-1
 1487 346 l 1,28,-1
 1424 641 l 1,29,-1
 1420 641 l 1,26,-1
EndSplineSet
Substitution2: "<17001,16003> Urdu lookup 100 subtable" onequarter
Ligature2: "<17006,16006> Roman in Arabic lookup 97 subtable" one fraction four
Ligature2: "<17006,16006> Roman in Arabic lookup 97 subtable" one slash four
Ligature2: "Ligature Substitution lookup 62 subtable" one fraction four
Ligature2: "Ligature Substitution lookup 62 subtable" one slash four
EndChar

StartChar: onehalf
Encoding: 189 189 126
Width: 1821
GlyphClass: 2
Flags: W
LayerCount: 2
Fore
SplineSet
1168 1479 m 1,0,-1
 648 -43 l 1,1,-1
 470 -43 l 1,2,-1
 994 1479 l 1,3,-1
 1168 1479 l 1,0,-1
305 559 m 1,4,-1
 185 1120 l 1,5,-1
 -39 1120 l 1,6,-1
 -71 1274 l 1,7,8
 -22 1272 -22 1272 20.5 1279.5 c 128,-1,9
 63 1287 63 1287 94 1307.5 c 128,-1,10
 125 1328 125 1328 141.5 1361.5 c 128,-1,11
 158 1395 158 1395 154 1444 c 1,12,-1
 326 1444 l 1,13,-1
 514 559 l 1,14,-1
 305 559 l 1,4,-1
1075 547 m 1,15,16
 1057 626 1057 626 1066 691.5 c 128,-1,17
 1075 757 1075 757 1111 804 c 128,-1,18
 1147 851 1147 851 1212 877 c 128,-1,19
 1277 903 1277 903 1371 903 c 0,20,21
 1436 903 1436 903 1497.5 885.5 c 128,-1,22
 1559 868 1559 868 1610 833.5 c 128,-1,23
 1661 799 1661 799 1698 747 c 128,-1,24
 1735 695 1735 695 1749 627 c 0,25,26
 1763 562 1763 562 1750.5 515 c 128,-1,27
 1738 468 1738 468 1709 432 c 128,-1,28
 1680 396 1680 396 1639.5 367 c 128,-1,29
 1599 338 1599 338 1556.5 308 c 128,-1,30
 1514 278 1514 278 1475.5 244 c 128,-1,31
 1437 210 1437 210 1411 164 c 1,32,-1
 1839 164 l 1,33,-1
 1874 0 l 1,34,-1
 1190 0 l 1,35,36
 1172 81 1172 81 1182 140 c 128,-1,37
 1192 199 1192 199 1221.5 245 c 128,-1,38
 1251 291 1251 291 1295.5 327.5 c 128,-1,39
 1340 364 1340 364 1391 401 c 0,40,41
 1417 421 1417 421 1447 442 c 128,-1,42
 1477 463 1477 463 1501.5 488 c 128,-1,43
 1526 513 1526 513 1539 543 c 128,-1,44
 1552 573 1552 573 1543 612 c 0,45,46
 1537 639 1537 639 1523.5 662 c 128,-1,47
 1510 685 1510 685 1490 702.5 c 128,-1,48
 1470 720 1470 720 1445 729.5 c 128,-1,49
 1420 739 1420 739 1391 739 c 0,50,51
 1349 739 1349 739 1323.5 720.5 c 128,-1,52
 1298 702 1298 702 1286.5 673.5 c 128,-1,53
 1275 645 1275 645 1275 611.5 c 128,-1,54
 1275 578 1275 578 1284 547 c 1,55,-1
 1075 547 l 1,15,16
EndSplineSet
Substitution2: "<17001,16003> Urdu lookup 100 subtable" onehalf
Ligature2: "<17006,16006> Roman in Arabic lookup 97 subtable" one fraction two
Ligature2: "<17006,16006> Roman in Arabic lookup 97 subtable" one slash two
Ligature2: "Ligature Substitution lookup 62 subtable" one fraction two
Ligature2: "Ligature Substitution lookup 62 subtable" one slash two
EndChar

StartChar: threequarters
Encoding: 190 190 127
Width: 1821
GlyphClass: 2
Flags: W
LayerCount: 2
Fore
SplineSet
1346 1479 m 1,0,-1
 827 -43 l 1,1,-1
 648 -43 l 1,2,-1
 1172 1479 l 1,3,-1
 1346 1479 l 1,0,-1
288 1094 m 1,4,5
 316 1094 316 1094 349.5 1095 c 128,-1,6
 383 1096 383 1096 410.5 1105 c 128,-1,7
 438 1114 438 1114 454 1133.5 c 128,-1,8
 470 1153 470 1153 462 1190 c 0,9,10
 456 1215 456 1215 441.5 1235 c 128,-1,11
 427 1255 427 1255 406.5 1269 c 128,-1,12
 386 1283 386 1283 361.5 1290.5 c 128,-1,13
 337 1298 337 1298 312 1298 c 0,14,15
 279 1298 279 1298 255.5 1286.5 c 128,-1,16
 232 1275 232 1275 218.5 1255 c 128,-1,17
 205 1235 205 1235 202 1208.5 c 128,-1,18
 199 1182 199 1182 206 1151 c 1,19,-1
 10 1151 l 1,20,21
 -3 1222 -3 1222 8.5 1279.5 c 128,-1,22
 20 1337 20 1337 53.5 1377.5 c 128,-1,23
 87 1418 87 1418 143 1440 c 128,-1,24
 199 1462 199 1462 275 1462 c 0,25,26
 337 1462 337 1462 398.5 1446.5 c 128,-1,27
 460 1431 460 1431 512.5 1399.5 c 128,-1,28
 565 1368 565 1368 603 1321 c 128,-1,29
 641 1274 641 1274 654 1210 c 0,30,31
 661 1179 661 1179 658.5 1151 c 128,-1,32
 656 1123 656 1123 644 1100 c 128,-1,33
 632 1077 632 1077 610.5 1060 c 128,-1,34
 589 1043 589 1043 557 1034 c 1,35,-1
 558 1030 l 1,36,37
 598 1023 598 1023 632.5 1006 c 128,-1,38
 667 989 667 989 693.5 963.5 c 128,-1,39
 720 938 720 938 738.5 906 c 128,-1,40
 757 874 757 874 764 838 c 0,41,42
 780 764 780 764 763 708.5 c 128,-1,43
 746 653 746 653 705.5 615.5 c 128,-1,44
 665 578 665 578 605 559.5 c 128,-1,45
 545 541 545 541 473 541 c 0,46,47
 390 541 390 541 318.5 562 c 128,-1,48
 247 583 247 583 191.5 624.5 c 128,-1,49
 136 666 136 666 98.5 727 c 128,-1,50
 61 788 61 788 46 868 c 1,51,-1
 241 868 l 1,52,53
 251 835 251 835 267.5 805.5 c 128,-1,54
 284 776 284 776 308 753.5 c 128,-1,55
 332 731 332 731 363.5 718 c 128,-1,56
 395 705 395 705 434 705 c 0,57,58
 465 705 465 705 490 714.5 c 128,-1,59
 515 724 515 724 531.5 741 c 128,-1,60
 548 758 548 758 555 782 c 128,-1,61
 562 806 562 806 556 834 c 0,62,63
 547 878 547 878 521.5 901.5 c 128,-1,64
 496 925 496 925 462.5 935.5 c 128,-1,65
 429 946 429 946 391 948 c 128,-1,66
 353 950 353 950 319 950 c 1,67,-1
 288 1094 l 1,4,5
1170 182 m 1,68,-1
 1129 373 l 1,69,-1
 1411 860 l 1,70,-1
 1616 860 l 1,71,-1
 1725 346 l 1,72,-1
 1841 346 l 1,73,-1
 1876 182 l 1,74,-1
 1760 182 l 1,75,-1
 1799 0 l 1,76,-1
 1602 0 l 1,77,-1
 1563 182 l 1,78,-1
 1170 182 l 1,68,-1
1461 641 m 1,79,-1
 1290 346 l 1,80,-1
 1528 346 l 1,81,-1
 1465 641 l 1,82,-1
 1461 641 l 1,79,-1
EndSplineSet
Substitution2: "<17001,16003> Urdu lookup 100 subtable" threequarters
Ligature2: "<17006,16006> Roman in Arabic lookup 97 subtable" three fraction four
Ligature2: "<17006,16006> Roman in Arabic lookup 97 subtable" three slash four
Ligature2: "Ligature Substitution lookup 62 subtable" three fraction four
Ligature2: "Ligature Substitution lookup 62 subtable" three slash four
EndChar

StartChar: questiondown
Encoding: 191 191 128
Width: 693
GlyphClass: 2
Flags: W
LayerCount: 2
Fore
SplineSet
848 -268 m 0,0,1
 861 -322 861 -322 852 -367 c 128,-1,2
 843 -412 843 -412 815.5 -444 c 128,-1,3
 788 -476 788 -476 745 -495 c 128,-1,4
 702 -514 702 -514 648 -515 c 0,5,6
 322 -524 322 -524 235 -162 c 0,7,8
 219 -95 219 -95 230.5 -34 c 128,-1,9
 242 27 242 27 274 75.5 c 128,-1,10
 306 124 306 124 356 157 c 128,-1,11
 406 190 406 190 467 202 c 1,12,-1
 421 393 l 1,13,-1
 555 396 l 1,14,-1
 654 -17 l 1,15,16
 649 -17 649 -17 638 -16.5 c 128,-1,17
 627 -16 627 -16 615 -16 c 1,18,19
 605 -15 605 -15 595.5 -14 c 128,-1,20
 586 -13 586 -13 581 -14 c 0,21,22
 542 -15 542 -15 511.5 -30.5 c 128,-1,23
 481 -46 481 -46 461.5 -72 c 128,-1,24
 442 -98 442 -98 435.5 -132.5 c 128,-1,25
 429 -167 429 -167 438 -205 c 0,26,27
 447 -244 447 -244 464 -278.5 c 128,-1,28
 481 -313 481 -313 503.5 -338.5 c 128,-1,29
 526 -364 526 -364 552 -379 c 128,-1,30
 578 -394 578 -394 605 -393 c 0,31,32
 676 -392 676 -392 668 -353 c 0,33,34
 666 -347 666 -347 660 -334.5 c 128,-1,35
 654 -322 654 -322 644 -304 c 1,36,-1
 643 -300 l 2,37,38
 643 -296 643 -296 643 -296 c 1,39,40
 640 -292 640 -292 639 -290 c 128,-1,41
 638 -288 638 -288 637 -287 c 0,42,43
 627 -271 627 -271 622 -259 c 128,-1,44
 617 -247 617 -247 615 -236 c 0,45,46
 591 -139 591 -139 715 -136 c 0,47,48
 817 -133 817 -133 848 -268 c 0,0,1
565 572 m 0,49,50
 571 549 571 549 567 526 c 128,-1,51
 563 503 563 503 551.5 484.5 c 128,-1,52
 540 466 540 466 520.5 454 c 128,-1,53
 501 442 501 442 475 441 c 0,54,55
 343 438 343 438 313 561 c 0,56,57
 307 587 307 587 310.5 611 c 128,-1,58
 314 635 314 635 326.5 653 c 128,-1,59
 339 671 339 671 359 682 c 128,-1,60
 379 693 379 693 405 694 c 0,61,62
 432 695 432 695 458 686.5 c 128,-1,63
 484 678 484 678 505.5 662 c 128,-1,64
 527 646 527 646 542.5 623 c 128,-1,65
 558 600 558 600 565 572 c 0,49,50
EndSplineSet
Substitution2: "<17001,16003> Urdu lookup 100 subtable" questiondown
EndChar

StartChar: Agrave
Encoding: 192 192 129
Width: 1403
GlyphClass: 2
Flags: W
LayerCount: 2
Fore
SplineSet
709 1462 m 1,0,-1
 1567 0 l 1,1,-1
 1233 0 l 1,2,-1
 1053 326 l 1,3,-1
 506 326 l 1,4,-1
 461 0 l 1,5,-1
 138 0 l 1,6,-1
 380 1462 l 1,7,-1
 709 1462 l 1,0,-1
918 565 m 1,8,-1
 620 1102 l 1,9,-1
 615 1102 l 1,10,-1
 539 565 l 1,11,-1
 918 565 l 1,8,-1
408 1884 m 1,12,-1
 667 1593 l 1,13,-1
 464 1593 l 1,14,-1
 88 1884 l 1,15,-1
 408 1884 l 1,12,-1
EndSplineSet
Substitution2: "<17001,16003> Urdu lookup 100 subtable" Agrave
Ligature2: "<17016,16016>  in Latin lookup 65 subtable" A grave
EndChar

StartChar: Aacute
Encoding: 193 193 130
Width: 1403
GlyphClass: 2
Flags: W
LayerCount: 2
Fore
SplineSet
709 1462 m 1,0,-1
 1567 0 l 1,1,-1
 1233 0 l 1,2,-1
 1053 326 l 1,3,-1
 506 326 l 1,4,-1
 461 0 l 1,5,-1
 138 0 l 1,6,-1
 380 1462 l 1,7,-1
 709 1462 l 1,0,-1
918 565 m 1,8,-1
 620 1102 l 1,9,-1
 615 1102 l 1,10,-1
 539 565 l 1,11,-1
 918 565 l 1,8,-1
358 1593 m 1,12,-1
 492 1884 l 1,13,-1
 814 1884 l 1,14,-1
 561 1593 l 1,15,-1
 358 1593 l 1,12,-1
EndSplineSet
Substitution2: "<17001,16003> Urdu lookup 100 subtable" Aacute
Ligature2: "<17016,16016>  in Latin lookup 65 subtable" A acute
EndChar

StartChar: Acircumflex
Encoding: 194 194 131
Width: 1403
GlyphClass: 2
Flags: W
LayerCount: 2
Fore
SplineSet
709 1462 m 1,0,-1
 1567 0 l 1,1,-1
 1233 0 l 1,2,-1
 1053 326 l 1,3,-1
 506 326 l 1,4,-1
 461 0 l 1,5,-1
 138 0 l 1,6,-1
 380 1462 l 1,7,-1
 709 1462 l 1,0,-1
918 565 m 1,8,-1
 620 1102 l 1,9,-1
 615 1102 l 1,10,-1
 539 565 l 1,11,-1
 918 565 l 1,8,-1
585 1884 m 1,12,-1
 872 1593 l 1,13,-1
 632 1593 l 1,14,-1
 470 1759 l 1,15,-1
 374 1593 l 1,16,-1
 153 1593 l 1,17,-1
 318 1884 l 1,18,-1
 585 1884 l 1,12,-1
EndSplineSet
Substitution2: "<17001,16003> Urdu lookup 100 subtable" Acircumflex
Ligature2: "<17016,16016>  in Latin lookup 65 subtable" A circumflex
EndChar

StartChar: Atilde
Encoding: 195 195 132
Width: 1403
GlyphClass: 2
Flags: W
LayerCount: 2
Fore
SplineSet
709 1462 m 1,0,-1
 1567 0 l 1,1,-1
 1233 0 l 1,2,-1
 1053 326 l 1,3,-1
 506 326 l 1,4,-1
 461 0 l 1,5,-1
 138 0 l 1,6,-1
 380 1462 l 1,7,-1
 709 1462 l 1,0,-1
918 565 m 1,8,-1
 620 1102 l 1,9,-1
 615 1102 l 1,10,-1
 539 565 l 1,11,-1
 918 565 l 1,8,-1
830 1866 m 1,12,13
 828 1843 828 1843 825.5 1816.5 c 128,-1,14
 823 1790 823 1790 817 1764 c 128,-1,15
 811 1738 811 1738 800 1714.5 c 128,-1,16
 789 1691 789 1691 769.5 1672.5 c 128,-1,17
 750 1654 750 1654 721 1643 c 128,-1,18
 692 1632 692 1632 651 1632 c 0,19,20
 603 1632 603 1632 560 1643.5 c 128,-1,21
 517 1655 517 1655 475 1667 c 1,22,23
 433 1681 433 1681 396.5 1691.5 c 128,-1,24
 360 1702 360 1702 325 1702 c 0,25,26
 304 1702 304 1702 291 1695.5 c 128,-1,27
 278 1689 278 1689 271 1678 c 128,-1,28
 264 1667 264 1667 261 1651 c 128,-1,29
 258 1635 258 1635 257 1616 c 1,30,-1
 133 1616 l 1,31,32
 133 1661 133 1661 139.5 1705.5 c 128,-1,33
 146 1750 146 1750 167.5 1785.5 c 128,-1,34
 189 1821 189 1821 229 1843.5 c 128,-1,35
 269 1866 269 1866 337 1866 c 0,36,37
 372 1866 372 1866 406 1854.5 c 128,-1,38
 440 1843 440 1843 475 1831 c 1,39,40
 510 1817 510 1817 546.5 1805.5 c 128,-1,41
 583 1794 583 1794 618 1794 c 0,42,43
 665 1794 665 1794 681 1815.5 c 128,-1,44
 697 1837 697 1837 689 1866 c 1,45,-1
 830 1866 l 1,12,13
EndSplineSet
Substitution2: "<17001,16003> Urdu lookup 100 subtable" Atilde
Ligature2: "<17016,16016>  in Latin lookup 65 subtable" A tilde
EndChar

StartChar: Adieresis
Encoding: 196 196 133
Width: 1403
GlyphClass: 2
Flags: W
LayerCount: 2
Fore
SplineSet
709 1462 m 1,0,-1
 1567 0 l 1,1,-1
 1233 0 l 1,2,-1
 1053 326 l 1,3,-1
 506 326 l 1,4,-1
 461 0 l 1,5,-1
 138 0 l 1,6,-1
 380 1462 l 1,7,-1
 709 1462 l 1,0,-1
918 565 m 1,8,-1
 620 1102 l 1,9,-1
 615 1102 l 1,10,-1
 539 565 l 1,11,-1
 918 565 l 1,8,-1
804 1866 m 1,12,-1
 855 1626 l 1,13,-1
 578 1626 l 1,14,-1
 527 1866 l 1,15,-1
 804 1866 l 1,12,-1
382 1866 m 1,16,-1
 433 1626 l 1,17,-1
 156 1626 l 1,18,-1
 106 1866 l 1,19,-1
 382 1866 l 1,16,-1
EndSplineSet
Substitution2: "<17001,16003> Urdu lookup 100 subtable" Adieresis
Ligature2: "<17016,16016>  in Latin lookup 65 subtable" A dieresis
EndChar

StartChar: Aring
Encoding: 197 197 134
AltUni2: 00212b.ffffffff.0
Width: 1403
GlyphClass: 2
Flags: W
LayerCount: 2
Fore
SplineSet
709 1462 m 1,0,-1
 1567 0 l 1,1,-1
 1233 0 l 1,2,-1
 1053 326 l 1,3,-1
 506 326 l 1,4,-1
 461 0 l 1,5,-1
 138 0 l 1,6,-1
 380 1462 l 1,7,-1
 709 1462 l 1,0,-1
918 565 m 1,8,-1
 620 1102 l 1,9,-1
 615 1102 l 1,10,-1
 539 565 l 1,11,-1
 918 565 l 1,8,-1
349 1747 m 256,12,13
 355 1717 355 1717 370 1691 c 128,-1,14
 385 1665 385 1665 406 1645.5 c 128,-1,15
 427 1626 427 1626 453 1615 c 128,-1,16
 479 1604 479 1604 509 1604 c 256,17,18
 539 1604 539 1604 561 1615 c 128,-1,19
 583 1626 583 1626 595.5 1645.5 c 128,-1,20
 608 1665 608 1665 611.5 1691 c 128,-1,21
 615 1717 615 1717 609 1747 c 256,22,23
 603 1777 603 1777 588 1803 c 128,-1,24
 573 1829 573 1829 552 1848.5 c 128,-1,25
 531 1868 531 1868 504.5 1879 c 128,-1,26
 478 1890 478 1890 448 1890 c 256,27,28
 418 1890 418 1890 396.5 1879 c 128,-1,29
 375 1868 375 1868 362.5 1848.5 c 128,-1,30
 350 1829 350 1829 346.5 1803 c 128,-1,31
 343 1777 343 1777 349 1747 c 256,12,13
229 1747 m 256,32,33
 218 1799 218 1799 228 1844.5 c 128,-1,34
 238 1890 238 1890 264 1924 c 128,-1,35
 290 1958 290 1958 331.5 1977.5 c 128,-1,36
 373 1997 373 1997 425 1997 c 0,37,38
 478 1997 478 1997 528 1977.5 c 128,-1,39
 578 1958 578 1958 619 1924 c 128,-1,40
 660 1890 660 1890 689.5 1844.5 c 128,-1,41
 719 1799 719 1799 730 1747 c 256,42,43
 741 1695 741 1695 731 1649.5 c 128,-1,44
 721 1604 721 1604 694 1570 c 128,-1,45
 667 1536 667 1536 625.5 1516.5 c 128,-1,46
 584 1497 584 1497 531 1497 c 0,47,48
 479 1497 479 1497 429.5 1516.5 c 128,-1,49
 380 1536 380 1536 339 1570 c 128,-1,50
 298 1604 298 1604 269 1649.5 c 128,-1,51
 240 1695 240 1695 229 1747 c 256,32,33
EndSplineSet
Substitution2: "<17001,16003> Urdu lookup 100 subtable" Aring
Ligature2: "<17016,16016>  in Latin lookup 65 subtable" A ring
EndChar

StartChar: AE
Encoding: 198 198 135
Width: 2009
GlyphClass: 2
Flags: W
LayerCount: 2
Fore
SplineSet
955 565 m 1,0,-1
 822 1192 l 1,1,-1
 752 1192 l 1,2,-1
 602 565 l 1,3,-1
 955 565 l 1,0,-1
1756 1462 m 1,4,-1
 1813 1192 l 1,5,-1
 1133 1192 l 1,6,-1
 1200 879 l 1,7,-1
 1839 879 l 1,8,-1
 1892 629 l 1,9,-1
 1253 629 l 1,10,-1
 1329 270 l 1,11,-1
 2025 270 l 1,12,-1
 2083 0 l 1,13,-1
 1076 0 l 1,14,-1
 1006 326 l 1,15,-1
 547 326 l 1,16,-1
 469 0 l 1,17,-1
 130 0 l 1,18,-1
 515 1462 l 1,19,-1
 1756 1462 l 1,4,-1
EndSplineSet
Substitution2: "<17001,16003> Urdu lookup 100 subtable" AE
Ligature2: "<17013,16013> Roman in Latin lookup 99 subtable" A E
EndChar

StartChar: Ccedilla
Encoding: 199 199 136
Width: 1518
GlyphClass: 2
Flags: W
LayerCount: 2
Fore
SplineSet
1059 971 m 1,0,1
 1039 1025 1039 1025 1000.5 1072 c 128,-1,2
 962 1119 962 1119 911.5 1153.5 c 128,-1,3
 861 1188 861 1188 803 1207.5 c 128,-1,4
 745 1227 745 1227 686 1227 c 0,5,6
 578 1227 578 1227 511 1184.5 c 128,-1,7
 444 1142 444 1142 411.5 1072 c 128,-1,8
 379 1002 379 1002 376.5 911.5 c 128,-1,9
 374 821 374 821 394 725 c 0,10,11
 407 664 407 664 429 604 c 128,-1,12
 451 544 451 544 483 489.5 c 128,-1,13
 515 435 515 435 556.5 389 c 128,-1,14
 598 343 598 343 649 309 c 128,-1,15
 700 275 700 275 762 255.5 c 128,-1,16
 824 236 824 236 896 236 c 0,17,18
 970 236 970 236 1022.5 259.5 c 128,-1,19
 1075 283 1075 283 1107 326 c 128,-1,20
 1139 369 1139 369 1151.5 429.5 c 128,-1,21
 1164 490 1164 490 1158 563 c 1,22,-1
 1470 563 l 1,23,24
 1487 426 1487 426 1459 316.5 c 128,-1,25
 1431 207 1431 207 1364 130 c 128,-1,26
 1297 53 1297 53 1194.5 11 c 128,-1,27
 1092 -31 1092 -31 960 -33 c 1,28,-1
 922 -106 l 1,29,-1
 926 -106 l 1,30,31
 937 -101 937 -101 953.5 -98.5 c 128,-1,32
 970 -96 970 -96 993 -96 c 0,33,34
 1028 -96 1028 -96 1063.5 -104.5 c 128,-1,35
 1099 -113 1099 -113 1129.5 -130.5 c 128,-1,36
 1160 -148 1160 -148 1182.5 -175 c 128,-1,37
 1205 -202 1205 -202 1213 -240 c 0,38,39
 1225 -300 1225 -300 1213 -339 c 128,-1,40
 1201 -378 1201 -378 1172.5 -401.5 c 128,-1,41
 1144 -425 1144 -425 1102.5 -434.5 c 128,-1,42
 1061 -444 1061 -444 1016 -444 c 0,43,44
 967 -444 967 -444 931.5 -441 c 128,-1,45
 896 -438 896 -438 866.5 -432.5 c 128,-1,46
 837 -427 837 -427 810.5 -418.5 c 128,-1,47
 784 -410 784 -410 752 -399 c 1,48,-1
 774 -301 l 1,49,50
 809 -315 809 -315 854.5 -326.5 c 128,-1,51
 900 -338 900 -338 954 -338 c 0,52,53
 991 -338 991 -338 1010 -321.5 c 128,-1,54
 1029 -305 1029 -305 1021 -268 c 0,55,56
 1013 -230 1013 -230 987 -216.5 c 128,-1,57
 961 -203 961 -203 926 -203 c 0,58,59
 878 -203 878 -203 847 -217 c 1,60,-1
 793 -168 l 1,61,-1
 862 -27 l 1,62,63
 709 -12 709 -12 578.5 52 c 128,-1,64
 448 116 448 116 346 217 c 128,-1,65
 244 318 244 318 174.5 448 c 128,-1,66
 105 578 105 578 74 725 c 0,67,68
 40 888 40 888 58.5 1029 c 128,-1,69
 77 1170 77 1170 147.5 1274 c 128,-1,70
 218 1378 218 1378 338.5 1437.5 c 128,-1,71
 459 1497 459 1497 628 1497 c 0,72,73
 748 1497 748 1497 863 1462.5 c 128,-1,74
 978 1428 978 1428 1077 1361 c 128,-1,75
 1176 1294 1176 1294 1252.5 1196 c 128,-1,76
 1329 1098 1329 1098 1370 971 c 1,77,-1
 1059 971 l 1,0,1
EndSplineSet
Substitution2: "<17001,16003> Urdu lookup 100 subtable" Ccedilla
Ligature2: "<17016,16016>  in Latin lookup 65 subtable" C cedilla
EndChar

StartChar: Egrave
Encoding: 200 200 137
Width: 1327
GlyphClass: 2
Flags: W
LayerCount: 2
Fore
SplineSet
1074 1462 m 1,0,-1
 1131 1192 l 1,1,-1
 359 1192 l 1,2,-1
 426 879 l 1,3,-1
 1134 879 l 1,4,-1
 1187 629 l 1,5,-1
 479 629 l 1,6,-1
 555 270 l 1,7,-1
 1343 270 l 1,8,-1
 1401 0 l 1,9,-1
 291 0 l 1,10,-1
 -19 1462 l 1,11,-1
 1074 1462 l 1,0,-1
372 1884 m 1,12,-1
 630 1593 l 1,13,-1
 427 1593 l 1,14,-1
 51 1884 l 1,15,-1
 372 1884 l 1,12,-1
EndSplineSet
Substitution2: "<17001,16003> Urdu lookup 100 subtable" Egrave
Ligature2: "<17016,16016>  in Latin lookup 65 subtable" E grave
EndChar

StartChar: Eacute
Encoding: 201 201 138
Width: 1327
GlyphClass: 2
Flags: W
LayerCount: 2
Fore
SplineSet
1074 1462 m 1,0,-1
 1131 1192 l 1,1,-1
 359 1192 l 1,2,-1
 426 879 l 1,3,-1
 1134 879 l 1,4,-1
 1187 629 l 1,5,-1
 479 629 l 1,6,-1
 555 270 l 1,7,-1
 1343 270 l 1,8,-1
 1401 0 l 1,9,-1
 291 0 l 1,10,-1
 -19 1462 l 1,11,-1
 1074 1462 l 1,0,-1
321 1593 m 1,12,-1
 456 1884 l 1,13,-1
 777 1884 l 1,14,-1
 524 1593 l 1,15,-1
 321 1593 l 1,12,-1
EndSplineSet
Substitution2: "<17001,16003> Urdu lookup 100 subtable" Eacute
Ligature2: "<17016,16016>  in Latin lookup 65 subtable" E acute
EndChar

StartChar: Ecircumflex
Encoding: 202 202 139
Width: 1327
GlyphClass: 2
Flags: W
LayerCount: 2
Fore
SplineSet
1074 1462 m 1,0,-1
 1131 1192 l 1,1,-1
 359 1192 l 1,2,-1
 426 879 l 1,3,-1
 1134 879 l 1,4,-1
 1187 629 l 1,5,-1
 479 629 l 1,6,-1
 555 270 l 1,7,-1
 1343 270 l 1,8,-1
 1401 0 l 1,9,-1
 291 0 l 1,10,-1
 -19 1462 l 1,11,-1
 1074 1462 l 1,0,-1
548 1884 m 1,12,-1
 835 1593 l 1,13,-1
 595 1593 l 1,14,-1
 433 1759 l 1,15,-1
 337 1593 l 1,16,-1
 117 1593 l 1,17,-1
 281 1884 l 1,18,-1
 548 1884 l 1,12,-1
EndSplineSet
Substitution2: "<17001,16003> Urdu lookup 100 subtable" Ecircumflex
Ligature2: "<17016,16016>  in Latin lookup 65 subtable" E circumflex
EndChar

StartChar: Edieresis
Encoding: 203 203 140
Width: 1327
GlyphClass: 2
Flags: W
LayerCount: 2
Fore
SplineSet
1074 1462 m 1,0,-1
 1131 1192 l 1,1,-1
 359 1192 l 1,2,-1
 426 879 l 1,3,-1
 1134 879 l 1,4,-1
 1187 629 l 1,5,-1
 479 629 l 1,6,-1
 555 270 l 1,7,-1
 1343 270 l 1,8,-1
 1401 0 l 1,9,-1
 291 0 l 1,10,-1
 -19 1462 l 1,11,-1
 1074 1462 l 1,0,-1
767 1866 m 1,12,-1
 818 1626 l 1,13,-1
 541 1626 l 1,14,-1
 490 1866 l 1,15,-1
 767 1866 l 1,12,-1
345 1866 m 1,16,-1
 396 1626 l 1,17,-1
 120 1626 l 1,18,-1
 69 1866 l 1,19,-1
 345 1866 l 1,16,-1
EndSplineSet
Substitution2: "<17001,16003> Urdu lookup 100 subtable" Edieresis
Ligature2: "<17016,16016>  in Latin lookup 65 subtable" E dieresis
EndChar

StartChar: Igrave
Encoding: 204 204 141
Width: 604
GlyphClass: 2
Flags: W
LayerCount: 2
Fore
SplineSet
302 1462 m 1,0,-1
 613 0 l 1,1,-1
 291 0 l 1,2,-1
 -19 1462 l 1,3,-1
 302 1462 l 1,0,-1
10 1884 m 1,4,-1
 268 1593 l 1,5,-1
 66 1593 l 1,6,-1
 -309 1884 l 1,7,-1
 10 1884 l 1,4,-1
EndSplineSet
Substitution2: "<17001,16003> Urdu lookup 100 subtable" Igrave
Ligature2: "<17016,16016>  in Latin lookup 65 subtable" I grave
EndChar

StartChar: Iacute
Encoding: 205 205 142
Width: 604
GlyphClass: 2
Flags: W
LayerCount: 2
Fore
SplineSet
302 1462 m 1,0,-1
 613 0 l 1,1,-1
 291 0 l 1,2,-1
 -19 1462 l 1,3,-1
 302 1462 l 1,0,-1
-41 1593 m 1,4,-1
 94 1884 l 1,5,-1
 415 1884 l 1,6,-1
 161 1593 l 1,7,-1
 -41 1593 l 1,4,-1
EndSplineSet
Substitution2: "<17001,16003> Urdu lookup 100 subtable" Iacute
Ligature2: "<17016,16016>  in Latin lookup 65 subtable" I acute
EndChar

StartChar: Icircumflex
Encoding: 206 206 143
Width: 604
GlyphClass: 2
Flags: W
LayerCount: 2
Fore
SplineSet
302 1462 m 1,0,-1
 613 0 l 1,1,-1
 291 0 l 1,2,-1
 -19 1462 l 1,3,-1
 302 1462 l 1,0,-1
185 1884 m 1,4,-1
 473 1593 l 1,5,-1
 233 1593 l 1,6,-1
 72 1759 l 1,7,-1
 -24 1593 l 1,8,-1
 -243 1593 l 1,9,-1
 -80 1884 l 1,10,-1
 185 1884 l 1,4,-1
EndSplineSet
Substitution2: "<17001,16003> Urdu lookup 100 subtable" Icircumflex
Ligature2: "<17016,16016>  in Latin lookup 65 subtable" I circumflex
EndChar

StartChar: Idieresis
Encoding: 207 207 144
Width: 604
GlyphClass: 2
Flags: W
LayerCount: 2
Fore
SplineSet
302 1462 m 1,0,-1
 613 0 l 1,1,-1
 291 0 l 1,2,-1
 -19 1462 l 1,3,-1
 302 1462 l 1,0,-1
404 1866 m 1,4,-1
 455 1626 l 1,5,-1
 179 1626 l 1,6,-1
 129 1866 l 1,7,-1
 404 1866 l 1,4,-1
-17 1866 m 1,8,-1
 34 1626 l 1,9,-1
 -240 1626 l 1,10,-1
 -291 1866 l 1,11,-1
 -17 1866 l 1,8,-1
EndSplineSet
Substitution2: "<17001,16003> Urdu lookup 100 subtable" Idieresis
Ligature2: "<17016,16016>  in Latin lookup 65 subtable" I dieresis
EndChar

StartChar: Eth
Encoding: 208 208 145
Width: 1518
GlyphClass: 2
Flags: W
LayerCount: 2
Fore
SplineSet
21 637 m 1,0,-1
 -29 874 l 1,1,-1
 106 874 l 1,2,-1
 -19 1462 l 1,3,-1
 611 1462 l 2,4,5
 753 1462 753 1462 884 1417 c 128,-1,6
 1015 1372 1015 1372 1123 1282 c 128,-1,7
 1231 1192 1231 1192 1310.5 1056.5 c 128,-1,8
 1390 921 1390 921 1428 739 c 0,9,10
 1462 580 1462 580 1450 444.5 c 128,-1,11
 1438 309 1438 309 1376.5 210.5 c 128,-1,12
 1315 112 1315 112 1202.5 56 c 128,-1,13
 1090 0 1090 0 922 0 c 2,14,-1
 291 0 l 1,15,-1
 155 637 l 1,16,-1
 21 637 l 1,0,-1
755 874 m 1,17,-1
 806 635 l 1,18,-1
 478 635 l 1,19,-1
 555 270 l 1,20,-1
 842 270 l 2,21,22
 912 270 912 270 972.5 293 c 128,-1,23
 1033 316 1033 316 1073 368 c 128,-1,24
 1113 420 1113 420 1126 504 c 128,-1,25
 1139 588 1139 588 1113 709 c 0,26,27
 1089 820 1089 820 1049 909 c 128,-1,28
 1009 998 1009 998 946 1061 c 128,-1,29
 883 1124 883 1124 795 1158 c 128,-1,30
 707 1192 707 1192 588 1192 c 2,31,-1
 359 1192 l 1,32,-1
 427 874 l 1,33,-1
 755 874 l 1,17,-1
EndSplineSet
Substitution2: "<17001,16003> Urdu lookup 100 subtable" Eth
EndChar

StartChar: Ntilde
Encoding: 209 209 146
Width: 1518
GlyphClass: 2
Flags: W
LayerCount: 2
Fore
SplineSet
300 1462 m 1,0,-1
 1118 481 l 1,1,-1
 1122 481 l 1,2,-1
 914 1462 l 1,3,-1
 1215 1462 l 1,4,-1
 1526 0 l 1,5,-1
 1205 0 l 1,6,-1
 387 979 l 1,7,-1
 383 979 l 1,8,-1
 592 0 l 1,9,-1
 291 0 l 1,10,-1
 -19 1462 l 1,11,-1
 300 1462 l 1,0,-1
888 1866 m 1,12,13
 885 1832 885 1832 880 1791 c 128,-1,14
 875 1750 875 1750 857.5 1714.5 c 128,-1,15
 840 1679 840 1679 805 1655.5 c 128,-1,16
 770 1632 770 1632 708 1632 c 0,17,18
 660 1632 660 1632 617 1643.5 c 128,-1,19
 574 1655 574 1655 532 1667 c 1,20,21
 490 1681 490 1681 453.5 1691.5 c 128,-1,22
 417 1702 417 1702 382 1702 c 0,23,24
 341 1702 341 1702 328.5 1678 c 128,-1,25
 316 1654 316 1654 314 1616 c 1,26,-1
 189 1616 l 1,27,28
 190 1661 190 1661 196.5 1705.5 c 128,-1,29
 203 1750 203 1750 224.5 1785.5 c 128,-1,30
 246 1821 246 1821 286.5 1843.5 c 128,-1,31
 327 1866 327 1866 394 1866 c 0,32,33
 429 1866 429 1866 463 1854.5 c 128,-1,34
 497 1843 497 1843 532 1831 c 1,35,36
 567 1817 567 1817 603.5 1805.5 c 128,-1,37
 640 1794 640 1794 675 1794 c 0,38,39
 723 1794 723 1794 738.5 1815.5 c 128,-1,40
 754 1837 754 1837 746 1866 c 1,41,-1
 888 1866 l 1,12,13
EndSplineSet
Substitution2: "<17001,16003> Urdu lookup 100 subtable" Ntilde
Ligature2: "<17016,16016>  in Latin lookup 65 subtable" N tilde
EndChar

StartChar: Ograve
Encoding: 210 210 147
Width: 1593
GlyphClass: 2
Flags: W
LayerCount: 2
Fore
SplineSet
74 725 m 0,0,1
 40 888 40 888 58.5 1029 c 128,-1,2
 77 1170 77 1170 147.5 1274 c 128,-1,3
 218 1378 218 1378 338.5 1437.5 c 128,-1,4
 459 1497 459 1497 628 1497 c 256,5,6
 797 1497 797 1497 943 1437.5 c 128,-1,7
 1089 1378 1089 1378 1204 1274 c 128,-1,8
 1319 1170 1319 1170 1398 1029 c 128,-1,9
 1477 888 1477 888 1511 725 c 0,10,11
 1545 565 1545 565 1525.5 426.5 c 128,-1,12
 1506 288 1506 288 1435.5 186 c 128,-1,13
 1365 84 1365 84 1244 25.5 c 128,-1,14
 1123 -33 1123 -33 954 -33 c 256,15,16
 785 -33 785 -33 639 25.5 c 128,-1,17
 493 84 493 84 378.5 186 c 128,-1,18
 264 288 264 288 186 426.5 c 128,-1,19
 108 565 108 565 74 725 c 0,0,1
394 725 m 0,20,21
 407 664 407 664 429 604 c 128,-1,22
 451 544 451 544 483 489.5 c 128,-1,23
 515 435 515 435 556.5 389 c 128,-1,24
 598 343 598 343 649 309 c 128,-1,25
 700 275 700 275 762 255.5 c 128,-1,26
 824 236 824 236 896 236 c 0,27,28
 1004 236 1004 236 1070.5 278 c 128,-1,29
 1137 320 1137 320 1170 389 c 128,-1,30
 1203 458 1203 458 1206 546 c 128,-1,31
 1209 634 1209 634 1189 725 c 1,32,33
 1169 821 1169 821 1128.5 911.5 c 128,-1,34
 1088 1002 1088 1002 1025.5 1072 c 128,-1,35
 963 1142 963 1142 878.5 1184.5 c 128,-1,36
 794 1227 794 1227 686 1227 c 256,37,38
 578 1227 578 1227 511 1184.5 c 128,-1,39
 444 1142 444 1142 411.5 1072 c 128,-1,40
 379 1002 379 1002 376.5 911.5 c 128,-1,41
 374 821 374 821 394 725 c 0,20,21
505 1884 m 1,42,-1
 763 1593 l 1,43,-1
 561 1593 l 1,44,-1
 183 1884 l 1,45,-1
 505 1884 l 1,42,-1
EndSplineSet
Substitution2: "<17001,16003> Urdu lookup 100 subtable" Ograve
Ligature2: "<17016,16016>  in Latin lookup 65 subtable" O grave
EndChar

StartChar: Oacute
Encoding: 211 211 148
Width: 1593
GlyphClass: 2
Flags: W
LayerCount: 2
Fore
SplineSet
74 725 m 0,0,1
 40 888 40 888 58.5 1029 c 128,-1,2
 77 1170 77 1170 147.5 1274 c 128,-1,3
 218 1378 218 1378 338.5 1437.5 c 128,-1,4
 459 1497 459 1497 628 1497 c 256,5,6
 797 1497 797 1497 943 1437.5 c 128,-1,7
 1089 1378 1089 1378 1204 1274 c 128,-1,8
 1319 1170 1319 1170 1398 1029 c 128,-1,9
 1477 888 1477 888 1511 725 c 0,10,11
 1545 565 1545 565 1525.5 426.5 c 128,-1,12
 1506 288 1506 288 1435.5 186 c 128,-1,13
 1365 84 1365 84 1244 25.5 c 128,-1,14
 1123 -33 1123 -33 954 -33 c 256,15,16
 785 -33 785 -33 639 25.5 c 128,-1,17
 493 84 493 84 378.5 186 c 128,-1,18
 264 288 264 288 186 426.5 c 128,-1,19
 108 565 108 565 74 725 c 0,0,1
394 725 m 0,20,21
 407 664 407 664 429 604 c 128,-1,22
 451 544 451 544 483 489.5 c 128,-1,23
 515 435 515 435 556.5 389 c 128,-1,24
 598 343 598 343 649 309 c 128,-1,25
 700 275 700 275 762 255.5 c 128,-1,26
 824 236 824 236 896 236 c 0,27,28
 1004 236 1004 236 1070.5 278 c 128,-1,29
 1137 320 1137 320 1170 389 c 128,-1,30
 1203 458 1203 458 1206 546 c 128,-1,31
 1209 634 1209 634 1189 725 c 1,32,33
 1169 821 1169 821 1128.5 911.5 c 128,-1,34
 1088 1002 1088 1002 1025.5 1072 c 128,-1,35
 963 1142 963 1142 878.5 1184.5 c 128,-1,36
 794 1227 794 1227 686 1227 c 256,37,38
 578 1227 578 1227 511 1184.5 c 128,-1,39
 444 1142 444 1142 411.5 1072 c 128,-1,40
 379 1002 379 1002 376.5 911.5 c 128,-1,41
 374 821 374 821 394 725 c 0,20,21
454 1593 m 1,42,-1
 589 1884 l 1,43,-1
 910 1884 l 1,44,-1
 657 1593 l 1,45,-1
 454 1593 l 1,42,-1
EndSplineSet
Substitution2: "<17001,16003> Urdu lookup 100 subtable" Oacute
Ligature2: "<17016,16016>  in Latin lookup 65 subtable" O acute
EndChar

StartChar: Ocircumflex
Encoding: 212 212 149
Width: 1593
GlyphClass: 2
Flags: W
LayerCount: 2
Fore
SplineSet
74 725 m 0,0,1
 40 888 40 888 58.5 1029 c 128,-1,2
 77 1170 77 1170 147.5 1274 c 128,-1,3
 218 1378 218 1378 338.5 1437.5 c 128,-1,4
 459 1497 459 1497 628 1497 c 256,5,6
 797 1497 797 1497 943 1437.5 c 128,-1,7
 1089 1378 1089 1378 1204 1274 c 128,-1,8
 1319 1170 1319 1170 1398 1029 c 128,-1,9
 1477 888 1477 888 1511 725 c 0,10,11
 1545 565 1545 565 1525.5 426.5 c 128,-1,12
 1506 288 1506 288 1435.5 186 c 128,-1,13
 1365 84 1365 84 1244 25.5 c 128,-1,14
 1123 -33 1123 -33 954 -33 c 256,15,16
 785 -33 785 -33 639 25.5 c 128,-1,17
 493 84 493 84 378.5 186 c 128,-1,18
 264 288 264 288 186 426.5 c 128,-1,19
 108 565 108 565 74 725 c 0,0,1
394 725 m 0,20,21
 407 664 407 664 429 604 c 128,-1,22
 451 544 451 544 483 489.5 c 128,-1,23
 515 435 515 435 556.5 389 c 128,-1,24
 598 343 598 343 649 309 c 128,-1,25
 700 275 700 275 762 255.5 c 128,-1,26
 824 236 824 236 896 236 c 0,27,28
 1004 236 1004 236 1070.5 278 c 128,-1,29
 1137 320 1137 320 1170 389 c 128,-1,30
 1203 458 1203 458 1206 546 c 128,-1,31
 1209 634 1209 634 1189 725 c 1,32,33
 1169 821 1169 821 1128.5 911.5 c 128,-1,34
 1088 1002 1088 1002 1025.5 1072 c 128,-1,35
 963 1142 963 1142 878.5 1184.5 c 128,-1,36
 794 1227 794 1227 686 1227 c 256,37,38
 578 1227 578 1227 511 1184.5 c 128,-1,39
 444 1142 444 1142 411.5 1072 c 128,-1,40
 379 1002 379 1002 376.5 911.5 c 128,-1,41
 374 821 374 821 394 725 c 0,20,21
681 1884 m 1,42,-1
 968 1593 l 1,43,-1
 729 1593 l 1,44,-1
 567 1759 l 1,45,-1
 470 1593 l 1,46,-1
 249 1593 l 1,47,-1
 415 1884 l 1,48,-1
 681 1884 l 1,42,-1
EndSplineSet
Substitution2: "<17001,16003> Urdu lookup 100 subtable" Ocircumflex
Ligature2: "<17016,16016>  in Latin lookup 65 subtable" O circumflex
EndChar

StartChar: Otilde
Encoding: 213 213 150
Width: 1593
GlyphClass: 2
Flags: W
LayerCount: 2
Fore
SplineSet
74 725 m 0,0,1
 40 888 40 888 58.5 1029 c 128,-1,2
 77 1170 77 1170 147.5 1274 c 128,-1,3
 218 1378 218 1378 338.5 1437.5 c 128,-1,4
 459 1497 459 1497 628 1497 c 256,5,6
 797 1497 797 1497 943 1437.5 c 128,-1,7
 1089 1378 1089 1378 1204 1274 c 128,-1,8
 1319 1170 1319 1170 1398 1029 c 128,-1,9
 1477 888 1477 888 1511 725 c 0,10,11
 1545 565 1545 565 1525.5 426.5 c 128,-1,12
 1506 288 1506 288 1435.5 186 c 128,-1,13
 1365 84 1365 84 1244 25.5 c 128,-1,14
 1123 -33 1123 -33 954 -33 c 256,15,16
 785 -33 785 -33 639 25.5 c 128,-1,17
 493 84 493 84 378.5 186 c 128,-1,18
 264 288 264 288 186 426.5 c 128,-1,19
 108 565 108 565 74 725 c 0,0,1
394 725 m 0,20,21
 407 664 407 664 429 604 c 128,-1,22
 451 544 451 544 483 489.5 c 128,-1,23
 515 435 515 435 556.5 389 c 128,-1,24
 598 343 598 343 649 309 c 128,-1,25
 700 275 700 275 762 255.5 c 128,-1,26
 824 236 824 236 896 236 c 0,27,28
 1004 236 1004 236 1070.5 278 c 128,-1,29
 1137 320 1137 320 1170 389 c 128,-1,30
 1203 458 1203 458 1206 546 c 128,-1,31
 1209 634 1209 634 1189 725 c 1,32,33
 1169 821 1169 821 1128.5 911.5 c 128,-1,34
 1088 1002 1088 1002 1025.5 1072 c 128,-1,35
 963 1142 963 1142 878.5 1184.5 c 128,-1,36
 794 1227 794 1227 686 1227 c 256,37,38
 578 1227 578 1227 511 1184.5 c 128,-1,39
 444 1142 444 1142 411.5 1072 c 128,-1,40
 379 1002 379 1002 376.5 911.5 c 128,-1,41
 374 821 374 821 394 725 c 0,20,21
927 1866 m 1,42,43
 924 1832 924 1832 919 1791 c 128,-1,44
 914 1750 914 1750 896.5 1714.5 c 128,-1,45
 879 1679 879 1679 844 1655.5 c 128,-1,46
 809 1632 809 1632 747 1632 c 0,47,48
 699 1632 699 1632 656 1643.5 c 128,-1,49
 613 1655 613 1655 571 1667 c 1,50,51
 529 1681 529 1681 492.5 1691.5 c 128,-1,52
 456 1702 456 1702 421 1702 c 0,53,54
 380 1702 380 1702 367.5 1678 c 128,-1,55
 355 1654 355 1654 353 1616 c 1,56,-1
 228 1616 l 1,57,58
 229 1661 229 1661 235.5 1705.5 c 128,-1,59
 242 1750 242 1750 263.5 1785.5 c 128,-1,60
 285 1821 285 1821 325.5 1843.5 c 128,-1,61
 366 1866 366 1866 433 1866 c 0,62,63
 468 1866 468 1866 502 1854.5 c 128,-1,64
 536 1843 536 1843 571 1831 c 1,65,66
 606 1817 606 1817 642.5 1805.5 c 128,-1,67
 679 1794 679 1794 714 1794 c 0,68,69
 762 1794 762 1794 777.5 1815.5 c 128,-1,70
 793 1837 793 1837 785 1866 c 1,71,-1
 927 1866 l 1,42,43
EndSplineSet
Substitution2: "<17001,16003> Urdu lookup 100 subtable" Otilde
Ligature2: "<17016,16016>  in Latin lookup 65 subtable" O tilde
EndChar

StartChar: Odieresis
Encoding: 214 214 151
Width: 1593
GlyphClass: 2
Flags: W
LayerCount: 2
Fore
SplineSet
74 725 m 0,0,1
 40 888 40 888 58.5 1029 c 128,-1,2
 77 1170 77 1170 147.5 1274 c 128,-1,3
 218 1378 218 1378 338.5 1437.5 c 128,-1,4
 459 1497 459 1497 628 1497 c 256,5,6
 797 1497 797 1497 943 1437.5 c 128,-1,7
 1089 1378 1089 1378 1204 1274 c 128,-1,8
 1319 1170 1319 1170 1398 1029 c 128,-1,9
 1477 888 1477 888 1511 725 c 0,10,11
 1545 565 1545 565 1525.5 426.5 c 128,-1,12
 1506 288 1506 288 1435.5 186 c 128,-1,13
 1365 84 1365 84 1244 25.5 c 128,-1,14
 1123 -33 1123 -33 954 -33 c 256,15,16
 785 -33 785 -33 639 25.5 c 128,-1,17
 493 84 493 84 378.5 186 c 128,-1,18
 264 288 264 288 186 426.5 c 128,-1,19
 108 565 108 565 74 725 c 0,0,1
394 725 m 0,20,21
 407 664 407 664 429 604 c 128,-1,22
 451 544 451 544 483 489.5 c 128,-1,23
 515 435 515 435 556.5 389 c 128,-1,24
 598 343 598 343 649 309 c 128,-1,25
 700 275 700 275 762 255.5 c 128,-1,26
 824 236 824 236 896 236 c 0,27,28
 1004 236 1004 236 1070.5 278 c 128,-1,29
 1137 320 1137 320 1170 389 c 128,-1,30
 1203 458 1203 458 1206 546 c 128,-1,31
 1209 634 1209 634 1189 725 c 1,32,33
 1169 821 1169 821 1128.5 911.5 c 128,-1,34
 1088 1002 1088 1002 1025.5 1072 c 128,-1,35
 963 1142 963 1142 878.5 1184.5 c 128,-1,36
 794 1227 794 1227 686 1227 c 256,37,38
 578 1227 578 1227 511 1184.5 c 128,-1,39
 444 1142 444 1142 411.5 1072 c 128,-1,40
 379 1002 379 1002 376.5 911.5 c 128,-1,41
 374 821 374 821 394 725 c 0,20,21
900 1866 m 1,42,-1
 951 1626 l 1,43,-1
 674 1626 l 1,44,-1
 623 1866 l 1,45,-1
 900 1866 l 1,42,-1
478 1866 m 1,46,-1
 529 1626 l 1,47,-1
 253 1626 l 1,48,-1
 202 1866 l 1,49,-1
 478 1866 l 1,46,-1
EndSplineSet
Substitution2: "<17001,16003> Urdu lookup 100 subtable" Odieresis
Ligature2: "<17016,16016>  in Latin lookup 65 subtable" O dieresis
EndChar

StartChar: multiply
Encoding: 215 215 152
Width: 1140
GlyphClass: 2
Flags: W
LayerCount: 2
Fore
SplineSet
415 518 m 1,0,-1
 90 846 l 1,1,-1
 245 1001 l 1,2,-1
 570 674 l 1,3,-1
 898 1001 l 1,4,-1
 1054 846 l 1,5,-1
 724 518 l 1,6,-1
 1054 190 l 1,7,-1
 898 35 l 1,8,-1
 570 365 l 1,9,-1
 241 35 l 1,10,-1
 85 190 l 1,11,-1
 415 518 l 1,0,-1
EndSplineSet
Substitution2: "<17001,16003> Urdu lookup 100 subtable" multiply
EndChar

StartChar: Oslash
Encoding: 216 216 153
Width: 1593
GlyphClass: 2
Flags: W
LayerCount: 2
Fore
SplineSet
350 215 m 1,0,1
 241 320 241 320 173.5 448 c 128,-1,2
 106 576 106 576 74 725 c 0,3,4
 40 888 40 888 58.5 1029 c 128,-1,5
 77 1170 77 1170 147.5 1274 c 128,-1,6
 218 1378 218 1378 338.5 1437.5 c 128,-1,7
 459 1497 459 1497 628 1497 c 0,8,9
 770 1497 770 1497 894 1456 c 128,-1,10
 1018 1415 1018 1415 1122 1339 c 1,11,-1
 1247 1522 l 1,12,-1
 1369 1432 l 1,13,-1
 1238 1241 l 1,14,15
 1340 1136 1340 1136 1409.5 1008 c 128,-1,16
 1479 880 1479 880 1511 725 c 0,17,18
 1545 565 1545 565 1525.5 426.5 c 128,-1,19
 1506 288 1506 288 1435.5 186 c 128,-1,20
 1365 84 1365 84 1244 25.5 c 128,-1,21
 1123 -33 1123 -33 954 -33 c 0,22,23
 811 -33 811 -33 688.5 8 c 128,-1,24
 566 49 566 49 464 121 c 1,25,-1
 334 -66 l 1,26,-1
 215 20 l 1,27,-1
 350 215 l 1,0,1
974 1122 m 1,28,29
 915 1170 915 1170 844.5 1198.5 c 128,-1,30
 774 1227 774 1227 686 1227 c 0,31,32
 578 1227 578 1227 511 1184.5 c 128,-1,33
 444 1142 444 1142 411.5 1072 c 128,-1,34
 379 1002 379 1002 376.5 911.5 c 128,-1,35
 374 821 374 821 394 725 c 0,36,37
 410 653 410 653 438 582.5 c 128,-1,38
 466 512 466 512 511 449 c 1,39,-1
 974 1122 l 1,28,29
613 336 m 1,40,41
 671 288 671 288 740 262 c 128,-1,42
 809 236 809 236 896 236 c 0,43,44
 1004 236 1004 236 1070.5 278 c 128,-1,45
 1137 320 1137 320 1170 389 c 128,-1,46
 1203 458 1203 458 1206 546 c 128,-1,47
 1209 634 1209 634 1189 725 c 1,48,49
 1174 799 1174 799 1146 870 c 128,-1,50
 1118 941 1118 941 1075 1004 c 1,51,-1
 613 336 l 1,40,41
EndSplineSet
Substitution2: "<17001,16003> Urdu lookup 100 subtable" Oslash
EndChar

StartChar: Ugrave
Encoding: 217 217 154
Width: 1518
GlyphClass: 2
Flags: W
LayerCount: 2
Fore
SplineSet
1414 553 m 2,0,1
 1446 405 1446 405 1426.5 295 c 128,-1,2
 1407 185 1407 185 1342.5 112 c 128,-1,3
 1278 39 1278 39 1170 3 c 128,-1,4
 1062 -33 1062 -33 915 -33 c 0,5,6
 767 -33 767 -33 643.5 2.5 c 128,-1,7
 520 38 520 38 424.5 110.5 c 128,-1,8
 329 183 329 183 264 293 c 128,-1,9
 199 403 199 403 167 553 c 2,10,-1
 -25 1462 l 1,11,-1
 296 1462 l 1,12,-1
 489 553 l 2,13,14
 502 494 502 494 524.5 437 c 128,-1,15
 547 380 547 380 588.5 335.5 c 128,-1,16
 630 291 630 291 695 263.5 c 128,-1,17
 760 236 760 236 857 236 c 0,18,19
 943 236 943 236 997 254.5 c 128,-1,20
 1051 273 1051 273 1078.5 312 c 128,-1,21
 1106 351 1106 351 1108.5 411 c 128,-1,22
 1111 471 1111 471 1093 553 c 2,23,-1
 900 1462 l 1,24,-1
 1221 1462 l 1,25,-1
 1414 553 l 2,0,1
466 1884 m 1,26,-1
 724 1593 l 1,27,-1
 522 1593 l 1,28,-1
 145 1884 l 1,29,-1
 466 1884 l 1,26,-1
EndSplineSet
Substitution2: "<17001,16003> Urdu lookup 100 subtable" Ugrave
Ligature2: "<17016,16016>  in Latin lookup 65 subtable" U grave
EndChar

StartChar: Uacute
Encoding: 218 218 155
Width: 1518
GlyphClass: 2
Flags: W
LayerCount: 2
Fore
SplineSet
1414 553 m 2,0,1
 1446 405 1446 405 1426.5 295 c 128,-1,2
 1407 185 1407 185 1342.5 112 c 128,-1,3
 1278 39 1278 39 1170 3 c 128,-1,4
 1062 -33 1062 -33 915 -33 c 0,5,6
 767 -33 767 -33 643.5 2.5 c 128,-1,7
 520 38 520 38 424.5 110.5 c 128,-1,8
 329 183 329 183 264 293 c 128,-1,9
 199 403 199 403 167 553 c 2,10,-1
 -25 1462 l 1,11,-1
 296 1462 l 1,12,-1
 489 553 l 2,13,14
 502 494 502 494 524.5 437 c 128,-1,15
 547 380 547 380 588.5 335.5 c 128,-1,16
 630 291 630 291 695 263.5 c 128,-1,17
 760 236 760 236 857 236 c 0,18,19
 943 236 943 236 997 254.5 c 128,-1,20
 1051 273 1051 273 1078.5 312 c 128,-1,21
 1106 351 1106 351 1108.5 411 c 128,-1,22
 1111 471 1111 471 1093 553 c 2,23,-1
 900 1462 l 1,24,-1
 1221 1462 l 1,25,-1
 1414 553 l 2,0,1
415 1593 m 1,26,-1
 550 1884 l 1,27,-1
 871 1884 l 1,28,-1
 618 1593 l 1,29,-1
 415 1593 l 1,26,-1
EndSplineSet
Substitution2: "<17001,16003> Urdu lookup 100 subtable" Uacute
Ligature2: "<17016,16016>  in Latin lookup 65 subtable" U acute
EndChar

StartChar: Ucircumflex
Encoding: 219 219 156
Width: 1518
GlyphClass: 2
Flags: W
LayerCount: 2
Fore
SplineSet
1414 553 m 2,0,1
 1446 405 1446 405 1426.5 295 c 128,-1,2
 1407 185 1407 185 1342.5 112 c 128,-1,3
 1278 39 1278 39 1170 3 c 128,-1,4
 1062 -33 1062 -33 915 -33 c 0,5,6
 767 -33 767 -33 643.5 2.5 c 128,-1,7
 520 38 520 38 424.5 110.5 c 128,-1,8
 329 183 329 183 264 293 c 128,-1,9
 199 403 199 403 167 553 c 2,10,-1
 -25 1462 l 1,11,-1
 296 1462 l 1,12,-1
 489 553 l 2,13,14
 502 494 502 494 524.5 437 c 128,-1,15
 547 380 547 380 588.5 335.5 c 128,-1,16
 630 291 630 291 695 263.5 c 128,-1,17
 760 236 760 236 857 236 c 0,18,19
 943 236 943 236 997 254.5 c 128,-1,20
 1051 273 1051 273 1078.5 312 c 128,-1,21
 1106 351 1106 351 1108.5 411 c 128,-1,22
 1111 471 1111 471 1093 553 c 2,23,-1
 900 1462 l 1,24,-1
 1221 1462 l 1,25,-1
 1414 553 l 2,0,1
642 1884 m 1,26,-1
 929 1593 l 1,27,-1
 690 1593 l 1,28,-1
 528 1759 l 1,29,-1
 432 1593 l 1,30,-1
 210 1593 l 1,31,-1
 376 1884 l 1,32,-1
 642 1884 l 1,26,-1
EndSplineSet
Substitution2: "<17001,16003> Urdu lookup 100 subtable" Ucircumflex
Ligature2: "<17016,16016>  in Latin lookup 65 subtable" U circumflex
EndChar

StartChar: Udieresis
Encoding: 220 220 157
Width: 1518
GlyphClass: 2
Flags: W
LayerCount: 2
Fore
SplineSet
1414 553 m 2,0,1
 1446 405 1446 405 1426.5 295 c 128,-1,2
 1407 185 1407 185 1342.5 112 c 128,-1,3
 1278 39 1278 39 1170 3 c 128,-1,4
 1062 -33 1062 -33 915 -33 c 0,5,6
 767 -33 767 -33 643.5 2.5 c 128,-1,7
 520 38 520 38 424.5 110.5 c 128,-1,8
 329 183 329 183 264 293 c 128,-1,9
 199 403 199 403 167 553 c 2,10,-1
 -25 1462 l 1,11,-1
 296 1462 l 1,12,-1
 489 553 l 2,13,14
 502 494 502 494 524.5 437 c 128,-1,15
 547 380 547 380 588.5 335.5 c 128,-1,16
 630 291 630 291 695 263.5 c 128,-1,17
 760 236 760 236 857 236 c 0,18,19
 943 236 943 236 997 254.5 c 128,-1,20
 1051 273 1051 273 1078.5 312 c 128,-1,21
 1106 351 1106 351 1108.5 411 c 128,-1,22
 1111 471 1111 471 1093 553 c 2,23,-1
 900 1462 l 1,24,-1
 1221 1462 l 1,25,-1
 1414 553 l 2,0,1
861 1866 m 1,26,-1
 912 1626 l 1,27,-1
 635 1626 l 1,28,-1
 584 1866 l 1,29,-1
 861 1866 l 1,26,-1
439 1866 m 1,30,-1
 490 1626 l 1,31,-1
 214 1626 l 1,32,-1
 163 1866 l 1,33,-1
 439 1866 l 1,30,-1
EndSplineSet
Substitution2: "<17001,16003> Urdu lookup 100 subtable" Udieresis
Ligature2: "<17016,16016>  in Latin lookup 65 subtable" U dieresis
EndChar

StartChar: Yacute
Encoding: 221 221 158
Width: 1366
GlyphClass: 2
Flags: W
LayerCount: 2
Fore
SplineSet
-176 1462 m 1,0,-1
 183 1462 l 1,1,-1
 647 885 l 1,2,-1
 865 1462 l 1,3,-1
 1223 1462 l 1,4,-1
 872 561 l 1,5,-1
 992 0 l 1,6,-1
 670 0 l 1,7,-1
 549 569 l 1,8,-1
 -176 1462 l 1,0,-1
339 1593 m 1,9,-1
 474 1884 l 1,10,-1
 796 1884 l 1,11,-1
 542 1593 l 1,12,-1
 339 1593 l 1,9,-1
EndSplineSet
Substitution2: "<17001,16003> Urdu lookup 100 subtable" Yacute
Ligature2: "<17016,16016>  in Latin lookup 65 subtable" Y acute
EndChar

StartChar: Thorn
Encoding: 222 222 159
Width: 1366
GlyphClass: 2
Flags: W
LayerCount: 2
Fore
SplineSet
302 1462 m 1,0,-1
 344 1264 l 1,1,-1
 682 1264 l 2,2,3
 819 1264 819 1264 924 1224 c 128,-1,4
 1029 1184 1029 1184 1103.5 1118.5 c 128,-1,5
 1178 1053 1178 1053 1223.5 968.5 c 128,-1,6
 1269 884 1269 884 1288 795 c 256,7,8
 1307 706 1307 706 1297 621.5 c 128,-1,9
 1287 537 1287 537 1240.5 471.5 c 128,-1,10
 1194 406 1194 406 1106 366 c 128,-1,11
 1018 326 1018 326 881 326 c 2,12,-1
 543 326 l 1,13,-1
 613 0 l 1,14,-1
 291 0 l 1,15,-1
 -19 1462 l 1,16,-1
 302 1462 l 1,0,-1
740 575 m 2,17,18
 795 575 795 575 844.5 583 c 128,-1,19
 894 591 894 591 928 615 c 128,-1,20
 962 639 962 639 976.5 682 c 128,-1,21
 991 725 991 725 976 795 c 256,22,23
 961 865 961 865 928.5 908 c 128,-1,24
 896 951 896 951 851.5 974.5 c 128,-1,25
 807 998 807 998 754.5 1006 c 128,-1,26
 702 1014 702 1014 647 1014 c 2,27,-1
 397 1014 l 1,28,-1
 490 575 l 1,29,-1
 740 575 l 2,17,18
EndSplineSet
Substitution2: "<17001,16003> Urdu lookup 100 subtable" Thorn
EndChar

StartChar: germandbls
Encoding: 223 223 160
Width: 1024
GlyphClass: 2
Flags: W
LayerCount: 2
Fore
SplineSet
52 832 m 2,0,1
 41 882 41 882 51.5 926 c 128,-1,2
 62 970 62 970 88 1007.5 c 128,-1,3
 114 1045 114 1045 152.5 1074.5 c 128,-1,4
 191 1104 191 1104 237 1124.5 c 128,-1,5
 283 1145 283 1145 333 1156 c 128,-1,6
 383 1167 383 1167 431 1167 c 0,7,8
 472 1167 472 1167 518.5 1162 c 128,-1,9
 565 1157 565 1157 612 1144 c 128,-1,10
 659 1131 659 1131 703.5 1110.5 c 128,-1,11
 748 1090 748 1090 785 1058 c 128,-1,12
 822 1026 822 1026 849.5 983 c 128,-1,13
 877 940 877 940 889 883 c 0,14,15
 901 825 901 825 893 772 c 128,-1,16
 885 719 885 719 858 680 c 1,17,18
 892 653 892 653 921.5 617.5 c 128,-1,19
 951 582 951 582 974 542 c 128,-1,20
 997 502 997 502 1013.5 462 c 128,-1,21
 1030 422 1030 422 1037 386 c 0,22,23
 1055 303 1055 303 1042.5 228.5 c 128,-1,24
 1030 154 1030 154 991 98.5 c 128,-1,25
 952 43 952 43 888.5 10.5 c 128,-1,26
 825 -22 825 -22 740 -22 c 0,27,28
 718 -22 718 -22 684.5 -17 c 128,-1,29
 651 -12 651 -12 605 -3 c 1,30,-1
 556 230 l 1,31,32
 596 221 596 221 619 216 c 128,-1,33
 642 211 642 211 654.5 209 c 128,-1,34
 667 207 667 207 672 206.5 c 128,-1,35
 677 206 677 206 680 206 c 0,36,37
 711 206 711 206 735 221 c 128,-1,38
 759 236 759 236 774 261 c 128,-1,39
 789 286 789 286 794.5 317 c 128,-1,40
 800 348 800 348 793 381 c 0,41,42
 783 429 783 429 755 462 c 128,-1,43
 727 495 727 495 686.5 515.5 c 128,-1,44
 646 536 646 536 595 544.5 c 128,-1,45
 544 553 544 553 487 553 c 1,46,-1
 439 779 l 1,47,48
 462 777 462 777 475.5 775.5 c 128,-1,49
 489 774 489 774 496.5 773.5 c 128,-1,50
 504 773 504 773 508 773 c 128,-1,51
 512 773 512 773 515 773 c 0,52,53
 542 773 542 773 565 778 c 128,-1,54
 588 783 588 783 604 794 c 128,-1,55
 620 805 620 805 626.5 822.5 c 128,-1,56
 633 840 633 840 627 866 c 0,57,58
 622 889 622 889 607 903 c 128,-1,59
 592 917 592 917 572.5 924.5 c 128,-1,60
 553 932 553 932 530.5 934.5 c 128,-1,61
 508 937 508 937 488 937 c 0,62,63
 463 937 463 937 430 931.5 c 128,-1,64
 397 926 397 926 369 912.5 c 128,-1,65
 341 899 341 899 324.5 875 c 128,-1,66
 308 851 308 851 316 813 c 2,67,-1
 490 -6 l 1,68,-1
 229 -6 l 1,69,-1
 52 832 l 2,0,1
EndSplineSet
Substitution2: "<17001,16003> Urdu lookup 100 subtable" germandbls
EndChar

StartChar: agrave
Encoding: 224 224 161
Width: 1176
GlyphClass: 2
Flags: W
LayerCount: 2
Fore
SplineSet
809 518 m 1,0,1
 794 502 794 502 769 492.5 c 128,-1,2
 744 483 744 483 713.5 477 c 128,-1,3
 683 471 683 471 648.5 467 c 128,-1,4
 614 463 614 463 580 457 c 0,5,6
 548 451 548 451 519 441 c 128,-1,7
 490 431 490 431 470 413.5 c 128,-1,8
 450 396 450 396 441.5 369 c 128,-1,9
 433 342 433 342 442 301 c 0,10,11
 450 261 450 261 470 235 c 128,-1,12
 490 209 490 209 518 193.5 c 128,-1,13
 546 178 546 178 579.5 172 c 128,-1,14
 613 166 613 166 649 166 c 0,15,16
 706 166 706 166 742.5 179.5 c 128,-1,17
 779 193 779 193 800.5 214.5 c 128,-1,18
 822 236 822 236 831 263 c 128,-1,19
 840 290 840 290 841.5 317.5 c 128,-1,20
 843 345 843 345 839.5 369 c 128,-1,21
 836 393 836 393 832 410 c 2,22,-1
 809 518 l 1,0,1
93 733 m 1,23,24
 78 835 78 835 108 903 c 128,-1,25
 138 971 138 971 198.5 1012 c 128,-1,26
 259 1053 259 1053 342 1070 c 128,-1,27
 425 1087 425 1087 514 1087 c 0,28,29
 593 1087 593 1087 678 1075.5 c 128,-1,30
 763 1064 763 1064 837.5 1031.5 c 128,-1,31
 912 999 912 999 967.5 940 c 128,-1,32
 1023 881 1023 881 1043 786 c 2,33,-1
 1160 236 l 2,34,35
 1168 200 1168 200 1177.5 164.5 c 128,-1,36
 1187 129 1187 129 1198 98 c 128,-1,37
 1209 67 1209 67 1221.5 41.5 c 128,-1,38
 1234 16 1234 16 1248 0 c 1,39,-1
 953 0 l 1,40,41
 939 25 939 25 928 50.5 c 128,-1,42
 917 76 917 76 910 102 c 1,43,44
 883 66 883 66 846.5 41.5 c 128,-1,45
 810 17 810 17 767.5 1.5 c 128,-1,46
 725 -14 725 -14 677.5 -20.5 c 128,-1,47
 630 -27 630 -27 581 -27 c 0,48,49
 505 -27 505 -27 435.5 -8.5 c 128,-1,50
 366 10 366 10 309 49 c 128,-1,51
 252 88 252 88 212 147.5 c 128,-1,52
 172 207 172 207 154 289 c 1,53,54
 136 379 136 379 155 437 c 128,-1,55
 174 495 174 495 217 530.5 c 128,-1,56
 260 566 260 566 320 583.5 c 128,-1,57
 380 601 380 601 444.5 610.5 c 128,-1,58
 509 620 509 620 570.5 626.5 c 128,-1,59
 632 633 632 633 678 645.5 c 128,-1,60
 724 658 724 658 748 681.5 c 128,-1,61
 772 705 772 705 760 750 c 1,62,63
 750 796 750 796 729 824 c 128,-1,64
 708 852 708 852 679.5 867.5 c 128,-1,65
 651 883 651 883 615.5 888 c 128,-1,66
 580 893 580 893 542 893 c 0,67,68
 456 893 456 893 414 856 c 128,-1,69
 372 819 372 819 383 733 c 1,70,-1
 93 733 l 1,23,24
382 1481 m 1,71,-1
 640 1190 l 1,72,-1
 438 1190 l 1,73,-1
 61 1481 l 1,74,-1
 382 1481 l 1,71,-1
EndSplineSet
Substitution2: "<17001,16003> Urdu lookup 100 subtable" agrave
Ligature2: "<17016,16016>  in Latin lookup 65 subtable" a grave
EndChar

StartChar: aacute
Encoding: 225 225 162
Width: 1176
GlyphClass: 2
Flags: W
LayerCount: 2
Fore
SplineSet
809 518 m 1,0,1
 794 502 794 502 769 492.5 c 128,-1,2
 744 483 744 483 713.5 477 c 128,-1,3
 683 471 683 471 648.5 467 c 128,-1,4
 614 463 614 463 580 457 c 0,5,6
 548 451 548 451 519 441 c 128,-1,7
 490 431 490 431 470 413.5 c 128,-1,8
 450 396 450 396 441.5 369 c 128,-1,9
 433 342 433 342 442 301 c 0,10,11
 450 261 450 261 470 235 c 128,-1,12
 490 209 490 209 518 193.5 c 128,-1,13
 546 178 546 178 579.5 172 c 128,-1,14
 613 166 613 166 649 166 c 0,15,16
 706 166 706 166 742.5 179.5 c 128,-1,17
 779 193 779 193 800.5 214.5 c 128,-1,18
 822 236 822 236 831 263 c 128,-1,19
 840 290 840 290 841.5 317.5 c 128,-1,20
 843 345 843 345 839.5 369 c 128,-1,21
 836 393 836 393 832 410 c 2,22,-1
 809 518 l 1,0,1
93 733 m 1,23,24
 78 835 78 835 108 903 c 128,-1,25
 138 971 138 971 198.5 1012 c 128,-1,26
 259 1053 259 1053 342 1070 c 128,-1,27
 425 1087 425 1087 514 1087 c 0,28,29
 593 1087 593 1087 678 1075.5 c 128,-1,30
 763 1064 763 1064 837.5 1031.5 c 128,-1,31
 912 999 912 999 967.5 940 c 128,-1,32
 1023 881 1023 881 1043 786 c 2,33,-1
 1160 236 l 2,34,35
 1168 200 1168 200 1177.5 164.5 c 128,-1,36
 1187 129 1187 129 1198 98 c 128,-1,37
 1209 67 1209 67 1221.5 41.5 c 128,-1,38
 1234 16 1234 16 1248 0 c 1,39,-1
 953 0 l 1,40,41
 939 25 939 25 928 50.5 c 128,-1,42
 917 76 917 76 910 102 c 1,43,44
 883 66 883 66 846.5 41.5 c 128,-1,45
 810 17 810 17 767.5 1.5 c 128,-1,46
 725 -14 725 -14 677.5 -20.5 c 128,-1,47
 630 -27 630 -27 581 -27 c 0,48,49
 505 -27 505 -27 435.5 -8.5 c 128,-1,50
 366 10 366 10 309 49 c 128,-1,51
 252 88 252 88 212 147.5 c 128,-1,52
 172 207 172 207 154 289 c 1,53,54
 136 379 136 379 155 437 c 128,-1,55
 174 495 174 495 217 530.5 c 128,-1,56
 260 566 260 566 320 583.5 c 128,-1,57
 380 601 380 601 444.5 610.5 c 128,-1,58
 509 620 509 620 570.5 626.5 c 128,-1,59
 632 633 632 633 678 645.5 c 128,-1,60
 724 658 724 658 748 681.5 c 128,-1,61
 772 705 772 705 760 750 c 1,62,63
 750 796 750 796 729 824 c 128,-1,64
 708 852 708 852 679.5 867.5 c 128,-1,65
 651 883 651 883 615.5 888 c 128,-1,66
 580 893 580 893 542 893 c 0,67,68
 456 893 456 893 414 856 c 128,-1,69
 372 819 372 819 383 733 c 1,70,-1
 93 733 l 1,23,24
331 1190 m 1,71,-1
 466 1481 l 1,72,-1
 787 1481 l 1,73,-1
 534 1190 l 1,74,-1
 331 1190 l 1,71,-1
EndSplineSet
Substitution2: "<17001,16003> Urdu lookup 100 subtable" aacute
Ligature2: "<17016,16016>  in Latin lookup 65 subtable" a acute
EndChar

StartChar: acircumflex
Encoding: 226 226 163
Width: 1176
GlyphClass: 2
Flags: W
LayerCount: 2
Fore
SplineSet
809 518 m 1,0,1
 794 502 794 502 769 492.5 c 128,-1,2
 744 483 744 483 713.5 477 c 128,-1,3
 683 471 683 471 648.5 467 c 128,-1,4
 614 463 614 463 580 457 c 0,5,6
 548 451 548 451 519 441 c 128,-1,7
 490 431 490 431 470 413.5 c 128,-1,8
 450 396 450 396 441.5 369 c 128,-1,9
 433 342 433 342 442 301 c 0,10,11
 450 261 450 261 470 235 c 128,-1,12
 490 209 490 209 518 193.5 c 128,-1,13
 546 178 546 178 579.5 172 c 128,-1,14
 613 166 613 166 649 166 c 0,15,16
 706 166 706 166 742.5 179.5 c 128,-1,17
 779 193 779 193 800.5 214.5 c 128,-1,18
 822 236 822 236 831 263 c 128,-1,19
 840 290 840 290 841.5 317.5 c 128,-1,20
 843 345 843 345 839.5 369 c 128,-1,21
 836 393 836 393 832 410 c 2,22,-1
 809 518 l 1,0,1
93 733 m 1,23,24
 78 835 78 835 108 903 c 128,-1,25
 138 971 138 971 198.5 1012 c 128,-1,26
 259 1053 259 1053 342 1070 c 128,-1,27
 425 1087 425 1087 514 1087 c 0,28,29
 593 1087 593 1087 678 1075.5 c 128,-1,30
 763 1064 763 1064 837.5 1031.5 c 128,-1,31
 912 999 912 999 967.5 940 c 128,-1,32
 1023 881 1023 881 1043 786 c 2,33,-1
 1160 236 l 2,34,35
 1168 200 1168 200 1177.5 164.5 c 128,-1,36
 1187 129 1187 129 1198 98 c 128,-1,37
 1209 67 1209 67 1221.5 41.5 c 128,-1,38
 1234 16 1234 16 1248 0 c 1,39,-1
 953 0 l 1,40,41
 939 25 939 25 928 50.5 c 128,-1,42
 917 76 917 76 910 102 c 1,43,44
 883 66 883 66 846.5 41.5 c 128,-1,45
 810 17 810 17 767.5 1.5 c 128,-1,46
 725 -14 725 -14 677.5 -20.5 c 128,-1,47
 630 -27 630 -27 581 -27 c 0,48,49
 505 -27 505 -27 435.5 -8.5 c 128,-1,50
 366 10 366 10 309 49 c 128,-1,51
 252 88 252 88 212 147.5 c 128,-1,52
 172 207 172 207 154 289 c 1,53,54
 136 379 136 379 155 437 c 128,-1,55
 174 495 174 495 217 530.5 c 128,-1,56
 260 566 260 566 320 583.5 c 128,-1,57
 380 601 380 601 444.5 610.5 c 128,-1,58
 509 620 509 620 570.5 626.5 c 128,-1,59
 632 633 632 633 678 645.5 c 128,-1,60
 724 658 724 658 748 681.5 c 128,-1,61
 772 705 772 705 760 750 c 1,62,63
 750 796 750 796 729 824 c 128,-1,64
 708 852 708 852 679.5 867.5 c 128,-1,65
 651 883 651 883 615.5 888 c 128,-1,66
 580 893 580 893 542 893 c 0,67,68
 456 893 456 893 414 856 c 128,-1,69
 372 819 372 819 383 733 c 1,70,-1
 93 733 l 1,23,24
558 1481 m 1,71,-1
 845 1190 l 1,72,-1
 606 1190 l 1,73,-1
 443 1356 l 1,74,-1
 348 1190 l 1,75,-1
 127 1190 l 1,76,-1
 292 1481 l 1,77,-1
 558 1481 l 1,71,-1
EndSplineSet
Substitution2: "<17001,16003> Urdu lookup 100 subtable" acircumflex
Ligature2: "<17016,16016>  in Latin lookup 65 subtable" a circumflex
EndChar

StartChar: atilde
Encoding: 227 227 164
Width: 1176
GlyphClass: 2
Flags: W
LayerCount: 2
Fore
SplineSet
809 518 m 1,0,1
 794 502 794 502 769 492.5 c 128,-1,2
 744 483 744 483 713.5 477 c 128,-1,3
 683 471 683 471 648.5 467 c 128,-1,4
 614 463 614 463 580 457 c 0,5,6
 548 451 548 451 519 441 c 128,-1,7
 490 431 490 431 470 413.5 c 128,-1,8
 450 396 450 396 441.5 369 c 128,-1,9
 433 342 433 342 442 301 c 0,10,11
 450 261 450 261 470 235 c 128,-1,12
 490 209 490 209 518 193.5 c 128,-1,13
 546 178 546 178 579.5 172 c 128,-1,14
 613 166 613 166 649 166 c 0,15,16
 706 166 706 166 742.5 179.5 c 128,-1,17
 779 193 779 193 800.5 214.5 c 128,-1,18
 822 236 822 236 831 263 c 128,-1,19
 840 290 840 290 841.5 317.5 c 128,-1,20
 843 345 843 345 839.5 369 c 128,-1,21
 836 393 836 393 832 410 c 2,22,-1
 809 518 l 1,0,1
93 733 m 1,23,24
 78 835 78 835 108 903 c 128,-1,25
 138 971 138 971 198.5 1012 c 128,-1,26
 259 1053 259 1053 342 1070 c 128,-1,27
 425 1087 425 1087 514 1087 c 0,28,29
 593 1087 593 1087 678 1075.5 c 128,-1,30
 763 1064 763 1064 837.5 1031.5 c 128,-1,31
 912 999 912 999 967.5 940 c 128,-1,32
 1023 881 1023 881 1043 786 c 2,33,-1
 1160 236 l 2,34,35
 1168 200 1168 200 1177.5 164.5 c 128,-1,36
 1187 129 1187 129 1198 98 c 128,-1,37
 1209 67 1209 67 1221.5 41.5 c 128,-1,38
 1234 16 1234 16 1248 0 c 1,39,-1
 953 0 l 1,40,41
 939 25 939 25 928 50.5 c 128,-1,42
 917 76 917 76 910 102 c 1,43,44
 883 66 883 66 846.5 41.5 c 128,-1,45
 810 17 810 17 767.5 1.5 c 128,-1,46
 725 -14 725 -14 677.5 -20.5 c 128,-1,47
 630 -27 630 -27 581 -27 c 0,48,49
 505 -27 505 -27 435.5 -8.5 c 128,-1,50
 366 10 366 10 309 49 c 128,-1,51
 252 88 252 88 212 147.5 c 128,-1,52
 172 207 172 207 154 289 c 1,53,54
 136 379 136 379 155 437 c 128,-1,55
 174 495 174 495 217 530.5 c 128,-1,56
 260 566 260 566 320 583.5 c 128,-1,57
 380 601 380 601 444.5 610.5 c 128,-1,58
 509 620 509 620 570.5 626.5 c 128,-1,59
 632 633 632 633 678 645.5 c 128,-1,60
 724 658 724 658 748 681.5 c 128,-1,61
 772 705 772 705 760 750 c 1,62,63
 750 796 750 796 729 824 c 128,-1,64
 708 852 708 852 679.5 867.5 c 128,-1,65
 651 883 651 883 615.5 888 c 128,-1,66
 580 893 580 893 542 893 c 0,67,68
 456 893 456 893 414 856 c 128,-1,69
 372 819 372 819 383 733 c 1,70,-1
 93 733 l 1,23,24
804 1462 m 1,71,72
 801 1428 801 1428 795.5 1387 c 128,-1,73
 790 1346 790 1346 772.5 1311 c 128,-1,74
 755 1276 755 1276 720 1252.5 c 128,-1,75
 685 1229 685 1229 623 1229 c 0,76,77
 575 1229 575 1229 532 1240 c 128,-1,78
 489 1251 489 1251 448 1264 c 0,79,80
 406 1278 406 1278 369.5 1288 c 128,-1,81
 333 1298 333 1298 298 1298 c 0,82,83
 257 1298 257 1298 244.5 1274.5 c 128,-1,84
 232 1251 232 1251 230 1212 c 1,85,-1
 106 1212 l 1,86,87
 107 1257 107 1257 113.5 1301.5 c 128,-1,88
 120 1346 120 1346 141.5 1381.5 c 128,-1,89
 163 1417 163 1417 203 1439.5 c 128,-1,90
 243 1462 243 1462 310 1462 c 0,91,92
 345 1462 345 1462 379 1451 c 128,-1,93
 413 1440 413 1440 448 1427 c 0,94,95
 483 1413 483 1413 519.5 1402 c 128,-1,96
 556 1391 556 1391 591 1391 c 0,97,98
 639 1391 639 1391 654.5 1412 c 128,-1,99
 670 1433 670 1433 662 1462 c 1,100,-1
 804 1462 l 1,71,72
EndSplineSet
Substitution2: "<17001,16003> Urdu lookup 100 subtable" atilde
Ligature2: "<17016,16016>  in Latin lookup 65 subtable" a tilde
EndChar

StartChar: adieresis
Encoding: 228 228 165
Width: 1176
GlyphClass: 2
Flags: W
LayerCount: 2
Fore
SplineSet
809 518 m 1,0,1
 794 502 794 502 769 492.5 c 128,-1,2
 744 483 744 483 713.5 477 c 128,-1,3
 683 471 683 471 648.5 467 c 128,-1,4
 614 463 614 463 580 457 c 0,5,6
 548 451 548 451 519 441 c 128,-1,7
 490 431 490 431 470 413.5 c 128,-1,8
 450 396 450 396 441.5 369 c 128,-1,9
 433 342 433 342 442 301 c 0,10,11
 450 261 450 261 470 235 c 128,-1,12
 490 209 490 209 518 193.5 c 128,-1,13
 546 178 546 178 579.5 172 c 128,-1,14
 613 166 613 166 649 166 c 0,15,16
 706 166 706 166 742.5 179.5 c 128,-1,17
 779 193 779 193 800.5 214.5 c 128,-1,18
 822 236 822 236 831 263 c 128,-1,19
 840 290 840 290 841.5 317.5 c 128,-1,20
 843 345 843 345 839.5 369 c 128,-1,21
 836 393 836 393 832 410 c 2,22,-1
 809 518 l 1,0,1
93 733 m 1,23,24
 78 835 78 835 108 903 c 128,-1,25
 138 971 138 971 198.5 1012 c 128,-1,26
 259 1053 259 1053 342 1070 c 128,-1,27
 425 1087 425 1087 514 1087 c 0,28,29
 593 1087 593 1087 678 1075.5 c 128,-1,30
 763 1064 763 1064 837.5 1031.5 c 128,-1,31
 912 999 912 999 967.5 940 c 128,-1,32
 1023 881 1023 881 1043 786 c 2,33,-1
 1160 236 l 2,34,35
 1168 200 1168 200 1177.5 164.5 c 128,-1,36
 1187 129 1187 129 1198 98 c 128,-1,37
 1209 67 1209 67 1221.5 41.5 c 128,-1,38
 1234 16 1234 16 1248 0 c 1,39,-1
 953 0 l 1,40,41
 939 25 939 25 928 50.5 c 128,-1,42
 917 76 917 76 910 102 c 1,43,44
 883 66 883 66 846.5 41.5 c 128,-1,45
 810 17 810 17 767.5 1.5 c 128,-1,46
 725 -14 725 -14 677.5 -20.5 c 128,-1,47
 630 -27 630 -27 581 -27 c 0,48,49
 505 -27 505 -27 435.5 -8.5 c 128,-1,50
 366 10 366 10 309 49 c 128,-1,51
 252 88 252 88 212 147.5 c 128,-1,52
 172 207 172 207 154 289 c 1,53,54
 136 379 136 379 155 437 c 128,-1,55
 174 495 174 495 217 530.5 c 128,-1,56
 260 566 260 566 320 583.5 c 128,-1,57
 380 601 380 601 444.5 610.5 c 128,-1,58
 509 620 509 620 570.5 626.5 c 128,-1,59
 632 633 632 633 678 645.5 c 128,-1,60
 724 658 724 658 748 681.5 c 128,-1,61
 772 705 772 705 760 750 c 1,62,63
 750 796 750 796 729 824 c 128,-1,64
 708 852 708 852 679.5 867.5 c 128,-1,65
 651 883 651 883 615.5 888 c 128,-1,66
 580 893 580 893 542 893 c 0,67,68
 456 893 456 893 414 856 c 128,-1,69
 372 819 372 819 383 733 c 1,70,-1
 93 733 l 1,23,24
777 1462 m 1,71,-1
 828 1223 l 1,72,-1
 552 1223 l 1,73,-1
 501 1462 l 1,74,-1
 777 1462 l 1,71,-1
355 1462 m 1,75,-1
 406 1223 l 1,76,-1
 131 1223 l 1,77,-1
 80 1462 l 1,78,-1
 355 1462 l 1,75,-1
EndSplineSet
Substitution2: "<17001,16003> Urdu lookup 100 subtable" adieresis
Ligature2: "<17016,16016>  in Latin lookup 65 subtable" a dieresis
EndChar

StartChar: aring
Encoding: 229 229 166
Width: 1176
GlyphClass: 2
Flags: W
LayerCount: 2
Fore
SplineSet
809 518 m 1,0,1
 794 502 794 502 769 492.5 c 128,-1,2
 744 483 744 483 713.5 477 c 128,-1,3
 683 471 683 471 648.5 467 c 128,-1,4
 614 463 614 463 580 457 c 0,5,6
 548 451 548 451 519 441 c 128,-1,7
 490 431 490 431 470 413.5 c 128,-1,8
 450 396 450 396 441.5 369 c 128,-1,9
 433 342 433 342 442 301 c 0,10,11
 450 261 450 261 470 235 c 128,-1,12
 490 209 490 209 518 193.5 c 128,-1,13
 546 178 546 178 579.5 172 c 128,-1,14
 613 166 613 166 649 166 c 0,15,16
 706 166 706 166 742.5 179.5 c 128,-1,17
 779 193 779 193 800.5 214.5 c 128,-1,18
 822 236 822 236 831 263 c 128,-1,19
 840 290 840 290 841.5 317.5 c 128,-1,20
 843 345 843 345 839.5 369 c 128,-1,21
 836 393 836 393 832 410 c 2,22,-1
 809 518 l 1,0,1
93 733 m 1,23,24
 78 835 78 835 108 903 c 128,-1,25
 138 971 138 971 198.5 1012 c 128,-1,26
 259 1053 259 1053 342 1070 c 128,-1,27
 425 1087 425 1087 514 1087 c 0,28,29
 593 1087 593 1087 678 1075.5 c 128,-1,30
 763 1064 763 1064 837.5 1031.5 c 128,-1,31
 912 999 912 999 967.5 940 c 128,-1,32
 1023 881 1023 881 1043 786 c 2,33,-1
 1160 236 l 2,34,35
 1168 200 1168 200 1177.5 164.5 c 128,-1,36
 1187 129 1187 129 1198 98 c 128,-1,37
 1209 67 1209 67 1221.5 41.5 c 128,-1,38
 1234 16 1234 16 1248 0 c 1,39,-1
 953 0 l 1,40,41
 939 25 939 25 928 50.5 c 128,-1,42
 917 76 917 76 910 102 c 1,43,44
 883 66 883 66 846.5 41.5 c 128,-1,45
 810 17 810 17 767.5 1.5 c 128,-1,46
 725 -14 725 -14 677.5 -20.5 c 128,-1,47
 630 -27 630 -27 581 -27 c 0,48,49
 505 -27 505 -27 435.5 -8.5 c 128,-1,50
 366 10 366 10 309 49 c 128,-1,51
 252 88 252 88 212 147.5 c 128,-1,52
 172 207 172 207 154 289 c 1,53,54
 136 379 136 379 155 437 c 128,-1,55
 174 495 174 495 217 530.5 c 128,-1,56
 260 566 260 566 320 583.5 c 128,-1,57
 380 601 380 601 444.5 610.5 c 128,-1,58
 509 620 509 620 570.5 626.5 c 128,-1,59
 632 633 632 633 678 645.5 c 128,-1,60
 724 658 724 658 748 681.5 c 128,-1,61
 772 705 772 705 760 750 c 1,62,63
 750 796 750 796 729 824 c 128,-1,64
 708 852 708 852 679.5 867.5 c 128,-1,65
 651 883 651 883 615.5 888 c 128,-1,66
 580 893 580 893 542 893 c 0,67,68
 456 893 456 893 414 856 c 128,-1,69
 372 819 372 819 383 733 c 1,70,-1
 93 733 l 1,23,24
323 1343 m 256,71,72
 329 1313 329 1313 343.5 1287 c 128,-1,73
 358 1261 358 1261 379 1241.5 c 128,-1,74
 400 1222 400 1222 426 1211 c 128,-1,75
 452 1200 452 1200 482 1200 c 256,76,77
 512 1200 512 1200 534 1211 c 128,-1,78
 556 1222 556 1222 569 1241.5 c 128,-1,79
 582 1261 582 1261 585.5 1287 c 128,-1,80
 589 1313 589 1313 583 1343 c 256,81,82
 577 1373 577 1373 562 1399.5 c 128,-1,83
 547 1426 547 1426 525.5 1445.5 c 128,-1,84
 504 1465 504 1465 477.5 1476 c 128,-1,85
 451 1487 451 1487 421 1487 c 256,86,87
 391 1487 391 1487 369.5 1476 c 128,-1,88
 348 1465 348 1465 335.5 1445.5 c 128,-1,89
 323 1426 323 1426 320 1399.5 c 128,-1,90
 317 1373 317 1373 323 1343 c 256,71,72
202 1343 m 0,91,92
 191 1396 191 1396 200.5 1441.5 c 128,-1,93
 210 1487 210 1487 237 1520.5 c 128,-1,94
 264 1554 264 1554 305.5 1573.5 c 128,-1,95
 347 1593 347 1593 399 1593 c 256,96,97
 451 1593 451 1593 501 1573.5 c 128,-1,98
 551 1554 551 1554 592.5 1520.5 c 128,-1,99
 634 1487 634 1487 663.5 1441.5 c 128,-1,100
 693 1396 693 1396 704 1343 c 0,101,102
 715 1291 715 1291 705 1245.5 c 128,-1,103
 695 1200 695 1200 668 1166.5 c 128,-1,104
 641 1133 641 1133 599 1113.5 c 128,-1,105
 557 1094 557 1094 505 1094 c 256,106,107
 453 1094 453 1094 403.5 1113.5 c 128,-1,108
 354 1133 354 1133 313 1166.5 c 128,-1,109
 272 1200 272 1200 242.5 1245.5 c 128,-1,110
 213 1291 213 1291 202 1343 c 0,91,92
EndSplineSet
Substitution2: "<17001,16003> Urdu lookup 100 subtable" aring
Ligature2: "<17016,16016>  in Latin lookup 65 subtable" a ring
EndChar

